<svg width="346" height="348" viewBox="0 0 346 348" fill="none" xmlns="http://www.w3.org/2000/svg">
<path d="M340.482 235H209.355V347.853H340.482V235Z" fill="#E94E54"/>
<path d="M258.468 162.68L279.049 160.372L303.863 169.991C303.863 169.991 304.633 235.775 303.092 235.391C301.555 235.007 245.963 231.929 245.963 230.775C245.963 229.621 242.309 199.613 242.309 199.613L258.468 162.68Z" fill="#E94C81"/>
<path d="M240.005 169.988C231.735 185.378 229.426 189.994 229.426 189.994L203.884 167.322C203.833 163.759 203.255 160.108 201.899 156.854C200.201 152.785 197.557 152.247 194.742 149.087C193.092 147.235 191.164 149.756 192.805 151.602L194.481 153.605C194.513 154.621 195.069 157.256 195.192 158.256C192.447 155.646 188.802 151.838 185.299 150.219C184.334 149.772 183.422 150.14 182.875 150.785C182.057 150.879 181.403 151.571 181.215 152.36C180.435 152.97 180.001 154.184 180.693 155.212C180.149 155.766 179.872 156.605 180.265 157.492C180.287 157.542 180.315 157.593 180.337 157.643C180.13 157.866 180.391 158.655 180.186 159.027C179.224 160.759 182.045 167.683 187.302 171.145C188.843 174.733 192.06 177.06 192.302 177.107C197.862 184.607 217.153 211.254 226.54 220.002C237.206 229.945 245.967 217.502 253.083 194.805C260.199 172.108 261.545 164.413 261.545 164.413L279.817 160.567C256.545 159.218 248.275 154.602 240.005 169.988Z" fill="#EBECF7"/>
<path d="M279.821 160.564L279.378 160.655L266.979 163.268L261.548 164.41C261.548 164.41 260.202 172.105 253.086 194.802C252.621 196.286 252.149 197.726 251.668 199.122C245.483 193.824 239.084 188.786 232.656 183.783C234.291 180.673 236.662 176.211 240.008 169.988C246.379 158.137 252.75 158.152 265.982 159.398C269.78 159.759 274.142 160.218 279.236 160.53C279.428 160.542 279.623 160.552 279.821 160.564Z" fill="#E94C81"/>
<path d="M252.521 172.859C251.948 179.085 251.376 185.312 250.804 191.538C250.782 191.783 251.165 191.783 251.187 191.538C251.76 185.312 252.332 179.085 252.904 172.859C252.926 172.611 252.543 172.614 252.521 172.859Z" fill="#B53862"/>
<path d="M230.764 193.214C230.506 192.444 230.251 191.676 229.993 190.906C229.915 190.673 229.544 190.774 229.622 191.01C229.88 191.78 230.135 192.547 230.393 193.318C230.471 193.55 230.842 193.45 230.764 193.214Z" fill="#7679D0"/>
<path d="M190.739 159.108C188.557 156.803 186.375 154.495 184.192 152.19C184.023 152.011 183.749 152.281 183.919 152.464C186.101 154.769 188.283 157.077 190.466 159.382C190.639 159.561 190.912 159.287 190.739 159.108Z" fill="#7679D0"/>
<path d="M188.249 161.593C186.255 159.313 184.262 157.033 182.268 154.756C182.104 154.571 181.834 154.841 181.994 155.03C183.988 157.31 185.982 159.589 187.975 161.866C188.139 162.052 188.409 161.778 188.249 161.593Z" fill="#7679D0"/>
<path d="M186.265 164.099C184.677 162.309 183.086 160.52 181.498 158.734C181.334 158.548 181.061 158.822 181.224 159.004C182.812 160.794 184.403 162.583 185.991 164.369C186.158 164.554 186.428 164.284 186.265 164.099Z" fill="#7679D0"/>
<path d="M196.333 166.806C195.399 164.69 195.201 162.394 195.745 160.146C195.805 159.907 195.434 159.803 195.374 160.042C194.802 162.398 195.022 164.784 196 166.998C196.101 167.228 196.431 167.033 196.333 166.806Z" fill="#7679D0"/>
<path d="M264.975 220.257C258.208 220.03 251.428 219.794 244.674 219.269C245.378 225.212 245.963 230.31 245.963 230.772C245.963 231.926 301.552 235.004 303.093 235.388C303.561 235.504 303.816 229.514 303.942 221.112C290.952 220.936 277.962 220.694 264.975 220.257Z" fill="#5EBEBD"/>
<path d="M291.506 222.615C314.659 218.137 344.308 209.267 345.164 231.291C346.019 253.318 317.259 254.444 285.242 254.359C253.227 254.274 251.545 254.249 246.02 260.601C240.885 266.506 236.19 271.424 230.074 265.928L248.91 236.341C248.913 236.341 279.89 224.86 291.506 222.615Z" fill="#5EBEBD"/>
<path d="M310.984 221.14C313.289 221.867 315.562 221.999 317.961 221.684C321.681 221.2 324.895 219.587 327.074 217.015C321.144 216.983 314.285 218.052 307.32 219.401C308.389 220.266 309.996 220.829 310.984 221.14Z" fill="#3FABA9"/>
<path d="M254.544 234.291C251.107 235.526 248.912 236.338 248.912 236.338L230.076 265.924C236.192 271.421 240.887 266.503 246.022 260.598C248.777 257.431 250.575 255.849 255.66 255.07C254.286 248.303 254.151 241.221 254.544 234.291Z" fill="#FFCA52"/>
<path d="M288.092 246.545C288.092 246.545 283.042 243.278 276.334 239.114C275.413 246.749 274.517 254.39 273.127 261.947C280.844 264.393 282.428 266.34 284.821 270.78C288.576 277.754 292.129 283.666 299.824 279.82L288.092 246.545Z" fill="#EBECF7"/>
<path d="M277.963 240.13C268.523 234.237 254.885 225.97 247.889 222.888C225.267 212.92 197.108 197.113 190.567 218.272C184.027 239.432 213.265 247.51 246.156 255.205C260.197 258.488 268.555 260.44 273.841 262.182C275.63 254.9 277.425 247.604 277.963 240.13Z" fill="#5EBEBD"/>
<path d="M288.091 246.545C288.091 246.545 285.522 244.885 281.62 242.422C282.016 244.765 282.723 247.048 282.925 249.422C283.126 251.777 282.538 253.96 281.62 256.11C280.453 258.84 278.975 261.359 278.51 264.044C281.843 265.748 283.129 267.641 284.821 270.78C288.575 277.754 292.129 283.666 299.823 279.82L288.091 246.545Z" fill="#FFCA52"/>
<path d="M275.809 238.567C265.574 233.457 254.889 229.291 243.892 226.131C243.653 226.061 243.553 226.432 243.788 226.502C254.75 229.652 265.407 233.803 275.614 238.901C275.837 239.011 276.032 238.677 275.809 238.567Z" fill="#3FABA9"/>
<path d="M313.867 226.043C301.336 225.819 288.793 226.781 276.444 228.939C272.904 229.555 269.382 230.275 265.882 231.083C265.64 231.14 265.744 231.511 265.986 231.454C278.224 228.627 290.724 226.964 303.277 226.517C306.805 226.392 310.336 226.366 313.867 226.429C314.116 226.432 314.116 226.049 313.867 226.043Z" fill="#3FABA9"/>
<path d="M230.86 220.074C225.977 218.571 221.093 217.068 216.21 215.565C215.974 215.493 215.87 215.864 216.106 215.936C220.989 217.439 225.873 218.942 230.756 220.445C230.995 220.521 231.096 220.15 230.86 220.074Z" fill="#3FABA9"/>
<path d="M279.05 160.372C293.09 161.718 310.979 159.602 313.096 172.491C315.212 185.378 316.749 191.343 317.712 200.575C318.674 209.807 322.136 220.964 310.596 222.118C299.055 223.272 272.509 225.388 272.509 225.388L267.314 211.348C267.314 211.348 288.858 203.653 295.782 201.537L294.436 173.837L279.05 160.372Z" fill="#EBECF7"/>
<path d="M317.191 196.22C309.952 196.368 302.738 196.692 295.61 197.893L294.44 173.837L284.953 165.536L279.378 160.659L279.233 160.533L279.051 160.376C282.195 160.674 285.528 160.807 288.843 160.967C300.314 161.523 311.455 162.489 313.1 172.492C314.864 183.252 316.228 189.183 317.191 196.22Z" fill="#E94C81"/>
<path d="M295.239 178.07C295.239 177.821 294.852 177.821 294.855 178.07C294.893 184.032 294.928 189.994 294.966 195.959C294.966 196.207 295.352 196.207 295.349 195.959C295.311 189.994 295.277 184.032 295.239 178.07Z" fill="#B53862"/>
<path d="M299.632 201.5C298.736 201.484 297.836 201.471 296.94 201.456C296.692 201.452 296.692 201.836 296.94 201.839C297.836 201.855 298.736 201.868 299.632 201.883C299.88 201.886 299.88 201.503 299.632 201.5Z" fill="#7679D0"/>
<path d="M277.604 163.577C280.296 162.926 282.956 162.152 285.626 161.42L279.793 147.606L269.545 152.175C269.73 152.338 271.359 159.017 272.674 164.514C274.306 164.19 275.975 163.97 277.604 163.577Z" fill="#EBECF7"/>
<path d="M276.644 149.967C276.616 149.555 276.572 149.14 276.503 148.731L269.541 152.175C269.664 152.285 270.409 155.209 271.28 158.766C273.928 156.316 275.994 153.297 276.644 149.967Z" fill="#7679D0"/>
<path d="M287.67 140.785C287.62 137.248 282.283 133.594 278.073 133.088C276.24 132.867 275.806 131.386 274.928 132.628C272.752 135.704 265.69 145.037 266.004 148.7C266.463 154.005 272.881 155.194 277.07 153.222C281.284 151.238 287.742 145.817 287.67 140.785Z" fill="#EBECF7"/>
<path d="M287.878 141.568C288.438 140.659 288.174 139.534 287.397 138.895C287.381 138.873 287.359 138.858 287.34 138.836C287.604 137.087 286.306 135.653 284.724 135.512C284.535 135.084 284.199 134.719 283.733 134.509C283.68 134.336 283.598 134.169 283.472 134.034C283.205 133.742 282.828 133.616 282.454 133.638C282.215 132.852 281.752 132.15 281.014 131.767C280.545 131.525 280.01 131.572 279.598 131.798C278.693 130.861 277.542 130.075 276.432 130.003C275.973 129.971 275.029 130.204 274.614 131.352C274.152 131.33 273.702 131.572 273.492 132.059C273.168 132.811 273.558 133.6 274.168 134.065C274.526 134.342 275.023 134.537 275.489 134.499C276.922 136.112 280.869 138.873 281.809 138.829C281.076 140.502 280.271 144.345 282.243 144.684C282.605 146.354 280.775 149.074 281.671 150.263C283.674 148.64 285.554 146.631 286.661 144.524C286.708 144.53 286.755 144.534 286.812 144.521C288.24 144.21 288.674 142.571 287.878 141.568Z" fill="#E94E54"/>
<path d="M286.043 148.797C286.499 146.911 284.653 144.483 281.98 144.728C280.767 146.458 279.499 148.146 278.207 149.816C278.842 150.87 280.754 152.184 282.446 152.055C284.373 151.904 285.549 150.829 286.043 148.797Z" fill="#EBECF7"/>
<path d="M283.16 147.549C282.408 147.628 281.657 147.706 280.905 147.785C280.654 147.81 280.726 148.178 280.968 148.165C281.018 148.162 281.069 148.159 281.122 148.156C281.141 148.156 281.157 148.15 281.172 148.143C281.855 148.071 282.54 147.999 283.223 147.93C283.471 147.901 283.405 147.524 283.16 147.549Z" fill="#7679D0"/>
<path d="M277.026 141.04C276.79 141.307 276.554 141.571 276.318 141.839C276.076 142.112 275.699 141.691 275.938 141.42C276.173 141.153 276.409 140.886 276.645 140.622C276.887 140.348 277.265 140.77 277.026 141.04Z" fill="#424F9C"/>
<path d="M273.467 138.122C273.231 138.389 272.995 138.653 272.759 138.92C272.517 139.194 272.14 138.773 272.379 138.502C272.615 138.235 272.851 137.968 273.087 137.704C273.326 137.43 273.706 137.851 273.467 138.122Z" fill="#424F9C"/>
<path d="M271.317 140.883C271.547 140.971 271.412 141.332 271.179 141.241C270.676 141.046 270.434 141.644 270.547 142.043C270.663 142.455 271.009 142.748 271.32 143.018C271.506 143.178 271.283 143.493 271.094 143.329C270.581 142.886 269.99 142.314 270.141 141.565C270.251 141.034 270.798 140.682 271.317 140.883Z" fill="#7679D0"/>
<path d="M277.761 139.015C278.035 139.314 278.305 139.612 278.579 139.911C278.912 140.276 278.318 140.76 277.985 140.399C277.711 140.1 277.441 139.801 277.167 139.502C276.837 139.134 277.431 138.65 277.761 139.015Z" fill="#424F9C"/>
<path d="M274.243 135.908C274.438 136.059 274.636 136.213 274.831 136.364C275.221 136.666 274.774 137.288 274.381 136.986C274.186 136.836 273.988 136.681 273.793 136.53C273.406 136.225 273.853 135.603 274.243 135.908Z" fill="#424F9C"/>
<path d="M268.997 146.867C269.32 147.21 269.83 147.301 270.261 147.112C270.487 147.012 270.644 147.364 270.418 147.464C269.824 147.725 269.144 147.581 268.701 147.112C268.531 146.93 268.83 146.688 268.997 146.867Z" fill="#7679D0"/>
<path d="M288.843 160.964C287.883 162.743 286.563 164.309 284.953 165.533C283.182 166.891 281.076 167.828 278.736 168.199C274.211 168.91 269.098 166.995 266.979 163.269C266.337 162.137 265.969 160.841 265.979 159.398C269.777 159.759 274.139 160.218 279.233 160.53L279.05 160.373C282.195 160.671 285.528 160.803 288.843 160.964Z" fill="#EBECF7"/>
<path d="M274.091 225.992L235.923 224.709L224.197 193.135L262.365 194.418L274.091 225.992Z" fill="#414F9D"/>
<path d="M288.189 225.697L236.248 223.948C235.754 223.933 235.726 224.7 236.222 224.719L288.164 226.467C288.657 226.483 288.686 225.712 288.189 225.697Z" fill="#414F9D"/>
<path d="M244.485 210.984C244.372 210.984 244.258 210.977 244.145 210.965C243.233 210.867 242.403 210.383 241.802 209.597C241.202 208.808 240.887 207.792 240.944 206.811C241.004 205.761 241.466 204.855 242.249 204.257C244.239 202.742 245.944 202.971 247.459 204.962C248.063 205.751 248.321 206.729 248.189 207.713C248.057 208.697 247.548 209.572 246.758 210.172C246.063 210.704 245.268 210.984 244.485 210.984ZM244.673 204.047C244.076 204.047 243.434 204.323 242.714 204.871C241.372 205.893 241.475 207.899 242.413 209.131C242.89 209.757 243.516 210.128 244.224 210.204C244.919 210.276 245.651 210.05 246.29 209.565C247.582 208.578 247.834 206.726 246.846 205.43C246.145 204.503 245.444 204.047 244.673 204.047Z" fill="white"/>
<path d="M268.878 214.707C266.623 208.49 264.369 202.273 262.114 196.053C262.029 195.824 261.658 195.921 261.743 196.154C263.998 202.371 266.252 208.587 268.507 214.807C268.589 215.04 268.963 214.939 268.878 214.707Z" fill="white"/>
<path d="M257.321 186.557C256.947 187.714 256.573 188.871 256.199 190.028C256.045 190.5 256.79 190.701 256.941 190.233C257.315 189.076 257.689 187.918 258.063 186.761C258.214 186.286 257.472 186.085 257.321 186.557Z" fill="#414F9D"/>
<path d="M267.644 184.041L263.436 190.852C263.175 191.274 263.842 191.66 264.1 191.242C265.502 188.972 266.905 186.702 268.307 184.431C268.568 184.007 267.905 183.62 267.644 184.041Z" fill="#414F9D"/>
<path d="M273.893 200.198C272.141 200.544 270.39 200.89 268.638 201.235C268.154 201.33 268.358 202.072 268.842 201.978C270.594 201.632 272.345 201.286 274.097 200.94C274.584 200.842 274.377 200.1 273.893 200.198Z" fill="#414F9D"/>
<path d="M128 124H0V348H128V124Z" fill="#FFCA52"/>
<path d="M114.919 311.412H95.623V330.96H114.919V311.412Z" fill="#FECA55"/>
<path d="M48.9558 79.0317L62.5107 30.732L51.5175 22.5161C33.8248 32.6267 27.059 35.8719 12.1735 68.3505C10.6638 71.6454 9.28339 74.8176 8.03906 77.8637C21.6769 78.2387 35.3147 78.6203 48.9558 79.0317Z" fill="#E94E54"/>
<path d="M43.5611 43.6167C38.3648 47.3364 33.1121 53.1499 32.548 59.7896C32.11 64.9627 34.8641 70.2287 38.0429 74.1309C39.4565 75.863 41.1355 77.5354 43.0302 78.856C45.0045 78.9158 46.9821 78.9689 48.9565 79.0286L60.7991 36.821C54.6638 37.8729 48.6446 39.98 43.5611 43.6167Z" fill="#8B2A2E"/>
<path d="M152.787 165.657C140.095 164.755 139.02 166.115 133.936 138.823C133.349 135.664 132.858 132.568 132.416 129.565C131.939 129.837 131.457 130.109 130.973 130.378C126.613 132.797 122.093 134.934 117.481 136.822C114.554 138.02 111.598 139.132 108.701 140.389C112.537 149.474 118.785 162.313 128.959 179.959L161.494 173.276C161.494 173.279 162.376 166.341 152.787 165.657Z" fill="#EBECF7"/>
<path d="M152.787 165.657C146.366 165.202 142.919 165.322 140.423 162.02C138.625 162.614 137.168 164.041 135.655 165.229C134.029 166.5 132.367 167.714 130.595 168.773C128.567 169.981 126.44 170.913 124.23 171.593C125.707 174.254 127.28 177.042 128.962 179.962L161.497 173.279C161.494 173.279 162.377 166.341 152.787 165.657Z" fill="#5EBEBD"/>
<path d="M122.59 186.887C110.953 180.393 109.331 181.203 116.637 153.058C117.484 149.8 118.393 146.647 119.312 143.601C118.734 143.648 118.16 143.691 117.583 143.731C112.373 144.086 107.137 144.106 101.921 143.847C98.6129 143.681 95.3113 143.422 92.0063 143.329C91.6082 153.652 91.8272 168.604 93.6356 189.867L127.465 197.987C127.461 197.983 131.383 191.798 122.59 186.887Z" fill="#EBECF7"/>
<path d="M91.8705 148.207C93.1214 148.346 94.3658 148.515 95.6134 148.684C100.339 149.335 105.07 149.733 109.825 150.101C112.311 150.294 117.67 149.909 120.155 150.078C127.491 123.171 135.498 104.131 114.471 97.0333C92.8195 89.7266 47.6256 83.7738 47.6256 83.7738L48.7504 79.7621C35.5108 78.2423 22.2844 76.6098 9.00168 75.5347C-2.97372 103.869 -3.87627 121.724 11.6297 122.474C28.4098 123.287 94.7142 122.474 94.7142 122.474C94.7142 122.474 92.2023 128.347 91.8705 148.207Z" fill="#414F9D"/>
<path d="M122.59 186.887C116.703 183.602 113.378 182.185 112.479 177.941C110.508 177.702 108.494 178.412 106.53 178.863C104.423 179.348 102.306 179.763 100.155 179.975C97.6932 180.217 95.261 180.157 92.8652 179.822C93.0809 183.005 93.3364 186.346 93.6351 189.863L127.464 197.983C127.461 197.983 131.383 191.798 122.59 186.887Z" fill="#5EBEBD"/>
<path d="M125.838 106.985C125.838 106.985 132.129 121.193 134.767 131.138C134.767 131.138 116.905 143.316 111.221 145.751C105.537 148.187 125.838 106.985 125.838 106.985Z" fill="#414F9D"/>
<path d="M116.637 151.76C116.348 152.567 116.063 153.373 115.774 154.179C115.688 154.425 116.079 154.531 116.166 154.289C116.454 153.482 116.74 152.676 117.028 151.87C117.115 151.621 116.723 151.515 116.637 151.76Z" fill="#952C28"/>
<path d="M43.886 87.3179C42.6649 86.923 41.4405 86.5315 40.2194 86.1366C39.9706 86.057 39.8644 86.4485 40.1099 86.5281L43.7765 87.7094C44.0254 87.7891 44.1349 87.3975 43.886 87.3179Z" fill="#32359E"/>
<path d="M126.999 114.056C125.891 120.682 124.78 127.308 123.671 133.935C123.628 134.19 124.02 134.3 124.063 134.044C125.171 127.418 126.283 120.792 127.391 114.165C127.434 113.91 127.043 113.8 126.999 114.056Z" fill="white"/>
<path d="M96.5071 121.22C96.1023 121.492 95.6942 121.76 95.2893 122.033C95.0737 122.175 95.2761 122.527 95.4951 122.384C95.8999 122.112 96.308 121.843 96.7128 121.571C96.9285 121.425 96.7261 121.074 96.5071 121.22Z" fill="white"/>
<path d="M98.1637 91.3524C99.0961 91.6311 99.5176 90.6755 99.2189 90.0517C101.207 89.8625 99.3251 86.2556 98.8406 85.5688C95.1873 80.3924 83.4143 81.3049 74.2793 84.5534L88.1826 91.0471L98.1803 92.2317C98.4358 91.4552 98.5022 91.7273 98.1637 91.3524Z" fill="#EBECF7"/>
<path d="M97.8213 90.8181C96.3447 88.6944 94.5363 86.8694 92.426 85.3762C92.2136 85.2236 92.0079 85.5753 92.2202 85.7279C94.2742 87.1813 96.0328 88.9565 97.4696 91.0238C97.6189 91.2362 97.974 91.0337 97.8213 90.8181Z" fill="#ADAED7"/>
<path d="M86.6998 85.0244C86.5074 84.8486 86.2187 85.1339 86.4111 85.3098C87.818 86.5873 88.6808 88.2431 88.8931 90.1345C88.923 90.39 89.3278 90.3933 89.298 90.1345C89.0756 88.1402 88.1864 86.3749 86.6998 85.0244Z" fill="#ADAED7"/>
<path d="M98.7448 89.2787C97.9218 87.1153 96.4618 85.3367 94.4908 84.1222C94.2685 83.9862 94.0628 84.3346 94.2851 84.474C96.1599 85.632 97.5701 87.3276 98.3532 89.3882C98.4461 89.6272 98.8377 89.5243 98.7448 89.2787Z" fill="#ADAED7"/>
<path d="M94.4445 91.0106C93.4557 90.6456 92.7456 89.9819 92.2843 89.0395C92.2545 88.9831 92.1748 88.9334 92.1085 88.94C91.1727 89.0362 90.3764 88.8405 89.5999 88.3129C89.3842 88.1669 89.1785 88.5186 89.3942 88.6646C89.8388 88.9665 90.3034 89.1922 90.8343 89.305C91.4116 89.4278 91.8131 89.2751 92.2047 89.753C92.8285 90.5128 93.3959 91.057 94.335 91.4054C94.5805 91.495 94.6867 91.1035 94.4445 91.0106Z" fill="#ADAED7"/>
<path d="M70.1745 22.4203C69.7066 22.5663 59.1979 36.2008 59.1979 36.2008L51.5195 22.5165L63.5646 14.9543L70.1745 22.4203Z" fill="#EBECF7"/>
<path d="M66.5684 26.754C68.4498 24.3781 70.0027 22.4735 70.1752 22.4204L67.076 18.9197C66.1171 21.4548 65.9578 24.1691 66.5684 26.754Z" fill="#7679D0"/>
<path d="M64.8883 70.9126C64.3474 70.3717 63.8065 69.8308 63.2657 69.29C63.0799 69.1041 62.7945 69.3928 62.9803 69.5753C63.5212 70.1162 64.062 70.6571 64.6029 71.1979C64.7854 71.3838 65.0708 71.0984 64.8883 70.9126Z" fill="#C8C9E5"/>
<path d="M87.7093 89.9657C85.3103 87.9018 82.9112 85.8379 80.5121 83.774C80.3164 83.6047 80.0277 83.8901 80.2235 84.0593C82.6225 86.1232 85.0216 88.1872 87.4206 90.2511C87.6197 90.4236 87.9084 90.1383 87.7093 89.9657Z" fill="#DADBEE"/>
<path d="M165.447 115.274C157.469 114.888 149.48 114.371 142.092 112.191C141.042 115.755 139.995 119.313 138.932 122.902C146.197 125.409 152.846 129.043 160.371 132.021C162.782 126.583 164.387 121.059 165.447 115.274Z" fill="#04A39E" stroke="#036D6A" stroke-width="9.5702" stroke-miterlimit="10"/>
<path d="M156.112 122.02C157.078 118.85 155.676 116.013 153.184 115.7C150.678 115.388 148.101 117.054 147.34 119.576C146.593 122.091 147.752 124.974 150.01 125.981C152.261 126.976 155.129 125.182 156.112 122.02Z" fill="#036D6A"/>
<path d="M138.932 122.902C139.215 121.946 139.496 120.996 139.776 120.045C141.339 120.521 142.2 122.245 141.694 123.901C140.782 123.547 139.862 123.212 138.932 122.902Z" fill="#036D6A"/>
<path d="M153.271 122.871C152.872 123.898 152.028 124.193 150.775 123.743C150.142 123.519 149.713 123.195 149.477 122.779C149.241 122.365 149.19 121.945 149.321 121.518C149.446 121.12 149.679 120.828 150.023 120.636C150.369 120.446 150.86 120.365 151.498 120.393C152.136 120.423 152.56 120.395 152.757 120.322C152.955 120.249 153.091 120.091 153.162 119.852C153.325 119.311 153.061 118.965 152.384 118.814C151.662 118.651 151.172 118.861 150.908 119.45C150.546 119.319 150.186 119.19 149.825 119.058C150.352 117.978 151.29 117.574 152.659 117.85C153.226 117.965 153.688 118.22 154.034 118.628C154.383 119.035 154.471 119.543 154.297 120.131C154.145 120.638 153.883 121.014 153.517 121.251C153.15 121.49 152.658 121.589 152.046 121.551C151.434 121.514 151.021 121.512 150.802 121.556C150.584 121.595 150.442 121.727 150.372 121.946C150.259 122.304 150.49 122.581 151.069 122.771C151.643 122.961 152.013 122.863 152.167 122.475C152.535 122.608 152.903 122.74 153.271 122.871Z" fill="#05DAD3"/>
<path d="M151.379 123.816C151.034 123.695 150.69 123.576 150.349 123.454C150.227 123.829 150.104 124.205 149.978 124.581C150.318 124.71 150.656 124.839 150.996 124.97C151.125 124.583 151.253 124.197 151.379 123.816Z" fill="#05DAD3"/>
<path d="M153.448 117.028C153.085 116.964 152.723 116.898 152.363 116.832C152.256 117.206 152.148 117.577 152.039 117.948C152.398 118.025 152.757 118.101 153.119 118.176C153.228 117.793 153.339 117.412 153.448 117.028Z" fill="#05DAD3"/>
<path d="M142.041 112.359C142.988 112.629 143.944 112.876 144.905 113.106C144.431 114.718 142.771 115.66 141.204 115.199C141.483 114.253 141.761 113.306 142.041 112.359Z" fill="#036D6A"/>
<path d="M165.395 115.55C165.108 117.089 164.783 118.604 164.416 120.106C162.688 119.827 161.809 117.75 162.341 115.362C163.361 115.425 164.382 115.484 165.395 115.55Z" fill="#036D6A"/>
<path d="M160.369 132.021C159.411 131.631 158.466 131.237 157.531 130.839C158.48 128.565 160.437 127.168 162.127 127.665C161.594 129.128 161.009 130.581 160.369 132.021Z" fill="#036D6A"/>
<path d="M145.468 119.019C145.636 118.455 145.334 117.88 144.798 117.726C144.261 117.575 143.695 117.892 143.533 118.438C143.37 118.986 143.669 119.563 144.199 119.733C144.733 119.902 145.299 119.583 145.468 119.019Z" fill="#036D6A"/>
<path d="M160.136 123.022C160.373 122.244 160.084 121.521 159.511 121.401C158.936 121.285 158.3 121.785 158.073 122.521C157.848 123.254 158.107 123.979 158.669 124.143C159.231 124.298 159.897 123.8 160.136 123.022Z" fill="#036D6A"/>
<path d="M167.25 119.499C159.41 117.973 151.577 116.315 144.576 113.102C143.028 116.478 141.481 119.851 139.915 123.249C146.745 126.771 152.806 131.322 159.825 135.345C162.992 130.311 165.371 125.072 167.25 119.499Z" fill="#04A39E" stroke="#036D6A" stroke-width="9.5702" stroke-miterlimit="10"/>
<path d="M157.045 124.838C158.457 121.838 157.473 118.831 155.053 118.164C152.618 117.494 149.827 118.776 148.715 121.162C147.613 123.544 148.35 126.563 150.439 127.884C152.524 129.192 155.619 127.827 157.045 124.838Z" fill="#036D6A"/>
<path d="M139.915 123.25C140.332 122.347 140.747 121.444 141.16 120.545C142.637 121.239 143.243 123.068 142.504 124.634C141.654 124.154 140.793 123.69 139.915 123.25Z" fill="#036D6A"/>
<path d="M154.113 125.275C153.571 126.234 152.694 126.405 151.519 125.78C150.926 125.466 150.545 125.083 150.371 124.639C150.196 124.195 150.206 123.772 150.397 123.37C150.579 122.992 150.848 122.737 151.218 122.598C151.588 122.458 152.085 122.448 152.713 122.567C153.34 122.688 153.762 122.721 153.971 122.677C154.178 122.634 154.334 122.497 154.44 122.27C154.676 121.757 154.465 121.378 153.819 121.131C153.127 120.867 152.612 121.004 152.265 121.548C151.926 121.367 151.588 121.187 151.25 121.005C151.927 120.01 152.913 119.746 154.228 120.215C154.772 120.411 155.193 120.728 155.479 121.184C155.766 121.637 155.781 122.152 155.521 122.71C155.3 123.188 154.985 123.523 154.589 123.706C154.191 123.89 153.691 123.917 153.09 123.793C152.489 123.667 152.082 123.606 151.859 123.618C151.637 123.628 151.478 123.735 151.377 123.943C151.215 124.282 151.403 124.589 151.949 124.859C152.492 125.129 152.87 125.084 153.079 124.723C153.421 124.909 153.767 125.092 154.113 125.275Z" fill="#05DAD3"/>
<path d="M152.105 125.938C151.781 125.77 151.459 125.6 151.136 125.432C150.962 125.784 150.786 126.137 150.608 126.493C150.924 126.67 151.242 126.846 151.561 127.022C151.744 126.66 151.926 126.298 152.105 125.938Z" fill="#05DAD3"/>
<path d="M155.124 119.517C154.774 119.402 154.426 119.285 154.078 119.167C153.918 119.521 153.757 119.875 153.597 120.225C153.942 120.353 154.286 120.479 154.634 120.603C154.797 120.242 154.961 119.881 155.124 119.517Z" fill="#05DAD3"/>
<path d="M144.501 113.262C145.402 113.662 146.311 114.048 147.23 114.412C146.531 115.938 144.752 116.635 143.267 115.953C143.678 115.056 144.09 114.159 144.501 113.262Z" fill="#036D6A"/>
<path d="M167.16 119.764C166.656 121.246 166.117 122.7 165.537 124.133C163.865 123.61 163.295 121.428 164.164 119.141C165.165 119.349 166.165 119.555 167.16 119.764Z" fill="#036D6A"/>
<path d="M159.826 135.345C158.933 134.823 158.053 134.298 157.185 133.77C158.45 131.655 160.586 130.553 162.188 131.287C161.452 132.657 160.665 134.012 159.826 135.345Z" fill="#036D6A"/>
<path d="M146.941 120.344C147.189 119.811 146.973 119.197 146.463 118.969C145.954 118.742 145.348 118.974 145.109 119.494C144.869 120.011 145.082 120.627 145.583 120.871C146.086 121.114 146.694 120.877 146.941 120.344Z" fill="#036D6A"/>
<path d="M160.885 126.406C161.233 125.669 161.049 124.911 160.498 124.712C159.948 124.513 159.246 124.919 158.915 125.614C158.586 126.307 158.739 127.062 159.272 127.302C159.808 127.54 160.537 127.142 160.885 126.406Z" fill="#036D6A"/>
<path d="M164.44 129.534C156.533 128.405 148.627 127.142 141.476 124.284C140.097 127.732 138.723 131.178 137.328 134.654C144.327 137.828 150.608 142.067 157.821 145.736C160.73 140.545 162.843 135.195 164.44 129.534Z" fill="#04A39E" stroke="#036D6A" stroke-width="9.5702" stroke-miterlimit="10"/>
<path d="M154.519 135.38C155.776 132.315 154.645 129.359 152.193 128.815C149.727 128.268 147.007 129.689 146.013 132.127C145.034 134.561 145.919 137.54 148.072 138.754C150.221 139.954 153.244 138.436 154.519 135.38Z" fill="#036D6A"/>
<path d="M137.328 134.654C137.699 133.728 138.068 132.807 138.435 131.887C139.946 132.507 140.643 134.303 139.984 135.905C139.11 135.467 138.226 135.048 137.328 134.654Z" fill="#036D6A"/>
<path d="M151.607 135.961C151.115 136.947 150.246 137.161 149.041 136.596C148.433 136.314 148.034 135.95 147.839 135.514C147.643 135.078 147.631 134.656 147.802 134.244C147.964 133.858 148.223 133.591 148.583 133.431C148.945 133.274 149.443 133.238 150.075 133.326C150.708 133.416 151.132 133.426 151.336 133.372C151.54 133.318 151.689 133.173 151.783 132.943C151.993 132.42 151.766 132.05 151.105 131.836C150.401 131.606 149.894 131.77 149.576 132.331C149.228 132.168 148.88 132.005 148.535 131.841C149.161 130.813 150.133 130.501 151.47 130.901C152.024 131.07 152.459 131.365 152.768 131.805C153.077 132.243 153.118 132.757 152.888 133.328C152.69 133.817 152.393 134.167 152.007 134.37C151.618 134.574 151.12 134.626 150.514 134.532C149.908 134.437 149.498 134.397 149.274 134.42C149.054 134.44 148.899 134.556 148.809 134.768C148.664 135.114 148.867 135.41 149.427 135.653C149.982 135.895 150.357 135.831 150.547 135.46C150.9 135.631 151.253 135.797 151.607 135.961Z" fill="#05DAD3"/>
<path d="M149.637 136.726C149.305 136.573 148.973 136.422 148.645 136.27C148.489 136.632 148.33 136.993 148.17 137.357C148.495 137.518 148.823 137.677 149.147 137.839C149.313 137.464 149.477 137.094 149.637 136.726Z" fill="#05DAD3"/>
<path d="M152.33 130.16C151.975 130.062 151.621 129.964 151.267 129.863C151.126 130.225 150.983 130.585 150.84 130.944C151.191 131.054 151.542 131.162 151.894 131.269C152.04 130.901 152.186 130.531 152.33 130.16Z" fill="#05DAD3"/>
<path d="M141.408 124.447C142.327 124.804 143.255 125.14 144.19 125.458C143.568 127.018 141.827 127.802 140.309 127.196C140.676 126.281 141.042 125.364 141.408 124.447Z" fill="#036D6A"/>
<path d="M164.362 129.803C163.933 131.308 163.468 132.788 162.961 134.248C161.268 133.81 160.586 131.658 161.339 129.33C162.348 129.489 163.359 129.644 164.362 129.803Z" fill="#036D6A"/>
<path d="M157.821 145.734C156.904 145.256 156 144.776 155.106 144.291C156.262 142.116 158.343 140.909 159.978 141.561C159.31 142.968 158.592 144.361 157.821 145.734Z" fill="#036D6A"/>
<path d="M144.2 131.398C144.42 130.853 144.174 130.25 143.654 130.049C143.134 129.848 142.54 130.111 142.329 130.641C142.115 131.171 142.358 131.774 142.872 131.993C143.383 132.208 143.98 131.942 144.2 131.398Z" fill="#036D6A"/>
<path d="M158.43 136.752C158.74 135.999 158.52 135.251 157.959 135.08C157.397 134.91 156.718 135.35 156.423 136.06C156.131 136.768 156.32 137.516 156.865 137.73C157.411 137.939 158.121 137.506 158.43 136.752Z" fill="#036D6A"/>
<path d="M165.842 133.91C158.179 131.659 150.534 129.276 143.864 125.423C142.007 128.639 140.152 131.853 138.275 135.092C144.749 139.235 150.356 144.331 156.97 148.993C160.591 144.276 163.45 139.283 165.842 133.91Z" fill="#04A39E" stroke="#036D6A" stroke-width="9.5702" stroke-miterlimit="10"/>
<path d="M155.181 138.273C156.866 135.417 156.168 132.331 153.82 131.443C151.458 130.549 148.56 131.563 147.229 133.835C145.91 136.105 146.361 139.179 148.318 140.689C150.273 142.185 153.482 141.114 155.181 138.273Z" fill="#036D6A"/>
<path d="M138.276 135.092C138.775 134.23 139.271 133.372 139.768 132.513C141.173 133.342 141.606 135.22 140.726 136.711C139.923 136.154 139.109 135.612 138.276 135.092Z" fill="#036D6A"/>
<path d="M152.221 138.433C151.593 139.337 150.702 139.425 149.591 138.693C149.029 138.327 148.685 137.91 148.555 137.452C148.424 136.993 148.471 136.573 148.699 136.191C148.914 135.832 149.209 135.603 149.589 135.499C149.969 135.394 150.467 135.432 151.081 135.609C151.694 135.788 152.112 135.86 152.321 135.834C152.532 135.811 152.7 135.688 152.827 135.474C153.111 134.986 152.936 134.59 152.314 134.282C151.649 133.954 151.125 134.043 150.728 134.552C150.406 134.341 150.088 134.13 149.768 133.918C150.535 132.992 151.542 132.82 152.807 133.409C153.331 133.655 153.719 134.009 153.961 134.49C154.204 134.968 154.171 135.482 153.861 136.014C153.596 136.468 153.251 136.772 152.839 136.918C152.425 137.064 151.926 137.045 151.34 136.865C150.754 136.684 150.353 136.584 150.129 136.576C149.907 136.564 149.738 136.657 149.618 136.853C149.425 137.176 149.583 137.498 150.102 137.818C150.616 138.137 150.998 138.127 151.239 137.788C151.567 138.004 151.894 138.218 152.221 138.433Z" fill="#05DAD3"/>
<path d="M150.161 138.905C149.855 138.707 149.55 138.509 149.243 138.312C149.038 138.645 148.83 138.982 148.619 139.318C148.917 139.524 149.218 139.73 149.518 139.935C149.735 139.592 149.949 139.248 150.161 138.905Z" fill="#05DAD3"/>
<path d="M153.766 132.793C153.429 132.646 153.093 132.497 152.757 132.347C152.565 132.684 152.372 133.021 152.18 133.356C152.511 133.515 152.842 133.673 153.176 133.828C153.373 133.485 153.57 133.142 153.766 132.793Z" fill="#05DAD3"/>
<path d="M143.776 125.576C144.636 126.06 145.506 126.527 146.386 126.975C145.547 128.43 143.712 128.957 142.296 128.139C142.789 127.286 143.285 126.43 143.776 125.576Z" fill="#036D6A"/>
<path d="M165.726 134.165C165.085 135.593 164.413 136.992 163.703 138.363C162.088 137.686 161.724 135.46 162.803 133.265C163.779 133.565 164.756 133.864 165.726 134.165Z" fill="#036D6A"/>
<path d="M156.969 148.993C156.129 148.39 155.303 147.786 154.488 147.177C155.944 145.19 158.176 144.293 159.701 145.171C158.839 146.47 157.93 147.745 156.969 148.993Z" fill="#036D6A"/>
<path d="M145.543 132.855C145.838 132.346 145.682 131.715 145.196 131.442C144.711 131.169 144.087 131.342 143.8 131.837C143.513 132.331 143.667 132.962 144.143 133.252C144.619 133.54 145.245 133.362 145.543 132.855Z" fill="#036D6A"/>
<path d="M158.857 140.193C159.272 139.492 159.161 138.72 158.631 138.47C158.101 138.22 157.364 138.558 156.97 139.22C156.579 139.88 156.66 140.646 157.169 140.935C157.678 141.22 158.443 140.892 158.857 140.193Z" fill="#036D6A"/>
<path d="M118.391 97.427L156.656 111.612C157.452 111.908 157.859 112.793 157.563 113.59L147.361 141.11C147.066 141.907 146.18 142.313 145.384 142.018L107.119 127.833C106.322 127.537 105.916 126.652 106.211 125.855L116.413 98.3362C116.707 97.539 117.594 97.1316 118.391 97.427Z" fill="#FCC953"/>
<path d="M133.06 134.79L133.426 134.926" stroke="white" stroke-width="2" stroke-miterlimit="10" stroke-linecap="round"/>
<path d="M134.171 135.202L144.543 139.047C144.998 139.216 145.496 139.004 145.655 138.575L148.938 129.722" stroke="white" stroke-width="2" stroke-miterlimit="10" stroke-linecap="round" stroke-dasharray="5.09 5.09"/>
<path d="M149.076 129.349L149.212 128.982" stroke="white" stroke-width="2" stroke-miterlimit="10" stroke-linecap="round"/>
<path d="M142.804 108.5L143.17 108.635" stroke="white" stroke-width="2" stroke-miterlimit="10" stroke-linecap="round"/>
<path d="M143.915 108.911L154.287 112.757C154.742 112.925 154.982 113.411 154.823 113.84L151.541 122.693" stroke="white" stroke-width="2" stroke-miterlimit="10" stroke-linecap="round" stroke-dasharray="5.09 5.09"/>
<path d="M151.403 123.067L151.268 123.433" stroke="white" stroke-width="2" stroke-miterlimit="10" stroke-linecap="round"/>
<path d="M120.787 130.241L120.421 130.105" stroke="white" stroke-width="2" stroke-miterlimit="10" stroke-linecap="round"/>
<path d="M119.678 129.83L109.306 125.985C108.85 125.816 108.61 125.33 108.77 124.901L112.052 116.048" stroke="white" stroke-width="2" stroke-miterlimit="10" stroke-linecap="round" stroke-dasharray="5.09 5.09"/>
<path d="M112.189 115.674L112.325 115.308" stroke="white" stroke-width="2" stroke-miterlimit="10" stroke-linecap="round"/>
<path d="M130.535 103.951L130.169 103.815" stroke="white" stroke-width="2" stroke-miterlimit="10" stroke-linecap="round"/>
<path d="M129.426 103.539L119.054 99.6942C118.598 99.5253 118.1 99.7371 117.941 100.166L114.659 109.019" stroke="white" stroke-width="2" stroke-miterlimit="10" stroke-linecap="round" stroke-dasharray="5.09 5.09"/>
<path d="M114.519 109.393L114.383 109.759" stroke="white" stroke-width="2" stroke-miterlimit="10" stroke-linecap="round"/>
<path d="M117.799 113.531C115.924 113.004 114.464 112.164 112.951 111.109C112.629 110.771 108.538 109.188 108.193 108.833C108.976 107.386 113.273 108.873 114.766 109.321C115.917 109.666 118.296 108.873 116.312 107.087C114.637 105.578 107.111 101.267 106.5 101.364C104.373 100.451 101.948 100.229 99.6316 100.431C86.9196 88.2932 70.0863 76.6363 65.2152 70.7863C65.2152 70.7863 65.1621 63.6489 64.9697 56.591C64.8933 53.744 64.7838 50.3396 64.6312 46.3909C64.1036 32.6469 62.7796 24.9785 54.8491 22.0718C54.8491 22.0718 41.8982 32.116 41.6327 44.5393C41.3673 56.9627 36.7848 80.3693 45.598 88.9469C54.4178 97.5344 84.64 111.016 91.8736 114.172C93.41 115.612 96.695 117.53 97.6705 118.419C100.464 121.545 105.027 123.539 109.394 123.264C110.174 123.214 110.711 122.802 111.01 122.265C111.152 122.006 111.458 121.89 111.746 121.936C112.168 122.006 112.596 122.063 113.027 122.102C114.132 122.209 114.749 121.515 114.892 120.682C114.955 120.304 115.277 120.028 115.659 120.055C115.665 120.055 115.672 120.055 115.678 120.055C117.411 120.174 117.958 118.379 117.334 117.162C117.387 117.158 117.444 117.158 117.497 117.158C120.765 117.208 120.145 114.195 117.799 113.531Z" fill="#EBECF7"/>
<path d="M47.1946 58.8175C52.245 58.4458 57.2455 57.8054 62.2493 57.0256C63.1585 56.8829 64.0677 56.7369 64.9736 56.5876C64.8973 53.7406 64.7878 50.3395 64.6351 46.3875C64.1075 32.6435 62.7836 24.9751 54.8531 22.0684C54.8531 22.0684 41.9021 32.1126 41.6367 44.5359C41.5504 48.5974 41.0029 53.8335 40.6113 59.3384C42.8047 59.136 44.998 58.98 47.1946 58.8175Z" fill="#E94E54"/>
<path d="M110.276 121.309C107.559 121.021 105.03 119.942 102.936 118.184C102.737 118.018 102.449 118.303 102.651 118.469C104.834 120.304 107.442 121.412 110.276 121.714C110.538 121.744 110.535 121.336 110.276 121.309Z" fill="#C8C9E5"/>
<path d="M114.061 118.794C111.466 118.602 109.037 117.636 107.02 115.994C106.817 115.831 106.529 116.117 106.731 116.279C108.838 117.998 111.347 118.997 114.061 119.199C114.323 119.219 114.32 118.814 114.061 118.794Z" fill="#C8C9E5"/>
<path d="M115.845 116.226C113.509 114.945 111.177 113.661 108.841 112.38C108.612 112.254 108.406 112.606 108.635 112.732C110.971 114.013 113.304 115.297 115.64 116.578C115.869 116.704 116.074 116.352 115.845 116.226Z" fill="#C8C9E5"/>
<path d="M68.4105 0.934872C71.6292 -1.39451 78.4978 0.954781 81.7795 4.40239C83.2064 5.90222 84.8323 5.30163 84.3047 6.92423C83.0007 10.9492 78.4647 24.3481 75.8333 25.7451C70.5508 28.5456 65.371 23.9167 64.3358 18.8233C63.2905 13.6967 63.8347 4.24644 68.4105 0.934872Z" fill="#EBECF7"/>
<path d="M85.661 3.80543C84.2441 2.14964 80.7899 1.83441 79.008 2.22928C75.5106 0.118904 70.885 -0.85333 68.413 0.935182C65.3503 3.15174 64.096 8.11909 63.9102 12.6949C65.5792 12.7015 66.5647 11.5899 68.3101 10.7969C73.4201 10.986 77.2726 8.05273 78.2846 6.27085C79.1274 7.52181 83.0861 8.38787 84.6157 7.41563C86.6963 5.86935 86.0957 4.31643 85.661 3.80543Z" fill="#414F9D"/>
<path d="M74.885 11.7457C74.6693 12.0542 74.4536 12.3595 74.238 12.6681C74.019 12.9833 74.5432 13.2687 74.7622 12.9568C74.9779 12.6482 75.1936 12.3429 75.4093 12.0343C75.6283 11.7191 75.104 11.4337 74.885 11.7457Z" fill="#414F9D"/>
<path d="M80.6995 13.2022C80.4838 13.5108 80.2681 13.8161 80.0524 14.1247C79.8334 14.4399 80.3577 14.7253 80.5767 14.4133C80.7924 14.1047 81.0081 13.7995 81.2237 13.4909C81.4427 13.1756 80.9151 12.8903 80.6995 13.2022Z" fill="#414F9D"/>
<path d="M78.692 16.4874C78.4929 16.3182 78.2274 16.6267 78.4265 16.796C78.8579 17.1643 78.4232 17.6886 77.9952 17.7815C77.5538 17.8777 77.1092 17.7052 76.7044 17.5492C76.4621 17.4563 76.283 17.8213 76.5252 17.9142C77.1921 18.1697 78.0217 18.4319 78.6422 17.9175C79.0868 17.5492 79.1399 16.869 78.692 16.4874Z" fill="#9FA0CF"/>
<path d="M76.4167 10.4483C76.002 10.3454 75.5905 10.2426 75.1757 10.1397C74.668 10.0136 74.5187 10.81 75.0198 10.9328C75.4345 11.0356 75.846 11.1385 76.2608 11.2414C76.7685 11.3708 76.9211 10.5744 76.4167 10.4483Z" fill="#414F9D"/>
<path d="M81.8554 11.2778C81.6165 11.1716 81.3776 11.0654 81.1387 10.9592C80.6608 10.7469 80.3091 11.4769 80.7836 11.6859C81.0225 11.7921 81.2614 11.8983 81.5004 12.0045C81.9782 12.2168 82.3332 11.4901 81.8554 11.2778Z" fill="#414F9D"/>
<path d="M74.2923 21.6336C73.8111 21.5041 73.4727 21.0761 73.4329 20.5817C73.413 20.3229 73.0081 20.3527 73.0281 20.6115C73.0811 21.2951 73.559 21.8526 74.216 22.0317C74.4682 22.0981 74.5445 21.6999 74.2923 21.6336Z" fill="#9FA0CF"/>
<path d="M67.1281 10.5743C67.0551 10.4283 66.939 10.3752 66.8195 10.3752C66.8361 10.1596 66.7133 9.93724 66.4346 9.95052C63.5345 10.0766 61.1255 11.7988 60.0769 14.44C54.5753 8.73937 45.1583 8.79578 39.9951 15.0639C39.2519 15.9664 38.8703 16.0228 37.7255 16.139C36.949 16.2153 36.1892 16.4243 35.4758 16.7396C34.0257 17.3767 32.7548 18.4683 31.975 19.8587C30.3889 22.6791 31.0791 26.1931 33.2094 28.4827C30.2894 29.4947 27.8572 31.9635 28.1956 35.2817C28.5905 39.154 32.2339 40.2855 35.6052 40.113C39.4277 39.9205 43.7148 39.1938 46.8174 36.8014C49.5383 34.7043 51.1443 31.1671 50.1488 27.819C57.2299 31.27 60.6808 21.1893 61.1387 20.3033C66.2985 19.9051 65.4192 15.9664 66.0961 14.9676C67.4997 12.8838 68.2231 12.771 67.1281 10.5743Z" fill="#414F9D"/>
<path d="M62.7016 11.0554C61.9816 13.053 63.6871 15.9763 66.6038 16.0858C68.1203 14.367 69.6931 12.6979 71.2891 11.0554C70.7284 9.81109 68.8204 8.0989 66.9788 8.00267C64.8784 7.89317 63.4781 8.9019 62.7016 11.0554Z" fill="#EBECF7"/>
<path d="M67.0213 11.3106C67.3233 12.0472 67.6252 12.7839 67.9305 13.5238C68.0301 13.7694 67.6551 13.8855 67.5456 13.6566C67.5224 13.6068 67.4991 13.5603 67.4759 13.5106C67.466 13.4907 67.466 13.4741 67.4626 13.4575C67.1872 12.7872 66.9118 12.1169 66.6364 11.4433C66.5402 11.1978 66.9251 11.0684 67.0213 11.3106Z" fill="#9FA0CF"/>
</svg>
