<svg width="1079" height="863" viewBox="0 0 1079 863" fill="none" xmlns="http://www.w3.org/2000/svg">
<path d="M1048 739H631V861.543H1048V739Z" fill="#E94E54"/>
<path d="M803.09 485.737L868.54 478.397L947.45 508.987C947.45 508.987 949.9 718.187 945 716.967C940.11 715.747 763.32 705.957 763.32 702.287C763.32 698.617 751.7 603.187 751.7 603.187L803.09 485.737Z" fill="#E94C81"/>
<path d="M744.37 508.977C718.07 557.917 710.73 572.597 710.73 572.597L629.5 500.497C629.34 489.167 627.5 477.557 623.19 467.207C617.79 454.267 609.38 452.557 600.43 442.507C595.18 436.617 589.05 444.637 594.27 450.507L599.6 456.877C599.7 460.107 601.47 468.487 601.86 471.667C593.13 463.367 581.54 451.257 570.4 446.107C567.33 444.687 564.43 445.857 562.69 447.907C560.09 448.207 558.01 450.407 557.41 452.917C554.93 454.857 553.55 458.717 555.75 461.987C554.02 463.747 553.14 466.417 554.39 469.237C554.46 469.397 554.55 469.557 554.62 469.717C553.96 470.427 554.79 472.937 554.14 474.117C551.08 479.627 560.05 501.647 576.77 512.657C581.67 524.067 591.9 531.467 592.67 531.617C610.35 555.467 671.7 640.207 701.55 668.027C735.47 699.647 763.33 660.077 785.96 587.897C808.59 515.717 812.87 491.247 812.87 491.247L870.98 479.017C796.97 474.727 770.67 460.047 744.37 508.977Z" fill="#EBECF7"/>
<path d="M870.99 479.007L869.58 479.297L830.15 487.607L812.88 491.237C812.88 491.237 808.6 515.707 785.97 587.887C784.49 592.607 782.99 597.187 781.46 601.627C761.79 584.777 741.44 568.757 721 552.847C726.2 542.957 733.74 528.767 744.38 508.977C764.64 471.287 784.9 471.337 826.98 475.297C839.06 476.447 852.93 477.907 869.13 478.897C869.74 478.937 870.36 478.967 870.99 479.007Z" fill="#E94C81"/>
<path d="M784.17 518.107C782.35 537.907 780.53 557.707 778.71 577.507C778.64 578.287 779.86 578.287 779.93 577.507C781.75 557.707 783.57 537.907 785.39 518.107C785.46 517.317 784.24 517.327 784.17 518.107Z" fill="#B53862"/>
<path d="M714.98 582.837C714.16 580.387 713.35 577.947 712.53 575.497C712.28 574.757 711.1 575.077 711.35 575.827C712.17 578.277 712.98 580.717 713.8 583.167C714.05 583.907 715.23 583.587 714.98 582.837Z" fill="#7679D0"/>
<path d="M587.7 474.377C580.76 467.047 573.82 459.707 566.88 452.377C566.34 451.807 565.47 452.667 566.01 453.247C572.95 460.577 579.89 467.917 586.83 475.247C587.38 475.817 588.25 474.947 587.7 474.377Z" fill="#7679D0"/>
<path d="M579.78 482.277C573.44 475.027 567.1 467.777 560.76 460.537C560.24 459.947 559.38 460.807 559.89 461.407C566.23 468.657 572.57 475.907 578.91 483.147C579.43 483.737 580.29 482.867 579.78 482.277Z" fill="#7679D0"/>
<path d="M573.47 490.247C568.42 484.557 563.36 478.867 558.31 473.187C557.79 472.597 556.92 473.467 557.44 474.047C562.49 479.737 567.55 485.427 572.6 491.107C573.13 491.697 573.99 490.837 573.47 490.247Z" fill="#7679D0"/>
<path d="M605.49 498.857C602.52 492.127 601.89 484.827 603.62 477.677C603.81 476.917 602.63 476.587 602.44 477.347C600.62 484.837 601.32 492.427 604.43 499.467C604.75 500.197 605.8 499.577 605.49 498.857Z" fill="#7679D0"/>
<path d="M823.78 668.837C802.26 668.117 780.7 667.367 759.22 665.697C761.46 684.597 763.32 700.807 763.32 702.277C763.32 705.947 940.1 715.737 945 716.957C946.49 717.327 947.3 698.277 947.7 671.557C906.39 670.997 865.08 670.227 823.78 668.837Z" fill="#5EBEBD"/>
<path d="M908.15 676.337C981.78 662.097 1076.07 633.887 1078.79 703.927C1081.51 773.977 990.05 777.557 888.23 777.287C786.42 777.017 781.07 776.937 763.5 797.137C747.17 815.917 732.24 831.557 712.79 814.077L772.69 719.987C772.7 719.987 871.21 683.477 908.15 676.337Z" fill="#5EBEBD"/>
<path d="M970.089 671.647C977.419 673.957 984.649 674.377 992.279 673.377C1004.11 671.837 1014.33 666.707 1021.26 658.527C1002.4 658.427 980.589 661.827 958.439 666.117C961.839 668.867 966.949 670.657 970.089 671.647Z" fill="#3FABA9"/>
<path d="M790.61 713.467C779.68 717.397 772.7 719.977 772.7 719.977L712.8 814.067C732.25 831.547 747.18 815.907 763.51 797.127C772.27 787.057 777.99 782.027 794.16 779.547C789.79 758.027 789.36 735.507 790.61 713.467Z" fill="#FFCA52"/>
<path d="M897.29 752.437C897.29 752.437 881.23 742.047 859.9 728.807C856.97 753.087 854.12 777.387 849.7 801.417C874.24 809.197 879.28 815.387 886.89 829.507C898.83 851.687 910.13 870.487 934.6 858.257L897.29 752.437Z" fill="#EBECF7"/>
<path d="M865.08 732.037C835.06 713.297 791.69 687.007 769.44 677.207C697.5 645.507 607.95 595.237 587.15 662.527C566.35 729.817 659.33 755.507 763.93 779.977C808.58 790.417 835.16 796.627 851.97 802.167C857.66 779.007 863.37 755.807 865.08 732.037Z" fill="#5EBEBD"/>
<path d="M897.29 752.437C897.29 752.437 889.12 747.157 876.71 739.327C877.97 746.777 880.22 754.037 880.86 761.587C881.5 769.077 879.63 776.017 876.71 782.857C873 791.537 868.3 799.547 866.82 808.087C877.42 813.507 881.51 819.527 886.89 829.507C898.83 851.687 910.13 870.487 934.6 858.257L897.29 752.437Z" fill="#FFCA52"/>
<path d="M858.23 727.067C825.68 710.817 791.7 697.567 756.73 687.517C755.97 687.297 755.65 688.477 756.4 688.697C791.26 698.717 825.15 711.917 857.61 728.127C858.32 728.477 858.94 727.417 858.23 727.067Z" fill="#3FABA9"/>
<path d="M979.26 687.237C939.41 686.527 899.52 689.587 860.25 696.447C848.99 698.407 837.79 700.697 826.66 703.267C825.89 703.447 826.22 704.627 826.99 704.447C865.91 695.457 905.66 690.167 945.58 688.747C956.8 688.347 968.03 688.267 979.26 688.467C980.05 688.477 980.05 687.257 979.26 687.237Z" fill="#3FABA9"/>
<path d="M715.29 668.257C699.76 663.477 684.23 658.697 668.7 653.917C667.95 653.687 667.62 654.867 668.37 655.097C683.9 659.877 699.43 664.657 714.96 669.437C715.72 669.677 716.04 668.497 715.29 668.257Z" fill="#3FABA9"/>
<path d="M868.54 478.397C913.19 482.677 970.08 475.947 976.81 516.937C983.54 557.917 988.43 576.887 991.49 606.247C994.55 635.607 1005.56 671.087 968.86 674.757C932.16 678.427 847.74 685.157 847.74 685.157L831.22 640.507C831.22 640.507 899.73 616.037 921.75 609.307L917.47 521.217L868.54 478.397Z" fill="#EBECF7"/>
<path d="M989.83 592.397C966.81 592.867 943.87 593.897 921.2 597.717L917.48 521.217L887.31 494.817L869.58 479.307L869.12 478.907L868.54 478.407C878.54 479.357 889.14 479.777 899.68 480.287C936.16 482.057 971.59 485.127 976.82 516.937C982.43 551.157 986.77 570.017 989.83 592.397Z" fill="#E94C81"/>
<path d="M920.02 534.677C920.02 533.887 918.79 533.887 918.8 534.677C918.92 553.637 919.03 572.597 919.15 591.567C919.15 592.357 920.38 592.357 920.37 591.567C920.25 572.597 920.14 553.637 920.02 534.677Z" fill="#B53862"/>
<path d="M933.99 609.187C931.14 609.137 928.28 609.097 925.43 609.047C924.64 609.037 924.64 610.257 925.43 610.267C928.28 610.317 931.14 610.357 933.99 610.407C934.78 610.417 934.78 609.197 933.99 609.187Z" fill="#7679D0"/>
<path d="M863.941 488.587C872.501 486.517 880.961 484.057 889.451 481.727L870.901 437.797L838.311 452.327C838.901 452.847 844.081 474.087 848.261 491.567C853.451 490.537 858.761 489.837 863.941 488.587Z" fill="#EBECF7"/>
<path d="M860.891 445.307C860.801 443.997 860.661 442.677 860.441 441.377L838.301 452.327C838.691 452.677 841.061 461.977 843.831 473.287C852.251 465.497 858.821 455.897 860.891 445.307Z" fill="#7679D0"/>
<path d="M895.95 416.107C895.79 404.857 878.82 393.237 865.43 391.627C859.6 390.927 858.22 386.217 855.43 390.167C848.51 399.947 826.05 429.627 827.05 441.277C828.51 458.147 848.92 461.927 862.24 455.657C875.64 449.347 896.18 432.107 895.95 416.107Z" fill="#EBECF7"/>
<path d="M896.611 418.597C898.391 415.707 897.551 412.127 895.081 410.097C895.031 410.027 894.961 409.977 894.901 409.907C895.741 404.347 891.611 399.787 886.581 399.337C885.981 397.977 884.911 396.817 883.431 396.147C883.261 395.597 883.001 395.067 882.601 394.637C881.751 393.707 880.551 393.307 879.361 393.377C878.601 390.877 877.131 388.647 874.781 387.427C873.291 386.657 871.591 386.807 870.281 387.527C867.401 384.547 863.741 382.047 860.211 381.817C858.751 381.717 855.751 382.457 854.431 386.107C852.961 386.037 851.531 386.807 850.861 388.357C849.831 390.747 851.071 393.257 853.011 394.737C854.151 395.617 855.731 396.237 857.211 396.117C861.771 401.247 874.321 410.027 877.311 409.887C874.981 415.207 872.421 427.427 878.691 428.507C879.841 433.817 874.021 442.467 876.871 446.247C883.241 441.087 889.221 434.697 892.741 427.997C892.891 428.017 893.041 428.027 893.221 427.987C897.761 426.997 899.141 421.787 896.611 418.597Z" fill="#E94E54"/>
<path d="M890.78 441.587C892.23 435.587 886.36 427.867 877.86 428.647C874 434.147 869.97 439.517 865.86 444.827C867.88 448.177 873.96 452.358 879.34 451.948C885.47 451.468 889.21 448.047 890.78 441.587Z" fill="#EBECF7"/>
<path d="M881.61 437.617C879.22 437.867 876.83 438.117 874.44 438.367C873.64 438.447 873.87 439.617 874.64 439.577C874.8 439.567 874.96 439.557 875.13 439.547C875.19 439.547 875.24 439.527 875.29 439.507C877.46 439.277 879.64 439.047 881.81 438.827C882.6 438.737 882.39 437.537 881.61 437.617Z" fill="#7679D0"/>
<path d="M862.1 416.918C861.35 417.768 860.6 418.607 859.85 419.457C859.08 420.327 857.88 418.987 858.64 418.127C859.39 417.277 860.14 416.427 860.89 415.587C861.66 414.717 862.86 416.058 862.1 416.918Z" fill="#424F9C"/>
<path d="M850.781 407.637C850.031 408.487 849.281 409.327 848.531 410.177C847.761 411.047 846.561 409.707 847.321 408.847C848.071 407.997 848.821 407.147 849.571 406.307C850.331 405.437 851.541 406.777 850.781 407.637Z" fill="#424F9C"/>
<path d="M843.95 416.417C844.68 416.697 844.25 417.847 843.51 417.557C841.91 416.937 841.14 418.837 841.5 420.107C841.87 421.417 842.97 422.347 843.96 423.207C844.55 423.717 843.84 424.717 843.24 424.197C841.61 422.787 839.73 420.967 840.21 418.587C840.56 416.897 842.3 415.777 843.95 416.417Z" fill="#7679D0"/>
<path d="M864.44 410.477C865.31 411.427 866.17 412.377 867.04 413.327C868.1 414.487 866.21 416.027 865.15 414.877C864.28 413.927 863.42 412.977 862.55 412.027C861.5 410.857 863.39 409.317 864.44 410.477Z" fill="#424F9C"/>
<path d="M853.25 400.598C853.87 401.078 854.5 401.567 855.12 402.047C856.36 403.007 854.94 404.988 853.69 404.028C853.07 403.548 852.44 403.057 851.82 402.577C850.59 401.607 852.01 399.628 853.25 400.598Z" fill="#424F9C"/>
<path d="M836.57 435.447C837.6 436.537 839.221 436.827 840.591 436.227C841.311 435.907 841.811 437.027 841.091 437.347C839.201 438.177 837.04 437.717 835.63 436.227C835.09 435.647 836.04 434.877 836.57 435.447Z" fill="#7679D0"/>
<path d="M899.68 480.277C896.63 485.937 892.43 490.917 887.31 494.807C881.68 499.127 874.98 502.107 867.54 503.287C853.15 505.547 836.89 499.457 830.15 487.607C828.11 484.007 826.94 479.887 826.97 475.297C839.05 476.447 852.92 477.907 869.12 478.897L868.54 478.397C878.54 479.347 889.14 479.767 899.68 480.277Z" fill="#EBECF7"/>
<path d="M852.77 687.077L731.39 682.997L694.1 582.587L815.48 586.667L852.77 687.077Z" fill="#414F9D"/>
<path d="M897.599 686.137L732.419 680.577C730.849 680.527 730.759 682.967 732.339 683.027L897.519 688.587C899.089 688.637 899.179 686.187 897.599 686.137Z" fill="#414F9D"/>
<path d="M758.62 639.347C758.26 639.347 757.9 639.327 757.54 639.287C754.64 638.977 752 637.437 750.09 634.937C748.18 632.427 747.18 629.197 747.36 626.077C747.55 622.737 749.02 619.857 751.51 617.957C757.84 613.137 763.26 613.867 768.08 620.197C770 622.707 770.82 625.817 770.4 628.947C769.98 632.077 768.36 634.857 765.85 636.767C763.64 638.457 761.11 639.347 758.62 639.347ZM759.22 617.287C757.32 617.287 755.28 618.167 752.99 619.907C748.72 623.157 749.05 629.537 752.03 633.457C753.55 635.447 755.54 636.627 757.79 636.867C760 637.097 762.33 636.377 764.36 634.837C768.47 631.697 769.27 625.807 766.13 621.687C763.9 618.737 761.67 617.287 759.22 617.287Z" fill="white"/>
<path d="M836.19 651.187C829.02 631.417 821.85 611.647 814.68 591.867C814.41 591.137 813.23 591.447 813.5 592.187C820.67 611.957 827.84 631.727 835.01 651.507C835.27 652.247 836.46 651.927 836.19 651.187Z" fill="white"/>
<path d="M799.44 561.667C798.25 565.347 797.06 569.027 795.87 572.707C795.38 574.207 797.75 574.847 798.23 573.357C799.42 569.677 800.61 565.997 801.8 562.317C802.28 560.807 799.92 560.167 799.44 561.667Z" fill="#414F9D"/>
<path d="M832.269 553.667L818.889 575.327C818.059 576.667 820.179 577.897 820.999 576.567C825.459 569.347 829.919 562.127 834.379 554.907C835.209 553.557 833.099 552.327 832.269 553.667Z" fill="#414F9D"/>
<path d="M852.14 605.047C846.57 606.147 841 607.247 835.43 608.347C833.89 608.647 834.54 611.007 836.08 610.707C841.65 609.607 847.22 608.507 852.79 607.407C854.34 607.097 853.68 604.737 852.14 605.047Z" fill="#414F9D"/>
<path d="M365.17 366.457H0V862H365.17V366.457Z" fill="#FFCA52"/>
<path d="M327.85 781.059H272.8V824.302H327.85V781.059Z" fill="#FECA55"/>
<path d="M189.69 238.177L230.54 92.6172L197.41 67.8572C144.09 98.3272 123.7 108.107 78.8399 205.987C74.2899 215.917 70.1299 225.477 66.3799 234.657C107.48 235.787 148.58 236.937 189.69 238.177Z" fill="#E94E54"/>
<path d="M173.43 131.447C157.77 142.657 141.94 160.177 140.24 180.187C138.92 195.777 147.22 211.647 156.8 223.407C161.06 228.627 166.12 233.667 171.83 237.647C177.78 237.827 183.74 237.987 189.69 238.167L225.38 110.967C206.89 114.137 188.75 120.487 173.43 131.447Z" fill="#8B2A2E"/>
<path d="M502.6 499.237C464.35 496.517 461.11 500.617 445.79 418.367C444.02 408.847 442.54 399.517 441.21 390.467C439.77 391.287 438.32 392.107 436.86 392.917C423.72 400.207 410.1 406.647 396.2 412.337C387.38 415.947 378.47 419.297 369.74 423.087C381.3 450.467 400.13 489.157 430.79 542.337L528.84 522.197C528.84 522.207 531.5 501.297 502.6 499.237Z" fill="#EBECF7"/>
<path d="M502.6 499.237C483.25 497.867 472.86 498.227 465.34 488.277C459.92 490.067 455.53 494.367 450.97 497.947C446.07 501.777 441.06 505.437 435.72 508.627C429.61 512.267 423.2 515.077 416.54 517.127C420.99 525.147 425.73 533.547 430.8 542.347L528.85 522.207C528.84 522.207 531.5 501.297 502.6 499.237Z" fill="#5EBEBD"/>
<path d="M411.6 563.217C376.53 543.647 371.64 546.087 393.66 461.267C396.21 451.447 398.95 441.947 401.72 432.767C399.98 432.907 398.25 433.037 396.51 433.157C380.81 434.227 365.03 434.287 349.31 433.507C339.34 433.007 329.39 432.227 319.43 431.947C318.23 463.057 318.89 508.117 324.34 572.197L426.29 596.667C426.28 596.657 438.1 578.017 411.6 563.217Z" fill="#EBECF7"/>
<path d="M319.02 446.647C322.79 447.067 326.54 447.577 330.3 448.087C344.54 450.047 358.8 451.247 373.13 452.357C380.62 452.937 396.77 451.777 404.26 452.287C426.37 371.197 450.5 313.817 387.13 292.427C321.88 270.407 185.68 252.467 185.68 252.467L189.07 240.377C149.17 235.797 109.31 230.877 69.2795 227.637C33.1895 313.027 30.4695 366.837 77.1995 369.097C127.77 371.547 327.59 369.097 327.59 369.097C327.59 369.097 320.02 386.797 319.02 446.647Z" fill="#414F9D"/>
<path d="M411.6 563.217C393.86 553.317 383.84 549.047 381.13 536.257C375.19 535.537 369.12 537.677 363.2 539.037C356.85 540.497 350.47 541.747 343.99 542.387C336.57 543.117 329.24 542.937 322.02 541.927C322.67 551.517 323.44 561.587 324.34 572.187L426.29 596.657C426.28 596.657 438.1 578.017 411.6 563.217Z" fill="#5EBEBD"/>
<path d="M421.39 322.417C421.39 322.417 440.35 365.237 448.3 395.207C448.3 395.207 394.47 431.907 377.34 439.247C360.21 446.587 421.39 322.417 421.39 322.417Z" fill="#414F9D"/>
<path d="M393.66 457.357C392.79 459.787 391.93 462.217 391.06 464.647C390.8 465.387 391.98 465.707 392.24 464.977C393.11 462.547 393.97 460.117 394.84 457.687C395.1 456.937 393.92 456.617 393.66 457.357Z" fill="#952C28"/>
<path d="M174.41 263.147C170.73 261.957 167.04 260.777 163.36 259.587C162.61 259.347 162.29 260.527 163.03 260.767L174.08 264.327C174.83 264.567 175.16 263.387 174.41 263.147Z" fill="#32359E"/>
<path d="M424.89 343.727C421.55 363.697 418.2 383.667 414.86 403.637C414.73 404.407 415.91 404.737 416.04 403.967C419.38 383.997 422.73 364.027 426.07 344.057C426.2 343.287 425.02 342.957 424.89 343.727Z" fill="white"/>
<path d="M332.99 365.317C331.77 366.137 330.54 366.947 329.32 367.767C328.67 368.197 329.28 369.257 329.94 368.827C331.16 368.007 332.39 367.197 333.61 366.377C334.26 365.937 333.65 364.877 332.99 365.317Z" fill="white"/>
<path d="M337.99 275.307C340.8 276.147 342.07 273.267 341.17 271.387C347.16 270.817 341.49 259.947 340.03 257.877C329.02 242.277 293.54 245.027 266.01 254.817L307.91 274.387L338.04 277.957C338.81 275.617 339.01 276.437 337.99 275.307Z" fill="#EBECF7"/>
<path d="M336.96 273.697C332.51 267.297 327.06 261.797 320.7 257.297C320.06 256.837 319.44 257.897 320.08 258.357C326.27 262.737 331.57 268.087 335.9 274.317C336.35 274.957 337.42 274.347 336.96 273.697Z" fill="#ADAED7"/>
<path d="M303.44 256.237C302.86 255.707 301.99 256.567 302.57 257.097C306.81 260.947 309.41 265.937 310.05 271.637C310.14 272.407 311.36 272.417 311.27 271.637C310.6 265.627 307.92 260.307 303.44 256.237Z" fill="#ADAED7"/>
<path d="M339.74 269.057C337.26 262.537 332.86 257.177 326.92 253.517C326.25 253.107 325.63 254.157 326.3 254.577C331.95 258.067 336.2 263.177 338.56 269.387C338.84 270.107 340.02 269.797 339.74 269.057Z" fill="#ADAED7"/>
<path d="M326.78 274.277C323.8 273.177 321.66 271.177 320.27 268.337C320.18 268.167 319.94 268.017 319.74 268.037C316.92 268.327 314.52 267.737 312.18 266.147C311.53 265.707 310.91 266.767 311.56 267.207C312.9 268.117 314.3 268.797 315.9 269.137C317.64 269.507 318.85 269.047 320.03 270.487C321.91 272.777 323.62 274.417 326.45 275.467C327.19 275.737 327.51 274.557 326.78 274.277Z" fill="#ADAED7"/>
<path d="M253.63 67.5674C252.22 68.0074 220.55 109.097 220.55 109.097L197.41 67.8574L233.71 45.0674L253.63 67.5674Z" fill="#EBECF7"/>
<path d="M242.76 80.6273C248.43 73.4673 253.11 67.7273 253.63 67.5673L244.29 57.0173C241.4 64.6573 240.92 72.8373 242.76 80.6273Z" fill="#7679D0"/>
<path d="M237.7 213.707C236.07 212.077 234.44 210.447 232.81 208.817C232.25 208.257 231.39 209.127 231.95 209.677C233.58 211.307 235.21 212.937 236.84 214.567C237.39 215.127 238.25 214.267 237.7 213.707Z" fill="#C8C9E5"/>
<path d="M306.48 271.127C299.25 264.907 292.02 258.687 284.79 252.467C284.2 251.957 283.33 252.817 283.92 253.327C291.15 259.547 298.38 265.767 305.61 271.987C306.21 272.507 307.08 271.647 306.48 271.127Z" fill="#DADBEE"/>
<path d="M540.759 347.398C516.716 346.236 492.64 344.676 470.375 338.108C467.211 348.849 464.054 359.572 460.853 370.388C482.747 377.943 502.784 388.895 525.462 397.869C532.728 381.481 537.563 364.834 540.759 347.398Z" fill="#04A39E" stroke="#036D6A" stroke-width="9.5702" stroke-miterlimit="10"/>
<path d="M512.629 367.729C515.538 358.175 511.313 349.625 503.805 348.684C496.252 347.742 488.486 352.765 486.191 360.363C483.939 367.942 487.434 376.633 494.237 379.667C501.022 382.664 509.663 377.258 512.629 367.729Z" fill="#036D6A"/>
<path d="M460.853 370.388C461.705 367.506 462.551 364.642 463.397 361.778C468.106 363.212 470.699 368.406 469.175 373.398C466.428 372.33 463.654 371.321 460.853 370.388Z" fill="#036D6A"/>
<path d="M504.068 370.294C502.866 373.387 500.323 374.277 496.547 372.922C494.64 372.245 493.345 371.268 492.635 370.016C491.923 368.768 491.77 367.501 492.165 366.217C492.54 365.016 493.243 364.137 494.281 363.558C495.322 362.985 496.803 362.741 498.724 362.825C500.649 362.916 501.925 362.832 502.519 362.611C503.118 362.391 503.525 361.914 503.741 361.196C504.23 359.565 503.437 358.523 501.397 358.068C499.219 357.577 497.744 358.21 496.947 359.983C495.858 359.589 494.771 359.201 493.684 358.803C495.273 355.547 498.098 354.33 502.223 355.161C503.932 355.509 505.324 356.276 506.369 357.507C507.42 358.734 507.686 360.264 507.16 362.037C506.704 363.565 505.912 364.697 504.809 365.412C503.703 366.132 502.222 366.431 500.378 366.315C498.531 366.203 497.288 366.199 496.627 366.33C495.971 366.448 495.542 366.847 495.332 367.507C494.992 368.586 495.687 369.421 497.433 369.993C499.164 370.564 500.277 370.269 500.741 369.1C501.852 369.502 502.96 369.898 504.068 370.294Z" fill="#05DAD3"/>
<path d="M498.369 373.141C497.329 372.776 496.293 372.416 495.264 372.05C494.896 373.179 494.526 374.312 494.146 375.446C495.171 375.836 496.191 376.224 497.215 376.619C497.602 375.452 497.988 374.29 498.369 373.141Z" fill="#05DAD3"/>
<path d="M504.601 352.685C503.509 352.49 502.418 352.292 501.331 352.095C501.009 353.22 500.684 354.34 500.355 355.458C501.439 355.689 502.519 355.919 503.611 356.143C503.938 354.989 504.272 353.843 504.601 352.685Z" fill="#05DAD3"/>
<path d="M470.222 338.614C473.079 339.427 475.96 340.174 478.856 340.866C477.427 345.723 472.423 348.562 467.702 347.173C468.543 344.322 469.38 341.47 470.222 338.614Z" fill="#036D6A"/>
<path d="M540.601 348.229C539.735 352.868 538.755 357.434 537.65 361.959C532.444 361.119 529.794 354.86 531.398 347.663C534.47 347.853 537.547 348.03 540.601 348.229Z" fill="#036D6A"/>
<path d="M525.458 397.868C522.57 396.692 519.722 395.505 516.904 394.305C519.765 387.454 525.663 383.244 530.756 384.741C529.151 389.151 527.388 393.528 525.458 397.868Z" fill="#036D6A"/>
<path d="M480.553 358.685C481.058 356.984 480.149 355.252 478.534 354.789C476.915 354.334 475.211 355.289 474.721 356.934C474.23 358.585 475.131 360.325 476.729 360.836C478.336 361.347 480.044 360.384 480.553 358.685Z" fill="#036D6A"/>
<path d="M524.757 370.75C525.471 368.404 524.603 366.224 522.873 365.864C521.141 365.513 519.226 367.022 518.54 369.238C517.862 371.447 518.643 373.634 520.338 374.126C522.032 374.594 524.039 373.094 524.757 370.75Z" fill="#036D6A"/>
<path d="M546.194 360.132C522.566 355.534 498.96 350.538 477.861 340.854C473.195 351.027 468.534 361.192 463.812 371.435C484.397 382.048 502.662 395.763 523.816 407.887C533.361 392.715 540.529 376.928 546.194 360.132Z" fill="#04A39E" stroke="#036D6A" stroke-width="9.5702" stroke-miterlimit="10"/>
<path d="M515.439 376.221C519.694 367.181 516.728 358.119 509.435 356.109C502.096 354.09 493.687 357.951 490.333 365.142C487.014 372.321 489.233 381.422 495.529 385.402C501.814 389.344 511.14 385.231 515.439 376.221Z" fill="#036D6A"/>
<path d="M463.817 371.437C465.073 368.714 466.322 365.995 467.568 363.284C472.018 365.375 473.846 370.887 471.618 375.609C469.057 374.163 466.463 372.764 463.817 371.437Z" fill="#036D6A"/>
<path d="M506.603 377.539C504.97 380.428 502.324 380.943 498.785 379.059C496.997 378.115 495.848 376.961 495.325 375.622C494.798 374.282 494.828 373.008 495.403 371.796C495.951 370.658 496.763 369.89 497.877 369.47C498.992 369.05 500.49 369.017 502.384 369.378C504.272 369.742 505.545 369.843 506.172 369.708C506.798 369.579 507.267 369.166 507.587 368.481C508.299 366.938 507.664 365.793 505.715 365.051C503.631 364.253 502.078 364.666 501.033 366.307C500.01 365.762 498.991 365.219 497.974 364.671C500.015 361.672 502.986 360.876 506.95 362.29C508.589 362.878 509.856 363.835 510.717 365.208C511.582 366.573 511.629 368.127 510.844 369.809C510.18 371.249 509.229 372.257 508.035 372.809C506.836 373.363 505.329 373.447 503.52 373.073C501.708 372.692 500.481 372.508 499.809 372.546C499.141 372.574 498.66 372.897 498.357 373.523C497.868 374.547 498.434 375.47 500.08 376.285C501.716 377.098 502.856 376.963 503.484 375.876C504.517 376.435 505.558 376.986 506.603 377.539Z" fill="#05DAD3"/>
<path d="M500.55 379.538C499.574 379.03 498.603 378.52 497.631 378.014C497.107 379.075 496.577 380.138 496.04 381.209C496.992 381.743 497.95 382.274 498.912 382.806C499.462 381.715 500.012 380.623 500.55 379.538Z" fill="#05DAD3"/>
<path d="M509.652 360.185C508.596 359.839 507.547 359.485 506.498 359.131C506.018 360.198 505.532 361.263 505.05 362.32C506.088 362.704 507.126 363.084 508.173 363.457C508.666 362.37 509.16 361.283 509.652 360.185Z" fill="#05DAD3"/>
<path d="M477.643 341.335C480.358 342.542 483.096 343.703 485.867 344.8C483.76 349.401 478.398 351.5 473.924 349.445C475.162 346.741 476.405 344.039 477.643 341.335Z" fill="#036D6A"/>
<path d="M545.924 360.93C544.403 365.397 542.778 369.78 541.032 374.097C535.994 372.521 534.275 365.945 536.895 359.054C539.911 359.68 542.924 360.3 545.924 360.93Z" fill="#036D6A"/>
<path d="M523.821 407.889C521.131 406.314 518.479 404.734 515.862 403.141C519.675 396.768 526.112 393.447 530.94 395.658C528.722 399.786 526.349 403.871 523.821 407.889Z" fill="#036D6A"/>
<path d="M484.991 362.68C485.737 361.074 485.088 359.222 483.55 358.536C482.016 357.852 480.191 358.551 479.47 360.116C478.747 361.675 479.389 363.53 480.899 364.265C482.415 364.998 484.245 364.286 484.991 362.68Z" fill="#036D6A"/>
<path d="M527.012 380.948C528.061 378.727 527.507 376.443 525.847 375.843C524.187 375.242 522.072 376.466 521.074 378.561C520.084 380.649 520.546 382.924 522.15 383.649C523.767 384.364 525.964 383.165 527.012 380.948Z" fill="#036D6A"/>
<path d="M537.73 390.373C513.9 386.971 490.074 383.164 468.522 374.551C464.368 384.944 460.227 395.328 456.023 405.803C477.116 415.369 496.045 428.145 517.781 439.2C526.547 423.558 532.916 407.435 537.73 390.373Z" fill="#04A39E" stroke="#036D6A" stroke-width="9.5702" stroke-miterlimit="10"/>
<path d="M507.824 407.992C511.615 398.755 508.205 389.845 500.816 388.205C493.384 386.559 485.185 390.839 482.19 398.188C479.24 405.523 481.906 414.499 488.396 418.16C494.872 421.776 503.983 417.201 507.824 407.992Z" fill="#036D6A"/>
<path d="M456.023 405.803C457.142 403.014 458.252 400.238 459.36 397.466C463.913 399.335 466.013 404.747 464.028 409.573C461.394 408.256 458.73 406.992 456.023 405.803Z" fill="#036D6A"/>
<path d="M499.057 409.743C497.575 412.712 494.956 413.358 491.325 411.656C489.491 410.805 488.291 409.708 487.704 408.395C487.111 407.081 487.076 405.808 487.591 404.568C488.078 403.404 488.859 402.599 489.946 402.118C491.035 401.643 492.536 401.537 494.441 401.801C496.348 402.072 497.627 402.104 498.24 401.94C498.857 401.777 499.305 401.341 499.588 400.647C500.222 399.07 499.536 397.957 497.546 397.31C495.423 396.618 493.895 397.111 492.936 398.804C491.889 398.31 490.841 397.821 489.8 397.325C491.685 394.228 494.615 393.286 498.645 394.494C500.315 395.003 501.627 395.891 502.555 397.219C503.487 398.538 503.611 400.085 502.918 401.806C502.321 403.282 501.428 404.336 500.262 404.948C499.09 405.563 497.591 405.72 495.764 405.435C493.937 405.149 492.702 405.027 492.028 405.099C491.364 405.159 490.898 405.508 490.626 406.145C490.189 407.188 490.802 408.083 492.488 408.814C494.161 409.544 495.292 409.351 495.862 408.232C496.926 408.747 497.991 409.247 499.057 409.743Z" fill="#05DAD3"/>
<path d="M493.117 412.049C492.118 411.588 491.118 411.132 490.127 410.674C489.658 411.765 489.179 412.853 488.697 413.949C489.678 414.433 490.664 414.914 491.643 415.403C492.142 414.273 492.636 413.156 493.117 412.049Z" fill="#05DAD3"/>
<path d="M501.235 392.261C500.165 391.965 499.1 391.67 498.033 391.365C497.608 392.458 497.176 393.543 496.745 394.623C497.802 394.954 498.86 395.282 499.92 395.604C500.363 394.493 500.8 393.38 501.235 392.261Z" fill="#05DAD3"/>
<path d="M468.32 375.043C471.088 376.12 473.886 377.132 476.703 378.091C474.83 382.793 469.581 385.155 465.007 383.329C466.115 380.572 467.215 377.807 468.32 375.043Z" fill="#036D6A"/>
<path d="M537.494 391.185C536.2 395.72 534.797 400.18 533.272 404.58C528.168 403.26 526.114 396.775 528.384 389.76C531.424 390.239 534.469 390.706 537.494 391.185Z" fill="#036D6A"/>
<path d="M517.783 439.196C515.019 437.754 512.292 436.307 509.601 434.847C513.085 428.292 519.354 424.652 524.283 426.62C522.269 430.858 520.106 435.056 517.783 439.196Z" fill="#036D6A"/>
<path d="M476.735 395.99C477.399 394.349 476.656 392.532 475.089 391.926C473.521 391.32 471.732 392.112 471.095 393.708C470.452 395.307 471.184 397.125 472.731 397.784C474.274 398.431 476.071 397.632 476.735 395.99Z" fill="#036D6A"/>
<path d="M519.614 412.127C520.546 409.857 519.886 407.604 518.194 407.088C516.502 406.576 514.454 407.9 513.565 410.041C512.684 412.174 513.254 414.428 514.898 415.073C516.542 415.702 518.682 414.397 519.614 412.127Z" fill="#036D6A"/>
<path d="M541.952 403.561C518.859 396.777 495.822 389.597 475.719 377.982C470.122 387.675 464.534 397.361 458.877 407.122C478.385 419.61 495.283 434.966 515.216 449.018C526.129 434.8 534.744 419.755 541.952 403.561Z" fill="#04A39E" stroke="#036D6A" stroke-width="9.5702" stroke-miterlimit="10"/>
<path d="M509.829 416.708C514.906 408.103 512.802 398.803 505.727 396.125C498.608 393.431 489.874 396.488 485.864 403.336C481.888 410.175 483.248 419.44 489.146 423.991C495.036 428.498 504.706 425.271 509.829 416.708Z" fill="#036D6A"/>
<path d="M458.877 407.122C460.381 404.527 461.878 401.939 463.374 399.351C467.609 401.849 468.914 407.509 466.26 412.002C463.84 410.322 461.388 408.69 458.877 407.122Z" fill="#036D6A"/>
<path d="M500.905 417.19C499.011 419.917 496.327 420.182 492.978 417.976C491.284 416.871 490.249 415.614 489.857 414.234C489.461 412.852 489.604 411.585 490.292 410.434C490.938 409.353 491.827 408.664 492.972 408.35C494.119 408.032 495.618 408.146 497.468 408.681C499.316 409.221 500.576 409.437 501.207 409.36C501.841 409.289 502.349 408.92 502.73 408.273C503.586 406.803 503.06 405.609 501.184 404.683C499.181 403.694 497.601 403.962 496.405 405.496C495.435 404.861 494.476 404.224 493.513 403.586C495.824 400.793 498.857 400.275 502.672 402.051C504.25 402.792 505.421 403.858 506.148 405.308C506.879 406.749 506.782 408.299 505.847 409.9C505.047 411.271 504.01 412.186 502.768 412.625C501.52 413.066 500.015 413.01 498.249 412.465C496.483 411.921 495.274 411.619 494.601 411.595C493.932 411.558 493.42 411.84 493.061 412.43C492.479 413.404 492.953 414.373 494.518 415.339C496.069 416.301 497.22 416.271 497.945 415.249C498.934 415.897 499.92 416.544 500.905 417.19Z" fill="#05DAD3"/>
<path d="M494.692 418.617C493.77 418.019 492.851 417.422 491.927 416.829C491.308 417.834 490.681 418.847 490.044 419.861C490.944 420.481 491.848 421.102 492.754 421.719C493.408 420.686 494.053 419.65 494.692 418.617Z" fill="#05DAD3"/>
<path d="M505.563 400.196C504.547 399.754 503.535 399.303 502.522 398.853C501.944 399.869 501.363 400.883 500.782 401.893C501.779 402.373 502.778 402.848 503.784 403.317C504.378 402.282 504.973 401.247 505.563 400.196Z" fill="#05DAD3"/>
<path d="M475.451 378.446C478.043 379.903 480.664 381.312 483.316 382.661C480.788 387.045 475.258 388.635 470.991 386.17C472.477 383.598 473.97 381.019 475.451 378.446Z" fill="#036D6A"/>
<path d="M541.602 404.329C539.67 408.633 537.646 412.848 535.506 416.98C530.64 414.94 529.542 408.232 532.793 401.616C535.736 402.521 538.68 403.422 541.602 404.329Z" fill="#036D6A"/>
<path d="M515.216 449.018C512.682 447.2 510.194 445.379 507.737 443.544C512.125 437.555 518.851 434.852 523.447 437.5C520.852 441.413 518.111 445.256 515.216 449.018Z" fill="#036D6A"/>
<path d="M480.78 400.381C481.669 398.848 481.199 396.947 479.733 396.122C478.271 395.299 476.39 395.822 475.526 397.314C474.663 398.801 475.127 400.705 476.561 401.578C477.996 402.447 479.881 401.911 480.78 400.381Z" fill="#036D6A"/>
<path d="M520.906 422.496C522.156 420.384 521.823 418.057 520.225 417.304C518.627 416.551 516.406 417.57 515.22 419.565C514.041 421.553 514.285 423.862 515.82 424.732C517.353 425.592 519.658 424.604 520.906 422.496Z" fill="#036D6A"/>
<path d="M398.95 293.612L514.267 336.362C516.668 337.252 517.893 339.92 517.003 342.321L486.256 425.259C485.366 427.66 482.698 428.885 480.297 427.995L364.98 385.244C362.579 384.354 361.354 381.686 362.245 379.285L392.989 296.352C393.875 293.949 396.549 292.722 398.95 293.612Z" fill="#FCC953"/>
<path d="M443.15 406.211L444.254 406.62" stroke="white" stroke-width="2" stroke-miterlimit="10" stroke-linecap="round"/>
<path d="M446.5 407.453L477.758 419.041C479.131 419.55 480.633 418.912 481.112 417.618L491.003 390.938" stroke="white" stroke-width="2" stroke-miterlimit="10" stroke-linecap="round" stroke-dasharray="5.09 5.09"/>
<path d="M491.42 389.812L491.829 388.709" stroke="white" stroke-width="2" stroke-miterlimit="10" stroke-linecap="round"/>
<path d="M472.524 326.981L473.627 327.39" stroke="white" stroke-width="2" stroke-miterlimit="10" stroke-linecap="round"/>
<path d="M475.874 328.223L507.131 339.811C508.504 340.32 509.227 341.783 508.748 343.076L498.856 369.757" stroke="white" stroke-width="2" stroke-miterlimit="10" stroke-linecap="round" stroke-dasharray="5.09 5.09"/>
<path d="M498.439 370.882L498.03 371.986" stroke="white" stroke-width="2" stroke-miterlimit="10" stroke-linecap="round"/>
<path d="M406.176 392.504L405.072 392.095" stroke="white" stroke-width="2" stroke-miterlimit="10" stroke-linecap="round"/>
<path d="M402.83 391.264L371.572 379.676C370.2 379.167 369.477 377.704 369.956 376.411L379.847 349.73" stroke="white" stroke-width="2" stroke-miterlimit="10" stroke-linecap="round" stroke-dasharray="5.09 5.09"/>
<path d="M380.265 348.605L380.674 347.502" stroke="white" stroke-width="2" stroke-miterlimit="10" stroke-linecap="round"/>
<path d="M435.549 313.274L434.445 312.865" stroke="white" stroke-width="2" stroke-miterlimit="10" stroke-linecap="round"/>
<path d="M432.203 312.034L400.945 300.446C399.573 299.937 398.071 300.575 397.592 301.869L387.701 328.549" stroke="white" stroke-width="2" stroke-miterlimit="10" stroke-linecap="round" stroke-dasharray="5.09 5.09"/>
<path d="M387.283 329.675L386.874 330.778" stroke="white" stroke-width="2" stroke-miterlimit="10" stroke-linecap="round"/>
<path d="M397.16 342.147C391.51 340.557 387.11 338.027 382.55 334.847C381.58 333.827 369.25 329.057 368.21 327.987C370.57 323.627 383.52 328.107 388.02 329.457C391.49 330.497 398.66 328.107 392.68 322.727C387.63 318.177 364.95 305.187 363.11 305.477C356.7 302.727 349.39 302.057 342.41 302.667C304.1 266.087 253.37 230.957 238.69 213.327C238.69 213.327 238.53 191.817 237.95 170.547C237.72 161.967 237.39 151.707 236.93 139.807C235.34 98.3873 231.35 75.2773 207.45 66.5173C207.45 66.5173 168.42 96.7873 167.62 134.227C166.82 171.667 153.01 242.207 179.57 268.057C206.15 293.937 297.23 334.567 319.03 344.077C323.66 348.417 333.56 354.197 336.5 356.877C344.92 366.297 358.67 372.307 371.83 371.477C374.18 371.327 375.8 370.087 376.7 368.467C377.13 367.687 378.05 367.337 378.92 367.477C380.19 367.687 381.48 367.857 382.78 367.977C386.11 368.297 387.97 366.207 388.4 363.697C388.59 362.557 389.56 361.727 390.71 361.807C390.73 361.807 390.75 361.807 390.77 361.807C395.99 362.167 397.64 356.757 395.76 353.087C395.92 353.077 396.09 353.077 396.25 353.077C406.1 353.227 404.23 344.147 397.16 342.147Z" fill="#EBECF7"/>
<path d="M184.38 177.257C199.6 176.137 214.67 174.207 229.75 171.857C232.49 171.427 235.23 170.987 237.96 170.537C237.73 161.957 237.4 151.707 236.94 139.797C235.35 98.3773 231.36 75.2673 207.46 66.5073C207.46 66.5073 168.43 96.7773 167.63 134.217C167.37 146.457 165.72 162.237 164.54 178.827C171.15 178.217 177.76 177.747 184.38 177.257Z" fill="#E94E54"/>
<path d="M374.49 365.587C366.3 364.717 358.68 361.467 352.37 356.167C351.77 355.667 350.9 356.527 351.51 357.027C358.09 362.557 365.95 365.897 374.49 366.807C375.28 366.897 375.27 365.667 374.49 365.587Z" fill="#C8C9E5"/>
<path d="M385.9 358.007C378.08 357.427 370.76 354.517 364.68 349.567C364.07 349.077 363.2 349.937 363.81 350.427C370.16 355.607 377.72 358.617 385.9 359.227C386.69 359.287 386.68 358.067 385.9 358.007Z" fill="#C8C9E5"/>
<path d="M391.27 350.267C384.23 346.407 377.2 342.537 370.16 338.677C369.47 338.297 368.85 339.357 369.54 339.737C376.58 343.597 383.61 347.467 390.65 351.327C391.34 351.707 391.96 350.647 391.27 350.267Z" fill="#C8C9E5"/>
<path d="M248.32 2.8174C258.02 -4.2026 278.72 2.8774 288.61 13.2674C292.91 17.7874 297.81 15.9774 296.22 20.8674C292.29 32.9974 278.62 73.3774 270.69 77.5874C254.77 86.0274 239.16 72.0774 236.04 56.7274C232.89 41.2774 234.53 12.7974 248.32 2.8174Z" fill="#EBECF7"/>
<path d="M300.31 11.4673C296.04 6.47735 285.63 5.52734 280.26 6.71734C269.72 0.357344 255.78 -2.57266 248.33 2.81734C239.1 9.49734 235.32 24.4673 234.76 38.2573C239.79 38.2773 242.76 34.9273 248.02 32.5373C263.42 33.1073 275.03 24.2673 278.08 18.8973C280.62 22.6673 292.55 25.2773 297.16 22.3473C303.43 17.6873 301.62 13.0073 300.31 11.4673Z" fill="#414F9D"/>
<path d="M267.84 35.3975C267.19 36.3275 266.54 37.2475 265.89 38.1775C265.23 39.1275 266.81 39.9875 267.47 39.0475C268.12 38.1175 268.77 37.1975 269.42 36.2675C270.08 35.3175 268.5 34.4575 267.84 35.3975Z" fill="#414F9D"/>
<path d="M285.36 39.7874C284.71 40.7174 284.06 41.6374 283.41 42.5674C282.75 43.5174 284.33 44.3774 284.99 43.4374C285.64 42.5074 286.29 41.5874 286.94 40.6574C287.6 39.7074 286.01 38.8474 285.36 39.7874Z" fill="#414F9D"/>
<path d="M279.31 49.6874C278.71 49.1774 277.91 50.1074 278.51 50.6174C279.81 51.7274 278.5 53.3074 277.21 53.5874C275.88 53.8774 274.54 53.3574 273.32 52.8874C272.59 52.6074 272.05 53.7074 272.78 53.9874C274.79 54.7574 277.29 55.5474 279.16 53.9974C280.5 52.8874 280.66 50.8374 279.31 49.6874Z" fill="#9FA0CF"/>
<path d="M272.45 31.4875C271.2 31.1775 269.96 30.8675 268.71 30.5575C267.18 30.1775 266.73 32.5775 268.24 32.9475C269.49 33.2575 270.73 33.5675 271.98 33.8775C273.51 34.2675 273.97 31.8675 272.45 31.4875Z" fill="#414F9D"/>
<path d="M288.84 33.9874C288.12 33.6674 287.4 33.3474 286.68 33.0274C285.24 32.3874 284.18 34.5874 285.61 35.2174C286.33 35.5374 287.05 35.8574 287.77 36.1774C289.21 36.8174 290.28 34.6274 288.84 33.9874Z" fill="#414F9D"/>
<path d="M266.05 65.1973C264.6 64.8073 263.58 63.5173 263.46 62.0273C263.4 61.2473 262.18 61.3373 262.24 62.1173C262.4 64.1773 263.84 65.8573 265.82 66.3973C266.58 66.5973 266.81 65.3973 266.05 65.1973Z" fill="#9FA0CF"/>
<path d="M244.46 31.8673C244.24 31.4273 243.89 31.2673 243.53 31.2673C243.58 30.6173 243.21 29.9473 242.37 29.9873C233.63 30.3673 226.37 35.5573 223.21 43.5173C206.63 26.3373 178.25 26.5073 162.69 45.3973C160.45 48.1173 159.3 48.2873 155.85 48.6373C153.51 48.8673 151.22 49.4973 149.07 50.4473C144.7 52.3673 140.87 55.6573 138.52 59.8473C133.74 68.3473 135.82 78.9373 142.24 85.8373C133.44 88.8873 126.11 96.3273 127.13 106.327C128.32 117.997 139.3 121.407 149.46 120.887C160.98 120.307 173.9 118.117 183.25 110.907C191.45 104.587 196.29 93.9273 193.29 83.8373C214.63 94.2373 225.03 63.8573 226.41 61.1873C241.96 59.9873 239.31 48.1173 241.35 45.1073C245.58 38.8273 247.76 38.4873 244.46 31.8673Z" fill="#414F9D"/>
<path d="M231.12 33.3175C228.95 39.3375 234.09 48.1475 242.88 48.4775C247.45 43.2975 252.19 38.2675 257 33.3175C255.31 29.5675 249.56 24.4075 244.01 24.1175C237.68 23.7875 233.46 26.8275 231.12 33.3175Z" fill="#EBECF7"/>
<path d="M244.141 34.0874C245.051 36.3074 245.961 38.5274 246.881 40.7574C247.181 41.4974 246.051 41.8474 245.721 41.1574C245.651 41.0074 245.581 40.8674 245.511 40.7174C245.481 40.6574 245.481 40.6074 245.471 40.5574C244.641 38.5374 243.811 36.5174 242.981 34.4874C242.691 33.7474 243.851 33.3574 244.141 34.0874Z" fill="#9FA0CF"/>
</svg>
