<svg width="100" height="113" viewBox="0 0 100 113" fill="none" xmlns="https://www.w3.org/2000/svg">
<g clip-path="url(#clip0_383926_2075)">
<path d="M88.3194 92.4881H8.24034C6.11975 92.4881 4.39453 90.7732 4.39453 88.6653V42.0952C4.39453 39.9874 6.11975 38.2725 8.24034 38.2725H88.3194C90.44 38.2725 92.1652 39.9874 92.1652 42.0952V88.6653C92.1652 90.7732 90.449 92.4881 88.3194 92.4881Z" fill="#B3B5ED"/>
<path d="M11.125 62.9866L14.6743 12.3794C14.7462 9.82497 17.0105 7.88678 19.5624 8.19939L56.3402 12.7367C58.5866 13.0136 60.2399 14.9518 60.1501 17.2026L57.8857 67.9705L11.125 62.9866Z" fill="#05DAD3"/>
<path d="M19.8584 20.9716L18.6094 61.9861L53.8237 64.0314L54.7132 25.1248C54.7132 25.1248 54.7672 23.5886 53.015 22.9455C51.2628 22.3024 48.6211 17.4882 48.6211 17.4882C48.6211 17.4882 48.8547 16.8808 45.4042 16.6843C41.9538 16.4878 27.5859 14.5586 27.5859 14.5586C27.5859 14.5586 26.1842 14.6033 25.5642 15.4875C24.9532 16.3717 23.3358 18.4975 21.3679 19.1048C19.4001 19.7122 19.8584 20.9716 19.8584 20.9716Z" fill="#9BF0ED"/>
<path d="M25.4102 47.1505L53.7775 2.04527C55.1343 -0.125142 58.0816 -0.652114 60.1213 0.902007L89.5399 23.3028C91.337 24.6693 91.7773 27.1792 90.5553 29.0727L62.772 71.7217L25.4102 47.1505Z" fill="#05DAD3"/>
<path d="M53.0235 13.1475L31.1797 47.9634L60.5714 67.3542L81.0404 34.1728C81.0404 34.1728 81.8671 32.8777 80.681 31.4397C79.4949 30.0017 79.6476 24.5265 79.6476 24.5265C79.6476 24.5265 80.1598 24.1157 77.2755 22.2222C74.3911 20.3286 62.9615 11.4773 62.9615 11.4773C62.9615 11.4773 61.7215 10.8074 60.7511 11.2719C59.7806 11.7363 57.3006 12.7545 55.2879 12.299C53.2751 11.8435 53.0235 13.1475 53.0235 13.1475Z" fill="#9BF0ED"/>
<path d="M56.0077 53.8762C62.0967 53.8762 67.0329 48.9696 67.0329 42.917C67.0329 36.8644 62.0967 31.9578 56.0077 31.9578C49.9186 31.9578 44.9824 36.8644 44.9824 42.917C44.9824 48.9696 49.9186 53.8762 56.0077 53.8762Z" fill="#05DAD3"/>
<path d="M89.7655 112.138H5.29248C2.37218 112.138 0 109.789 0 106.877V50.0801C0 47.1773 2.3632 44.8193 5.29248 44.8193H89.7655C92.6858 44.8193 95.058 47.1684 95.058 50.0801V106.877C95.049 109.789 92.6858 112.138 89.7655 112.138Z" fill="#B3B5ED"/>
<path d="M94.9142 56.7076H0V50.0892C0 47.1863 2.3632 44.8284 5.29248 44.8284H89.7655C92.6858 44.8284 95.058 47.1774 95.058 50.0892V56.5736C95.049 56.645 94.9861 56.7076 94.9142 56.7076Z" fill="#4247D2"/>
<path d="M94.9142 100.259H0V106.877C0 109.78 2.3632 112.138 5.29248 112.138H89.7655C92.6858 112.138 95.058 109.789 95.058 106.877V100.393C95.049 100.321 94.9861 100.259 94.9142 100.259Z" fill="#4247D2"/>
<path d="M80.151 67.6311H96.9809C98.6522 67.6311 100 68.9798 100 70.6322V86.611C100 88.2723 98.6433 89.6121 96.9809 89.6121H80.151C74.0409 89.6121 69.0898 84.6907 69.0898 78.6171C69.0898 72.5525 74.0409 67.6311 80.151 67.6311Z" fill="#4247D2"/>
<path d="M79.6037 83.4669C82.2984 83.4669 84.4829 81.2955 84.4829 78.617C84.4829 75.9385 82.2984 73.7671 79.6037 73.7671C76.9091 73.7671 74.7246 75.9385 74.7246 78.617C74.7246 81.2955 76.9091 83.4669 79.6037 83.4669Z" fill="#F2F2F2"/>
</g>
<defs>
<clipPath id="clip0_383926_2075">
<rect width="100" height="112.138" fill="white"/>
</clipPath>
</defs>
</svg>
