<svg width="100" height="95" viewBox="0 0 100 95" fill="none" xmlns="https://www.w3.org/2000/svg">
<path d="M94.4064 94.2149H5.58678C2.49881 94.2149 0 91.7233 0 88.6593V11.4544C0 8.38376 2.50559 5.89893 5.58678 5.89893H94.4064C97.4944 5.89893 99.9932 8.39049 99.9932 11.4544V88.6593C100 91.73 97.4944 94.2149 94.4064 94.2149Z" fill="#B3B5ED"/>
<path d="M100 27.0974H0V11.4544C0 8.38376 2.50559 5.89893 5.58678 5.89893H94.4065C97.4944 5.89893 99.9932 8.39049 99.9932 11.4544V27.0974H100Z" fill="#4247D2"/>
<path d="M21.7377 12.3501H19.4081C18.2095 12.3501 17.2344 11.3804 17.2344 10.1885V2.1616C17.2344 0.969691 18.2095 0 19.4081 0H21.7377C22.9363 0 23.9114 0.969691 23.9114 2.1616V10.1885C23.9114 11.3871 22.9363 12.3501 21.7377 12.3501Z" fill="#05DAD3"/>
<path d="M81.2884 12.3501H78.9589C77.7603 12.3501 76.7852 11.3804 76.7852 10.1885V2.1616C76.7852 0.969691 77.7603 0 78.9589 0H81.2884C82.4871 0 83.4622 0.969691 83.4622 2.1616V10.1885C83.4622 11.3871 82.4871 12.3501 81.2884 12.3501Z" fill="#05DAD3"/>
<path d="M16.3533 47.1376H9.21575C7.78689 47.1376 6.62891 45.9861 6.62891 44.5652V37.5619C6.62891 36.141 7.78689 34.9895 9.21575 34.9895H16.3601C17.7889 34.9895 18.9469 36.141 18.9469 37.5619V44.5585C18.9401 45.9861 17.7822 47.1376 16.3533 47.1376Z" fill="white"/>
<path d="M35.3357 47.1376H28.1982C26.7693 47.1376 25.6113 45.9861 25.6113 44.5652V37.5619C25.6113 36.141 26.7693 34.9895 28.1982 34.9895H35.3425C36.7713 34.9895 37.9293 36.141 37.9293 37.5619V44.5585C37.9293 45.9861 36.7713 47.1376 35.3357 47.1376Z" fill="white"/>
<path d="M53.8698 47.1376H46.7255C45.2967 47.1376 44.1387 45.9861 44.1387 44.5652V37.5619C44.1387 36.141 45.2967 34.9895 46.7255 34.9895H53.8698C55.2987 34.9895 56.4567 36.141 56.4567 37.5619V44.5585C56.4567 45.9861 55.2987 47.1376 53.8698 47.1376Z" fill="white"/>
<path d="M72.6081 47.1376H65.4638C64.0349 47.1376 62.877 45.9861 62.877 44.5652V37.5619C62.877 36.141 64.0349 34.9895 65.4638 34.9895H72.6081C74.037 34.9895 75.195 36.141 75.195 37.5619V44.5585C75.195 45.9861 74.037 47.1376 72.6081 47.1376Z" fill="white"/>
<path d="M91.3464 47.1376H84.2021C82.7732 47.1376 81.6152 45.9861 81.6152 44.5652V37.5619C81.6152 36.141 82.7732 34.9895 84.2021 34.9895H91.3464C92.7752 34.9895 93.9332 36.141 93.9332 37.5619V44.5585C93.9332 45.9861 92.7752 47.1376 91.3464 47.1376Z" fill="white"/>
<path d="M91.3464 65.4608H84.2021C82.7732 65.4608 81.6152 64.3093 81.6152 62.8884V55.8851C81.6152 54.4643 82.7732 53.3127 84.2021 53.3127H91.3464C92.7752 53.3127 93.9332 54.4643 93.9332 55.8851V62.8817C93.9332 64.3093 92.7752 65.4608 91.3464 65.4608Z" fill="white"/>
<path d="M72.6081 65.4608H65.4638C64.0349 65.4608 62.877 64.3093 62.877 62.8884V55.8851C62.877 54.4643 64.0349 53.3127 65.4638 53.3127H72.6081C74.037 53.3127 75.195 54.4643 75.195 55.8851V62.8817C75.195 64.3093 74.037 65.4608 72.6081 65.4608Z" fill="white"/>
<path d="M53.8698 65.4608H46.7255C45.2967 65.4608 44.1387 64.3093 44.1387 62.8884V55.8851C44.1387 54.4643 45.2967 53.3127 46.7255 53.3127H53.8698C55.2987 53.3127 56.4567 54.4643 56.4567 55.8851V62.8817C56.4567 64.3093 55.2987 65.4608 53.8698 65.4608Z" fill="white"/>
<path d="M35.3357 65.4608H28.1982C26.7693 65.4608 25.6113 64.3093 25.6113 62.8884V55.8851C25.6113 54.4643 26.7693 53.3127 28.1982 53.3127H35.3425C36.7713 53.3127 37.9293 54.4643 37.9293 55.8851V62.8817C37.9293 64.3093 36.7713 65.4608 35.3357 65.4608Z" fill="white"/>
<path d="M16.3533 65.4608H9.21575C7.78689 65.4608 6.62891 64.3093 6.62891 62.8884V55.8851C6.62891 54.4643 7.78689 53.3127 9.21575 53.3127H16.3601C17.7889 53.3127 18.9469 54.4643 18.9469 55.8851V62.8817C18.9401 64.3093 17.7822 65.4608 16.3533 65.4608Z" fill="white"/>
<path d="M16.3533 83.885H9.21575C7.78689 83.885 6.62891 82.7335 6.62891 81.3126V74.316C6.62891 72.8952 7.78689 71.7437 9.21575 71.7437H16.3601C17.7889 71.7437 18.9469 72.8952 18.9469 74.316V81.3126C18.9401 82.7335 17.7822 83.885 16.3533 83.885Z" fill="white"/>
<path d="M35.3357 83.885H28.1982C26.7693 83.885 25.6113 82.7335 25.6113 81.3126V74.316C25.6113 72.8952 26.7693 71.7437 28.1982 71.7437H35.3425C36.7713 71.7437 37.9293 72.8952 37.9293 74.316V81.3126C37.9293 82.7335 36.7713 83.885 35.3357 83.885Z" fill="white"/>
<path d="M53.8698 83.885H46.7255C45.2967 83.885 44.1387 82.7335 44.1387 81.3126V74.316C44.1387 72.8952 45.2967 71.7437 46.7255 71.7437H53.8698C55.2987 71.7437 56.4567 72.8952 56.4567 74.316V81.3126C56.4567 82.7335 55.2987 83.885 53.8698 83.885Z" fill="white"/>
<path d="M66.8114 75.1038L68.8836 70.8547C68.9581 70.6998 69.1748 70.6998 69.2493 70.8547L71.3824 75.0769C71.4095 75.1375 71.4705 75.1779 71.5382 75.1846L76.2446 75.8311C76.4139 75.8513 76.4816 76.06 76.3597 76.1745L72.9806 79.4944C72.9332 79.5415 72.9129 79.6088 72.9264 79.6762L73.7661 84.3226C73.7932 84.491 73.6239 84.6189 73.4682 84.5381L69.2493 82.3698C69.1884 82.3361 69.1206 82.3428 69.0597 82.3698L64.8747 84.5987C64.7257 84.6795 64.5496 84.5516 64.5767 84.39L65.3487 79.7301C65.3623 79.6627 65.3352 79.5954 65.2878 79.5482L61.8612 76.2755C61.7393 76.1611 61.807 75.9523 61.9696 75.9254L66.6624 75.2116C66.7234 75.2048 66.7843 75.1644 66.8114 75.1038Z" fill="#05DAD3"/>
</svg>
