<svg width="93" height="123" viewBox="0 0 93 123" fill="none" xmlns="https://www.w3.org/2000/svg">
<path d="M82.0764 123H10.9256C4.89067 123 0 118.141 0 112.148V10.8538C0 4.85851 4.89067 0 10.9256 0L65.9222 0.370153L80.301 14.8405L93 27.0859V112.148C93 118.141 88.1093 123 82.0764 123Z" fill="#E7E7E7"/>
<path d="M67.417 9.27588L83.1029 25.417L73.3033 25.6536C70.2594 25.7264 67.7346 23.3336 67.6654 20.3097L67.417 9.27588Z" fill="#C4C4C4"/>
<path d="M49.9979 30.9818H17.6039C16.7508 30.9818 16.0605 29.8612 16.0605 28.4777C16.0605 27.0942 16.7508 25.9736 17.6039 25.9736H49.9979C50.851 25.9736 51.5413 27.0942 51.5413 28.4777C51.5413 29.8612 50.851 30.9818 49.9979 30.9818Z" fill="#C4C4C4"/>
<path d="M75.7438 46.5664H17.2554C16.388 46.5664 15.6855 45.3629 15.6855 43.8762C15.6855 42.3916 16.388 41.186 17.2554 41.186H75.7438C76.6112 41.186 77.3136 42.3895 77.3136 43.8762C77.3136 45.3609 76.6112 46.5664 75.7438 46.5664Z" fill="#C4C4C4"/>
<path d="M75.5811 61.9633H17.4205C16.5653 61.9633 15.873 60.8003 15.873 59.3662C15.873 57.9321 16.5653 56.769 17.4205 56.769H75.5811C76.4362 56.769 77.1285 57.9321 77.1285 59.3662C77.1264 60.8003 76.4342 61.9633 75.5811 61.9633Z" fill="#C4C4C4"/>
<path d="M75.9658 77.5479H37.9522C37.1052 77.5479 36.417 76.3019 36.417 74.7647C36.417 73.2274 37.1052 71.9814 37.9522 71.9814H75.9658C76.8128 71.9814 77.501 73.2274 77.501 74.7647C77.501 76.3019 76.8128 77.5479 75.9658 77.5479Z" fill="#C4C4C4"/>
<path d="M17.3741 106.786C16.58 106.786 15.8267 106.323 15.4968 105.55C15.0591 104.52 15.5457 103.335 16.58 102.9C17.8098 102.384 18.9011 101.687 19.8601 100.861C19.398 100.05 18.9989 99.1603 18.6711 98.2016C17.3354 94.2816 16.2054 88.9518 18.4003 85.8105C19.966 83.5694 22.841 82.6187 25.722 83.3914C28.2916 84.0791 29.9998 86.6135 29.6964 89.2875C29.2729 93.0235 28.09 96.5531 26.2738 99.492C25.9378 100.036 25.5795 100.56 25.2028 101.058C25.832 101.571 26.5466 101.933 27.3387 102.051C28.7619 102.263 30.4661 101.626 31.8913 100.35C32.7078 99.6195 33.1456 98.7032 33.6994 97.5462C33.8195 97.2974 33.9396 97.0446 34.0659 96.7917C34.5321 95.8532 35.542 95.3435 36.5804 95.5235C37.6209 95.7056 38.4007 96.5288 38.5188 97.5725C38.6776 98.9803 40.0866 100.659 41.6605 101.321C43.3443 102.026 45.6634 101.537 47.5712 100.073C49.5482 98.5535 50.9898 96.2739 52.3825 94.0692C52.9811 93.1226 54.2373 92.8374 55.1902 93.432C56.1431 94.0267 56.4302 95.2747 55.8316 96.2213C54.3228 98.6101 52.6125 101.317 50.0613 103.276C46.9644 105.655 43.1387 106.335 40.0764 105.05C38.4434 104.367 37.0121 103.187 36.0002 101.784C35.6235 102.326 35.1735 102.86 34.6156 103.359C32.2599 105.467 29.387 106.45 26.734 106.056C25.158 105.821 23.688 105.113 22.4114 104.017C21.1164 105.111 19.6911 105.991 18.162 106.632C17.9075 106.735 17.6388 106.786 17.3741 106.786ZM23.7613 87.1758C23.0201 87.1758 22.2342 87.4186 21.7476 88.1144C20.8578 89.3867 21.1734 92.9183 22.5294 96.903C22.5926 97.087 22.6618 97.2731 22.7351 97.4592C24.4149 94.769 25.3352 91.6238 25.6508 88.8324C25.7302 88.1285 25.3046 87.4671 24.6612 87.2952C24.3904 87.2224 24.0809 87.1758 23.7613 87.1758Z" fill="#C4C4C4"/>
</svg>
