<svg width="104" height="82" viewBox="0 0 104 82" fill="none" xmlns="http://www.w3.org/2000/svg">
<g clip-path="url(#clip0_384114_1453)">
<path d="M82.2084 81.1888H10.469C4.68755 81.1888 0.207934 78.9074 0.207934 73.0672L0 9.41037C0 4.21228 4.14964 0 9.26661 0H40.2442C43.9599 0 47.3886 2.03492 49.2125 5.32244L53.7667 13.5322L82.604 13.2993C87.8995 13.2564 92.2141 17.6021 92.2141 22.9788V71.0797C92.2141 76.6622 87.7345 81.1888 82.2084 81.1888Z" fill="#C4C4C4"/>
<path d="M85.5194 81.1886H7.36792C2.51537 81.1886 -0.987858 76.5422 0.34337 71.8732L11.7164 32.0498C12.6115 28.9138 15.4796 26.75 18.741 26.75H96.0856C100.882 26.75 104.376 31.2947 103.146 35.932L92.5778 75.7554C91.7303 78.9592 88.8328 81.1886 85.5194 81.1886Z" fill="#E7E7E7"/>
</g>
<defs>
<clipPath id="clip0_384114_1453">
<rect width="103.397" height="81.1888" fill="white"/>
</clipPath>
</defs>
</svg>
