<svg width="152" height="187" viewBox="0 0 152 187" fill="none" xmlns="https://www.w3.org/2000/svg">
<path d="M146.207 174.731H134.162V28.0361C134.162 24.1871 131.029 21.0626 127.169 21.0626H82.399V6.52709C82.399 2.92393 79.4671 0 75.854 0H35.0989C31.4858 0 28.5539 2.92393 28.5539 6.52709V21.0626H24.5387C20.6792 21.0626 17.5462 24.1871 17.5462 28.0361V174.737H5.799C2.59463 174.737 0 177.325 0 180.52C0 183.716 2.59463 186.303 5.799 186.303H17.5462V186.601H134.155V186.303H146.201C149.405 186.303 152 183.716 152 180.52C152.006 177.325 149.412 174.731 146.207 174.731Z" fill="#4247D2"/>
<path d="M102.852 136.816H48.8576C45.3678 136.816 42.5332 139.637 42.5332 143.124C42.5332 146.61 45.3614 149.431 48.8576 149.431H51.4587V186.607H63.8027V149.431H87.7511V186.607H100.095V149.431H102.845C106.335 149.431 109.17 146.61 109.17 143.124C109.17 139.637 106.342 136.816 102.852 136.816Z" fill="#B3B5ED"/>
<path d="M61.129 56.8094H54.1364C50.7699 56.8094 48.0391 54.086 48.0391 50.7287C48.0391 47.3713 50.7699 44.6479 54.1364 44.6479H61.129C64.4955 44.6479 67.2264 47.3713 67.2264 50.7287C67.2264 54.086 64.4955 56.8094 61.129 56.8094Z" fill="white"/>
<path d="M61.2784 79.3607H54.2859C50.9193 79.3607 48.1885 76.6373 48.1885 73.28C48.1885 69.9226 50.9193 67.1992 54.2859 67.1992H61.2784C64.6449 67.1992 67.3758 69.9226 67.3758 73.28C67.3758 76.6373 64.6449 79.3607 61.2784 79.3607Z" fill="white"/>
<path d="M61.4288 101.905H54.4363C51.0697 101.905 48.3389 99.1813 48.3389 95.8239C48.3389 92.4666 51.0697 89.7432 54.4363 89.7432H61.4288C64.7953 89.7432 67.5262 92.4666 67.5262 95.8239C67.5262 99.1813 64.7953 101.905 61.4288 101.905Z" fill="white"/>
<path d="M61.5772 124.449H54.5847C51.2182 124.449 48.4873 121.725 48.4873 118.368C48.4873 115.011 51.2182 112.287 54.5847 112.287H61.5772C64.9438 112.287 67.6746 115.011 67.6746 118.368C67.6746 121.725 64.9438 124.449 61.5772 124.449Z" fill="white"/>
<path d="M96.9737 124.449H89.9812C86.6146 124.449 83.8838 121.725 83.8838 118.368C83.8838 115.011 86.6146 112.287 89.9812 112.287H96.9737C100.34 112.287 103.071 115.011 103.071 118.368C103.071 121.725 100.347 124.449 96.9737 124.449Z" fill="white"/>
<path d="M97.1231 102.053H90.1306C86.764 102.053 84.0332 99.3297 84.0332 95.9723C84.0332 92.615 86.764 89.8916 90.1306 89.8916H97.1231C100.49 89.8916 103.221 92.615 103.221 95.9723C103.221 99.3297 100.49 102.053 97.1231 102.053Z" fill="white"/>
<path d="M97.2725 79.6512H90.28C86.9135 79.6512 84.1826 76.9278 84.1826 73.5705C84.1826 70.2131 86.9135 67.4897 90.28 67.4897H97.2725C100.639 67.4897 103.37 70.2131 103.37 73.5705C103.37 76.9278 100.639 79.6512 97.2725 79.6512Z" fill="white"/>
<path d="M97.4219 57.2557H90.4294C87.0629 57.2557 84.332 54.5323 84.332 51.175C84.332 47.8176 87.0629 45.0942 90.4294 45.0942H97.4219C100.788 45.0942 103.519 47.8176 103.519 51.175C103.519 54.5323 100.788 57.2557 97.4219 57.2557Z" fill="white"/>
</svg>
