<svg width="174" height="208" viewBox="0 0 174 208" fill="none" xmlns="http://www.w3.org/2000/svg">
<path d="M87.001 68.7989C105.993 68.7989 121.4 53.3912 121.4 34.3994C121.4 15.3901 105.993 0 87.001 0C68.0093 0 52.6016 15.3901 52.6016 34.3994C52.6016 53.3912 68.0093 68.7989 87.001 68.7989Z" fill="#474FD5"/>
<path d="M112.264 73.4546C104.973 78.1806 96.2937 80.9388 86.9999 80.9388C77.6885 80.9388 69.0096 78.1806 61.7186 73.4546C53.6722 76.5291 46.2055 81.0618 39.7051 86.8946L86.9823 104.621L134.26 86.8946C127.794 81.0618 120.328 76.5291 112.264 73.4546Z" fill="#474FD5"/>
<path d="M159.84 125.44H155.799C152.444 125.44 149.738 128.163 149.738 131.519V147.699C149.738 151.055 152.461 153.761 155.799 153.761H159.84C167.658 153.761 174.001 147.418 174.001 139.6C174.001 131.782 167.658 125.44 159.84 125.44Z" fill="#474FD5"/>
<path d="M18.7994 94.8004C17.1655 95.9424 16.1816 97.8047 16.1816 99.7899V113.3H18.202C28.2337 113.3 36.4032 121.47 36.4032 131.501V147.682C36.4032 157.731 28.2337 165.883 18.202 165.883H16.1816V178.673C16.1816 181.203 17.7453 183.469 20.117 184.365L80.9221 207.17V115.303L24.3862 94.0977C22.5239 93.4125 20.4333 93.6585 18.7994 94.8004Z" fill="#B3B5ED"/>
<path d="M137.58 147.7V131.519C137.58 121.47 145.749 113.318 155.781 113.318H157.801V99.7899C157.801 97.8047 156.817 95.9424 155.183 94.8004C153.549 93.6585 151.459 93.4125 149.596 94.0977L93.0605 115.303V207.17L153.866 184.365C156.237 183.469 157.801 181.221 157.801 178.673V165.883H155.781C145.749 165.901 137.58 157.731 137.58 147.7Z" fill="#B3B5ED"/>
<path d="M24.2799 147.699V131.519C24.2799 128.163 21.5567 125.44 18.2187 125.44H14.1779C6.34229 125.44 0 131.782 0 139.6C0 147.418 6.34229 153.761 14.1603 153.761H18.2011C21.5567 153.761 24.2799 151.055 24.2799 147.699Z" fill="#474FD5"/>
</svg>
