<svg width="21" height="30" viewBox="0 0 21 30" fill="none" xmlns="https://www.w3.org/2000/svg">
<g opacity="0.15">
<path opacity="0.15" d="M14.2054 10.4864C12.839 10.9605 11.4032 12.2965 10.1568 13.3034C8.87874 14.3339 7.70485 15.4113 6.57514 16.7551C5.75153 17.7346 6.6351 19.1333 7.46187 18.769C8.73989 18.2048 9.98005 17.4917 11.2486 16.8648C12.4982 16.2458 13.8962 15.9128 15.089 15.0783C17.2821 13.5385 16.5216 9.67934 14.2054 10.4864Z" fill="black"/>
</g>
<path d="M12.6273 8.52769C11.2609 9.00176 9.8251 10.3378 8.57864 11.3447C7.30061 12.3751 6.12673 13.4526 4.99702 14.7964C4.17341 15.7759 5.05698 17.1746 5.88375 16.8102C7.16177 16.2461 8.40192 15.533 9.67048 14.9061C10.9201 14.2871 12.318 13.9541 13.5109 13.1195C15.704 11.5798 14.9435 7.72059 12.6273 8.52769Z" fill="#FFCA52"/>
<g opacity="0.15">
<path opacity="0.15" d="M19.0427 24.1405C17.9698 23.3412 16.6256 22.9416 15.4359 22.4401C14.2778 21.9504 13.044 21.6487 11.7912 21.6134C10.3869 21.5782 9.57279 23.9955 10.8003 24.9476C11.7943 25.7234 12.842 26.4012 13.8644 27.1142C14.9152 27.8469 15.7735 28.8695 16.796 29.657C19.1059 31.424 21.3684 25.8762 19.0427 24.1405Z" fill="black"/>
</g>
<path d="M17.4647 22.1815C16.3918 21.3822 15.0475 20.9826 13.8578 20.4811C12.6997 19.9914 11.4658 19.6897 10.2131 19.6544C8.80881 19.6192 7.99467 22.0365 9.2222 22.9886C10.2162 23.7644 11.2639 24.4422 12.2863 25.1552C13.3371 25.8879 14.1954 26.9105 15.2179 27.698C17.5278 29.465 19.7903 23.9172 17.4647 22.1815Z" fill="#FFCA52"/>
<g opacity="0.15">
<path opacity="0.15" d="M6.17169 7.4578C6.18116 5.45181 5.81511 3.01093 4.46767 2.15682C3.28116 1.40457 1.50771 2.90515 1.58028 4.88371C1.68757 7.81434 4.00695 9.58917 4.12055 12.5825C4.14895 13.3465 4.84634 13.2799 5.05145 12.5903C5.58475 10.792 6.16223 9.3776 6.17169 7.4578Z" fill="black"/>
</g>
<path d="M4.59357 5.49889C4.60304 3.4929 4.23699 1.05202 2.88954 0.197902C1.70303 -0.554344 -0.07042 0.942312 0.002159 2.9248C0.10945 5.85542 2.42882 7.63025 2.54242 10.6236C2.57082 11.3876 3.26821 11.321 3.47333 10.6314C4.00663 8.83306 4.5841 7.41868 4.59357 5.49889Z" fill="#FFCA52"/>
</svg>
