<svg width="1440" height="396" viewBox="0 0 1440 396" fill="none" xmlns="https://www.w3.org/2000/svg">
<rect width="1440" height="396" fill="#4B4FD0"/>
<path opacity="0.31" d="M133.15 294.3C142.069 294.3 149.3 287.069 149.3 278.15C149.3 269.231 142.069 262 133.15 262C124.231 262 117 269.231 117 278.15C117 287.069 124.231 294.3 133.15 294.3Z" stroke="white" stroke-width="3" stroke-miterlimit="10"/>
<path opacity="0.31" d="M1340.15 62.3C1349.07 62.3 1356.3 55.0694 1356.3 46.15C1356.3 37.2306 1349.07 30 1340.15 30C1331.23 30 1324 37.2306 1324 46.15C1324 55.0694 1331.23 62.3 1340.15 62.3Z" stroke="white" stroke-width="3" stroke-miterlimit="10"/>
<path opacity="0.31" d="M1314 273.17L1333.33 262V284.33L1314 273.17Z" stroke="white" stroke-width="3" stroke-miterlimit="10"/>
<path opacity="0.31" d="M447 76.1699L466.33 65V87.33L447 76.1699Z" stroke="white" stroke-width="3" stroke-miterlimit="10"/>
<path opacity="0.31" d="M1060 87.1699L1079.33 76V98.33L1060 87.1699Z" stroke="white" stroke-width="3" stroke-miterlimit="10"/>
<path opacity="0.31" d="M760.15 262.3C769.069 262.3 776.3 255.069 776.3 246.15C776.3 237.231 769.069 230 760.15 230C751.231 230 744 237.231 744 246.15C744 255.069 751.231 262.3 760.15 262.3Z" stroke="white" stroke-width="3" stroke-miterlimit="10"/>
<path d="M56 39.4776C56.2438 36.0647 58.6328 29.2388 66.2388 29.2388C73.8448 29.2388 75.7463 22.4129 75.7463 19" stroke="white" stroke-opacity="0.48" stroke-linejoin="round"/>
<path d="M60.7539 44.597C60.9977 41.1841 63.3867 34.3582 70.9927 34.3582C78.5987 34.3582 80.5002 27.5323 80.5002 24.1194" stroke="white" stroke-opacity="0.48" stroke-linejoin="round"/>
<path d="M781 59.4776C781.244 56.0647 783.633 49.2388 791.239 49.2388C798.845 49.2388 800.746 42.4129 800.746 39" stroke="white" stroke-opacity="0.48" stroke-linejoin="round"/>
<path d="M785.754 64.597C785.998 61.1841 788.387 54.3582 795.993 54.3582C803.599 54.3582 805.5 47.5323 805.5 44.1194" stroke="white" stroke-opacity="0.48" stroke-linejoin="round"/>
<path d="M781 59.4776C781.244 56.0647 783.633 49.2388 791.239 49.2388C798.845 49.2388 800.746 42.4129 800.746 39" stroke="white" stroke-opacity="0.48" stroke-linejoin="round"/>
<path d="M785.754 64.597C785.998 61.1841 788.387 54.3582 795.993 54.3582C803.599 54.3582 805.5 47.5323 805.5 44.1194" stroke="white" stroke-opacity="0.48" stroke-linejoin="round"/>
<path d="M448 336.478C448.244 333.065 450.633 326.239 458.239 326.239C465.845 326.239 467.746 319.413 467.746 316" stroke="white" stroke-opacity="0.48" stroke-linejoin="round"/>
<path d="M452.754 341.597C452.998 338.184 455.387 331.358 462.993 331.358C470.599 331.358 472.5 324.532 472.5 321.119" stroke="white" stroke-opacity="0.48" stroke-linejoin="round"/>
<path d="M1027.24 298.577L1057.3 316.155" stroke="white" stroke-opacity="0.46" stroke-width="2" stroke-linejoin="round"/>
</svg>
