<svg width="20" height="21" viewBox="0 0 20 21" fill="none" xmlns="http://www.w3.org/2000/svg">
<path d="M10.0108 0L9.99106 0.0189189L9.97136 0V0.0567568L0.119141 9.34595H19.863L10.0108 0.0567568V0Z" fill="#EFEFEF"/>
<path d="M17.8128 4.93799H2.22656V15.4002H17.8128V4.93799Z" fill="#DEDFFF"/>
<path d="M15.1131 7.85156H4.90625V8.47589H15.1131V7.85156Z" fill="#4247D2"/>
<path d="M15.1131 10.1597H4.90625V10.784H15.1131V10.1597Z" fill="#4247D2"/>
<path d="M2.06897 21L10.1281 15.4L0.137931 9.45947C0.0394089 9.61082 0 9.78109 0 9.97028V19.4865C0 20.3189 0.70936 21 1.57635 21H2.06897Z" fill="white"/>
<path d="M18.4228 21C19.2898 21 19.9992 20.3189 19.9992 19.4865V9.97028C19.9992 9.78109 19.9401 9.61082 19.8612 9.45947L9.87109 15.4L17.9302 21H18.4228Z" fill="white"/>
<path d="M3.52734 21.0001H16.4929L10.0298 16.4028L3.52734 21.0001Z" fill="white"/>
</svg>
