<svg width="20" height="20" viewBox="0 0 20 20" fill="none" xmlns="https://www.w3.org/2000/svg">
<path fill-rule="evenodd" clip-rule="evenodd" d="M17.0083 2.9057C15.1359 1.03328 12.6467 0 9.99459 0C4.53076 0 0.0845408 4.44622 0.0814097 9.91005C0.0814097 11.6572 0.538556 13.3637 1.40588 14.8635L0 19.9986L5.25405 18.6209C6.70063 19.4099 8.33196 19.8264 9.99146 19.8264H9.99459C15.4584 19.8264 19.9046 15.3801 19.9078 9.91631C19.9109 7.26737 18.8808 4.77812 17.0083 2.9057ZM9.99459 18.1543H9.99146C8.51356 18.1543 7.06385 17.7567 5.79887 17.0052L5.49828 16.8267L2.37966 17.644L3.21255 14.6036L3.01529 14.2936C2.1918 12.9817 1.75344 11.4662 1.75657 9.91005C1.7597 5.3699 5.45444 1.67516 10.0009 1.67516C12.202 1.67516 14.2717 2.53309 15.8279 4.08926C17.3841 5.64544 18.2389 7.71512 18.2389 9.91631C18.2326 14.4596 14.5379 18.1543 9.99459 18.1543Z" fill="white"/>
<path fill-rule="evenodd" clip-rule="evenodd" d="M14.5152 11.9865C14.2679 11.8612 13.0498 11.2632 12.8244 11.1818C12.5958 11.1004 12.433 11.0597 12.2671 11.307C12.1011 11.5544 11.6283 12.1117 11.4811 12.2777C11.3371 12.4436 11.1931 12.4624 10.9457 12.3403C10.6984 12.215 9.89992 11.9552 8.95432 11.1129C8.2185 10.4553 7.72065 9.64438 7.57661 9.39702C7.43258 9.14966 7.56096 9.01502 7.6862 8.89291C7.79893 8.78332 7.93356 8.60485 8.05881 8.45768C8.18092 8.31365 8.22476 8.21032 8.30617 8.04437C8.38758 7.87842 8.34687 7.73439 8.28425 7.60914C8.22163 7.48703 7.72691 6.26589 7.52025 5.77117C7.31986 5.28897 7.11634 5.35472 6.96291 5.34533C6.81888 5.33907 6.65293 5.33594 6.48698 5.33594C6.32103 5.33594 6.05488 5.39856 5.82631 5.64592C5.60087 5.89328 4.95898 6.49446 4.95898 7.71247C4.95898 8.93048 5.8451 10.1078 5.97034 10.2737C6.09246 10.4397 7.71752 12.9415 10.2005 14.0123C10.7923 14.2691 11.2526 14.4194 11.6127 14.5352C12.2044 14.7231 12.7461 14.698 13.172 14.6323C13.6479 14.5603 14.6373 14.0342 14.844 13.455C15.0506 12.8757 15.0506 12.381 14.988 12.2777C14.9285 12.1712 14.7626 12.1086 14.5152 11.9865Z" fill="white"/>
</svg>
