<svg width="15" height="9" viewBox="0 0 15 9" fill="none" xmlns="http://www.w3.org/2000/svg">
<g clip-path="url(#clip0_383942_1371)">
<path d="M14.9721 4.32335C14.1792 1.84547 11.1347 0 7.49987 0C3.86505 0 0.820579 1.84547 0.0275971 4.32335C-0.00919902 4.43809 -0.00919902 4.56244 0.0275971 4.67718C0.820579 7.15506 3.86505 9.00053 7.49987 9.00053C11.1347 9.00053 14.1792 7.15506 14.9721 4.67718C15.0089 4.56191 15.0089 4.43809 14.9721 4.32335ZM7.49987 7.09422C6.06802 7.09422 4.90761 5.93293 4.90761 4.5C4.90761 3.06707 6.06802 1.90578 7.49987 1.90578C8.93171 1.90578 10.0921 3.06707 10.0921 4.5C10.0921 5.93293 8.93171 7.09422 7.49987 7.09422Z" fill="#232323"/>
<path d="M7.50065 6.16398C8.41896 6.16398 9.16341 5.41897 9.16341 4.49996C9.16341 3.58094 8.41896 2.83594 7.50065 2.83594C6.58233 2.83594 5.83789 3.58094 5.83789 4.49996C5.83789 5.41897 6.58233 6.16398 7.50065 6.16398Z" fill="#232323"/>
</g>
<defs>
<clipPath id="clip0_383942_1371">
<rect width="15" height="9" fill="white"/>
</clipPath>
</defs>
</svg>
