<svg width="84" height="89" viewBox="0 0 84 89" fill="none" xmlns="https://www.w3.org/2000/svg">
<path d="M30.223 49.1015C30.223 47.987 29.3554 47.0823 28.2819 47.0823H21.5056C20.4342 47.0823 19.5645 47.9848 19.5645 49.1015V56.1482C19.5645 57.2649 20.4342 58.1674 21.5056 58.1674H28.2819C29.3554 58.1674 30.223 57.2649 30.223 56.1482V49.1015Z" fill="#4B4FD0"/>
<path d="M47.1602 49.1015C47.1602 47.987 46.2904 47.0823 45.2191 47.0823H38.4406C37.3693 47.0823 36.4995 47.9848 36.4995 49.1015V56.1482C36.4995 57.2649 37.3693 58.1674 38.4406 58.1674H45.2191C46.2904 58.1674 47.1602 57.2649 47.1602 56.1482V49.1015Z" fill="#4B4FD0"/>
<path d="M64.0975 49.1015C64.0975 47.987 63.2277 47.0823 62.1564 47.0823H55.3801C54.3087 47.0823 53.439 47.9848 53.439 49.1015V56.1482C53.439 57.2649 54.3087 58.1674 55.3801 58.1674H62.1564C63.2277 58.1674 64.0975 57.2649 64.0975 56.1482V49.1015Z" fill="#4B4FD0"/>
<path d="M30.223 66.7201C30.223 65.6034 29.3554 64.7009 28.2819 64.7009H21.5056C20.4342 64.7009 19.5645 65.6034 19.5645 66.7201V73.7668C19.5645 74.8813 20.4342 75.786 21.5056 75.786H28.2819C29.3554 75.786 30.223 74.8836 30.223 73.7668V66.7201Z" fill="#4B4FD0"/>
<path d="M47.1602 66.7201C47.1602 65.6034 46.2904 64.7009 45.2191 64.7009H38.4406C37.3693 64.7009 36.4995 65.6034 36.4995 66.7201V73.7668C36.4995 74.8813 37.3693 75.786 38.4406 75.786H45.2191C46.2904 75.786 47.1602 74.8836 47.1602 73.7668V66.7201Z" fill="#4B4FD0"/>
<path d="M64.0982 66.7201C64.0982 65.6034 63.2284 64.7009 62.1571 64.7009H55.3786C54.3073 64.7009 53.4375 65.6034 53.4375 66.7201V73.7668C53.4375 74.8813 54.3073 75.7861 55.3786 75.7861H62.1571C63.2284 75.7861 64.0982 74.8836 64.0982 73.7668V66.7201Z" fill="#4B4FD0"/>
<path d="M76.2155 9.9091V20.6752C76.2155 25.5409 72.4209 29.463 67.7434 29.463H62.3999C57.7225 29.463 53.8775 25.5409 53.8775 20.6752V9.87036H29.7869V20.6752C29.7869 25.5409 25.9419 29.463 21.2644 29.463H15.9188C11.2413 29.463 7.44672 25.5409 7.44672 20.6752V9.9091C3.35858 10.039 0 13.5578 0 17.8811V80.9756C0 85.3832 3.43307 89 7.66799 89H75.992C80.2204 89 83.66 85.3741 83.66 80.9756V17.8811C83.66 13.5578 80.3014 10.039 76.2155 9.9091ZM73.731 77.0465C73.731 78.9495 72.2478 80.4947 70.4163 80.4947H13.0969C11.2676 80.4947 9.78217 78.9495 9.78217 77.0465V44.4567C9.78217 42.5514 11.2654 41.0062 13.0969 41.0062H70.4163C72.2478 41.0062 73.731 42.5514 73.731 44.4567V77.0465Z" fill="#4B4FD0"/>
<path d="M15.8987 23.6926H21.1852C22.789 23.6926 24.0903 22.3412 24.0903 20.6729V3.02197C24.0903 1.35145 22.7911 0 21.1852 0H15.8987C14.295 0 12.9937 1.35145 12.9937 3.02197V20.6706C12.9937 22.3412 14.295 23.6926 15.8987 23.6926Z" fill="#4B4FD0"/>
<path d="M62.3299 23.6926H67.6164C69.2201 23.6926 70.5215 22.3412 70.5215 20.6729V3.02197C70.5215 1.35373 69.2201 0 67.6164 0H62.3299C60.7262 0 59.4248 1.35145 59.4248 3.02197V20.6706C59.4248 22.3412 60.7262 23.6926 62.3299 23.6926Z" fill="#4B4FD0"/>
</svg>
