<svg width="80" height="89" viewBox="0 0 80 89" fill="none" xmlns="http://www.w3.org/2000/svg">
<path d="M68.2968 26.482L73.9795 21.1559L68.3883 15.9133L62.3101 21.6123C56.7559 17.9219 50.2748 15.6492 43.5021 15.0144V7.41338H51.4119V0H27.6825V7.41338H35.5923V15.0121C28.8195 15.6469 22.3384 17.9195 16.7842 21.61L10.7061 15.911L5.11481 21.1536L10.7975 26.4797C-0.0438619 37.2384 -3.01993 53.0126 3.23129 66.6046C9.48251 80.1943 23.7597 89 39.5496 89C55.3396 89 69.6168 80.1966 75.868 66.6046C82.1143 53.015 79.1407 37.2407 68.2968 26.482ZM39.5447 81.5472C26.7481 81.5472 15.2097 74.3215 10.313 63.2408C5.41637 52.1601 8.12301 39.4045 17.1723 30.9254C26.2216 22.444 39.829 19.9073 51.6516 24.4966C63.4768 29.0883 71.1839 39.9002 71.1839 51.8937C71.1666 68.2634 57.0105 81.5287 39.5447 81.5472Z" fill="#4B4FD0"/>
<path d="M39.5448 29.645V51.8854H15.8154C15.8154 60.8812 21.597 68.9896 30.4634 72.4323C39.3323 75.8749 49.5359 73.9729 56.3235 67.6112C63.1111 61.2495 65.1405 51.6838 61.4674 43.3738C57.7967 35.0638 49.1429 29.645 39.5448 29.645Z" fill="#4B4FD0"/>
</svg>
