<svg width="20" height="19" viewBox="0 0 20 19" fill="none" xmlns="http://www.w3.org/2000/svg">
<path d="M4.55009 1.29512C3.90556 1.64766 1.94071 3.80371 1.37821 4.77598C1.2454 5.00234 1.2415 5.02461 1.26493 5.26211C1.35087 6.05625 1.72196 7.19551 2.23368 8.23828C2.80009 9.38496 3.75712 10.758 4.84306 11.9863C5.39774 12.6135 6.69853 13.8492 7.34306 14.3688C9.67899 16.2391 12.0345 17.4117 14.1556 17.7568C14.347 17.7865 14.554 17.8125 14.6204 17.8125C14.8431 17.8125 15.4602 17.434 16.3938 16.7289C17.597 15.816 18.5462 14.9254 18.7063 14.5543C18.8391 14.2537 18.5813 13.9754 17.6477 13.3854C16.2923 12.5355 15.0306 11.8602 14.4329 11.6709C14.1556 11.5818 14.1321 11.5781 13.9954 11.6338C13.804 11.708 13.6829 11.823 13.1438 12.4131C12.9016 12.6766 12.6243 12.966 12.5306 13.0551L12.3548 13.2146L12.1048 13.1553C11.2923 12.9549 10.1907 12.4094 9.27665 11.7525C8.87431 11.4594 8.19462 10.8359 7.81962 10.4092C7.10868 9.60391 6.43681 8.44609 6.16728 7.55918L6.08134 7.26973L6.29228 7.06563C6.40946 6.95059 6.69853 6.70195 6.9329 6.5127C7.47978 6.07481 7.67509 5.87813 7.74931 5.70742C7.8079 5.58125 7.80399 5.55156 7.72978 5.32891C7.51103 4.65352 5.91337 2.09668 5.33524 1.49551C5.01493 1.16152 4.86649 1.1207 4.55009 1.29512Z" fill="white"/>
<path d="M10.625 1.78125V2.375H10.8125C11.625 2.375 12.7031 2.62734 13.543 3.00586C14.9766 3.65527 16.0586 4.66094 16.7578 5.99316C17.1953 6.82812 17.3828 7.45527 17.4688 8.39414L17.5156 8.90625H18.1328H18.75V8.74297C18.75 8.45723 18.6758 7.82637 18.5898 7.40332C18.3594 6.25664 17.7148 4.94668 16.9492 4.06719C15.5469 2.45664 13.6719 1.48066 11.5312 1.24316C11.2578 1.21348 10.9414 1.1875 10.832 1.1875H10.625V1.78125Z" fill="white"/>
<path d="M10.625 4.73887V5.33262L10.9336 5.35859C11.8438 5.4291 12.6367 5.78906 13.3008 6.43477C13.9336 7.04707 14.2852 7.77441 14.3594 8.6168L14.3867 8.90625H15.0039H15.625V8.7541C15.625 8.24199 15.3867 7.33281 15.1133 6.8207C14.6367 5.91895 13.793 5.10625 12.8711 4.66836C12.2891 4.39004 11.6406 4.21934 10.9805 4.17109L10.625 4.14512V4.73887Z" fill="white"/>
</svg>
