<svg width="83" height="108" viewBox="0 0 83 108" fill="none" xmlns="http://www.w3.org/2000/svg">
<path d="M27.0084 31.4785C28.1638 33.9547 35.6288 35.203 39.2924 35.0401C42.9571 34.8771 50.4378 32.9101 50.1451 29.1391C49.6345 22.1309 53.1807 12.7891 53.8788 11.4987C55.2919 8.83331 55.4105 3.32077 49.3949 5.96429C47.9987 6.56225 44.6752 10.7159 43.262 5.80134C40.7406 -3.03269 34.8606 -0.572487 33.5696 5.18738C32.667 9.18394 29.0858 9.48946 24.9976 9.01663C20.2076 8.48705 19.593 12.0908 21.1804 15.1431C22.0309 16.7653 25.6606 28.6095 27.0084 31.4785Z" fill="#4B4FD0"/>
<path d="M39.5524 41.1093C29.8551 41.5398 27.0409 37.2602 26.4832 37.5061C12.1182 43.5065 0 61.1282 0 78.9914C0 101.957 10.9059 108 41.2365 108C71.5538 108 82.4597 101.796 82.4597 78.9914C82.4597 59.7739 67.7028 41.3973 52.5175 36.2158C51.7178 35.9278 50.2877 40.6423 39.5524 41.1093ZM41.5934 86.9222V91.6105C41.5934 91.9625 41.3575 92.2447 41.0659 92.2447H37.5585C37.2657 92.2447 37.031 91.9611 37.031 91.6105V87.3091C34.5398 87.1258 32.0015 86.2443 30.4359 85.0544C30.2314 84.8915 30.1431 84.6034 30.2133 84.3416L31.3566 79.5267C31.3917 79.3216 31.509 79.1747 31.6615 79.0961C31.8321 79.0336 31.9845 79.0336 32.137 79.1543C33.2452 79.9355 35.5489 81.2883 38.4623 81.2883C40.8784 81.2883 42.4488 79.9776 42.4488 77.9688C42.4488 76.0443 41.2365 74.77 38.1525 73.4433C34.3704 71.7807 30.5012 69.3208 30.5012 63.751C30.5012 59.1193 33.0928 55.6165 37.302 54.5314V50.147C37.302 49.779 37.5415 49.491 37.8295 49.491H41.2886C41.5765 49.491 41.8161 49.779 41.8161 50.147V54.207C44.4597 54.4121 46.2309 55.2921 47.3561 55.9642C47.5739 56.1111 47.6961 56.4151 47.6259 56.725L46.4826 61.377C46.4342 61.5603 46.3301 61.7028 46.1777 61.7857C46.0422 61.8643 45.8728 61.8643 45.7373 61.7857C44.629 61.1093 42.8892 60.0649 40.2323 60.0649C38.0509 60.0649 36.7382 61.1719 36.7382 62.9916C36.7382 64.6121 37.9638 65.7191 41.5632 67.376C46.5709 69.6307 48.7003 72.6215 48.7003 77.4145C48.6991 82.1713 45.9248 85.8574 41.5934 86.9222Z" fill="#4B4FD0"/>
</svg>
