<svg width="21" height="21" viewBox="0 0 21 21" fill="none" xmlns="https://www.w3.org/2000/svg">
<path d="M10.2701 1.85363C13.013 1.85363 13.3386 1.86303 14.422 1.91313C15.424 1.95696 15.9688 2.12604 16.3289 2.26694C16.8079 2.45168 17.1492 2.67712 17.5093 3.03407C17.8694 3.39415 18.0917 3.73545 18.2764 4.21451C18.4173 4.57772 18.5833 5.11941 18.6303 6.12137C18.6804 7.20475 18.6898 7.53039 18.6898 10.2733C18.6898 13.0161 18.6804 13.3418 18.6303 14.4251C18.5833 15.4271 18.4173 15.9719 18.2764 16.332C18.0886 16.8111 17.8663 17.1524 17.5093 17.5125C17.1492 17.8725 16.8079 18.0948 16.3289 18.2796C15.9657 18.4205 15.424 18.5864 14.422 18.6334C13.3386 18.6835 13.013 18.6929 10.2701 18.6929C7.52725 18.6929 7.20162 18.6835 6.11825 18.6334C5.11628 18.5864 4.57146 18.4205 4.21137 18.2796C3.73231 18.0948 3.39102 17.8694 3.03094 17.5125C2.67086 17.1524 2.44855 16.8111 2.26068 16.332C2.11978 15.9688 1.95383 15.4271 1.90686 14.4251C1.85676 13.3418 1.84737 13.0161 1.84737 10.2733C1.84737 7.53039 1.85676 7.20475 1.90686 6.12137C1.95383 5.11941 2.11978 4.57459 2.26068 4.21451C2.44855 3.73545 2.67086 3.39102 3.03094 3.03407C3.39102 2.67399 3.73231 2.45168 4.21137 2.26694C4.57459 2.12604 5.11628 1.96009 6.11825 1.91313C7.20162 1.86303 7.52725 1.85363 10.2701 1.85363ZM10.2701 0C7.48028 0 7.1296 0.0125248 6.0337 0.062623C4.94093 0.112721 4.19259 0.284933 3.54132 0.541687C2.86499 0.804702 2.29199 1.15539 1.72213 1.72526C1.15226 2.29512 0.79844 2.86812 0.538556 3.54445C0.284934 4.19886 0.109584 4.94407 0.062617 6.03683C0.0125188 7.13273 0 7.48342 0 10.2733C0 13.0631 0.0125188 13.4138 0.062617 14.5097C0.112715 15.6025 0.284934 16.3508 0.538556 17.0021C0.801572 17.6784 1.15226 18.2514 1.72213 18.8213C2.29199 19.3911 2.86499 19.745 3.54132 20.0048C4.19572 20.2585 4.94093 20.4338 6.0337 20.4808C7.1296 20.5309 7.48028 20.5434 10.2701 20.5434C13.06 20.5434 13.4107 20.5309 14.5066 20.4808C15.5993 20.4307 16.3477 20.2585 16.9989 20.0048C17.6753 19.7418 18.2483 19.3911 18.8181 18.8213C19.388 18.2514 19.7418 17.6784 20.0017 17.0021C20.2553 16.3477 20.4307 15.6025 20.4776 14.5097C20.5277 13.4138 20.5403 13.0631 20.5403 10.2733C20.5403 7.48342 20.5277 7.13273 20.4776 6.03683C20.4275 4.94407 20.2553 4.19572 20.0017 3.54445C19.7387 2.86812 19.388 2.29512 18.8181 1.72526C18.2483 1.15539 17.6753 0.804702 16.9989 0.541687C16.3445 0.288065 15.5993 0.112721 14.5066 0.062623C13.4075 0.0125248 13.06 0 10.2701 0Z" fill="white"/>
<path d="M10.2701 4.99707C7.35815 4.99707 4.99414 7.35795 4.99414 10.273C4.99414 13.1881 7.35502 15.549 10.2701 15.549C13.1821 15.549 15.5461 13.1881 15.5461 10.273C15.5461 7.35795 13.1821 4.99707 10.2701 4.99707ZM10.2701 13.6985C8.3789 13.6985 6.84464 12.1642 6.84464 10.273C6.84464 8.38183 8.3789 6.84757 10.2701 6.84757C12.1613 6.84757 13.6924 8.38183 13.6924 10.273C13.6924 12.1642 12.1613 13.6985 10.2701 13.6985Z" fill="white"/>
<path d="M16.9869 4.79031C16.9869 5.46977 16.4358 6.02398 15.7532 6.02398C15.0737 6.02398 14.5195 5.4729 14.5195 4.79031C14.5195 4.11085 15.0706 3.55664 15.7532 3.55664C16.4327 3.55664 16.9869 4.11085 16.9869 4.79031Z" fill="white"/>
</svg>
