<svg width="164" height="100" viewBox="0 0 164 100" fill="none" xmlns="http://www.w3.org/2000/svg">
<g clip-path="url(#clip0_383942_1417)">
<path d="M143.189 89.8436H20.4549C17.0752 89.8436 14.3359 87.0997 14.3359 83.7142V6.12934C14.3359 2.74388 17.0752 0 20.4549 0H143.189C146.569 0 149.308 2.74388 149.308 6.12934V83.7142C149.314 87.0997 146.569 89.8436 143.189 89.8436Z" fill="#4247D2"/>
<path d="M142.321 7.00586H21.6797V82.6661H142.321V7.00586Z" fill="#B3B5ED"/>
<path d="M0 92.2954H66.6111V95.2741H98.4297V92.1235H163.994V93.9623C163.994 97.302 161.295 100.006 157.961 100.006H6.0332C2.69921 100 0 97.2962 0 93.9623V92.2954Z" fill="#4247D2"/>
<path d="M81.8234 5.47634C82.9825 5.47634 83.9221 4.53511 83.9221 3.37404C83.9221 2.21296 82.9825 1.27173 81.8234 1.27173C80.6643 1.27173 79.7246 2.21296 79.7246 3.37404C79.7246 4.53511 80.6643 5.47634 81.8234 5.47634Z" fill="#05DAD3"/>
<path d="M24.1267 96.9753H14.6851C14.3706 96.9753 14.1133 96.7175 14.1133 96.4024C14.1133 96.0874 14.3706 95.8296 14.6851 95.8296H24.1267C24.4412 95.8296 24.6985 96.0874 24.6985 96.4024C24.6985 96.7175 24.4412 96.9753 24.1267 96.9753Z" fill="#05DAD3"/>
</g>
<defs>
<clipPath id="clip0_383942_1417">
<rect width="164" height="100" fill="white"/>
</clipPath>
</defs>
</svg>
