<svg width="130" height="33" viewBox="0 0 130 33" fill="none" xmlns="http://www.w3.org/2000/svg">
<g clip-path="url(#clip0_383409:914)">
<path d="M76.5602 31.1003C73.9835 31.1003 72.368 29.9151 72.1273 27.8503C72.0285 27.0791 72.0844 26.2576 72.3068 25.1846C72.5423 24.0497 72.8232 23.2217 73.216 22.5008C74.3113 20.4734 76.3417 19.3102 78.7871 19.3102C81.2624 19.3102 82.8233 20.4786 83.0679 22.5137C83.1628 23.3197 83.1121 24.1026 82.8975 25.1343C82.7544 25.823 82.212 26.2692 81.5161 26.2692H75.5795C75.5405 26.2692 75.5223 26.2769 75.5118 26.326C75.4715 26.5207 75.4663 26.7077 75.4949 26.9334C75.5925 27.8078 76.2702 28.2875 77.4031 28.2875C78.2343 28.2875 79.046 27.9819 79.5806 27.7252C80.0176 27.4983 80.4534 27.3719 80.8059 27.3719C81.1545 27.3719 81.4523 27.5008 81.6435 27.733C81.8439 27.9767 81.9128 28.3146 81.8361 28.6835C81.732 29.1813 81.4094 29.6004 80.9021 29.8957C79.5402 30.7173 78.1602 31.1003 76.5602 31.1003ZM76.023 23.9349H79.6963C79.7354 23.9349 79.7536 23.9272 79.764 23.8782C79.8381 23.5235 79.8394 23.3043 79.8186 23.0837C79.7341 22.3718 79.1812 21.9617 78.3019 21.9617C77.4187 21.9617 76.6851 22.3847 76.291 23.1211C76.1791 23.3417 76.0881 23.5622 76.0139 23.9181C76.0126 23.9246 76.0113 23.9298 76.0113 23.9336C76.0139 23.9349 76.0178 23.9349 76.023 23.9349ZM63.5554 31.1003C61.6824 31.1003 60.3816 29.9873 60.1592 28.1947C60.0538 27.3757 60.1254 26.4472 60.3881 25.1846C60.6509 23.9233 60.9657 22.9973 61.4105 22.1797C62.3666 20.409 64.1121 19.3102 65.967 19.3102C67.5565 19.3102 68.2472 19.9292 68.5321 20.3496L69.2891 16.7115C69.5102 15.6501 70.3414 14.9356 71.3586 14.9356C71.8477 14.9356 72.2379 15.0955 72.4876 15.3999C72.7582 15.7288 72.8388 16.1956 72.7231 16.7515L70.1307 29.2109C69.9095 30.2723 69.0784 30.9868 68.0612 30.9868C67.4668 30.9868 66.8177 30.7018 66.6785 29.9203C66.1712 30.4129 65.1749 31.1003 63.5554 31.1003ZM66.352 22.2145C65.5339 22.2145 64.8731 22.6388 64.4425 23.4435C64.224 23.8459 64.0302 24.4456 63.8676 25.2259C63.7076 25.9945 63.6504 26.6084 63.6998 27.0017C63.7948 27.7949 64.2539 28.196 65.0643 28.196C65.8799 28.196 66.5146 27.782 66.9504 26.9669C67.1689 26.5645 67.3627 25.9648 67.5253 25.1846C67.6853 24.4172 67.7425 23.8034 67.6931 23.4087C67.5981 22.604 67.1585 22.2145 66.352 22.2145ZM46.0006 31.1003C44.4553 31.1003 43.3705 30.7327 42.7748 30.0092C42.2857 29.4147 42.1452 28.6009 42.3559 27.5898C42.8463 25.2336 44.787 23.9362 47.8191 23.9362H49.8287C49.8677 23.9362 49.8859 23.9285 49.8963 23.8795L49.9198 23.7647C50.0069 23.3442 49.9484 23.0051 49.7455 22.7587C49.4619 22.4131 48.9 22.2377 48.0766 22.2377C47.3729 22.2377 46.6497 22.4067 46.2426 22.5524C45.9616 22.6388 45.6702 22.7188 45.4127 22.7188C45.0056 22.7188 44.683 22.5859 44.4762 22.3357C44.2654 22.0804 44.2004 21.727 44.2862 21.3143C44.4085 20.7288 44.83 20.2361 45.4426 19.9602C46.1034 19.6635 47.2623 19.3102 49.0366 19.3102C50.7483 19.3102 51.9697 19.7409 52.6682 20.5908C53.3121 21.3749 53.4903 22.4879 53.1963 23.8988L52.5668 26.9218C52.4601 27.4364 52.4562 27.6685 52.5512 27.9187L52.7463 28.4217C52.8737 28.7299 52.9037 29.0755 52.8321 29.4173C52.6487 30.2968 51.759 30.9868 50.8056 30.9868C50.1981 30.9868 49.7559 30.7534 49.5269 30.3136L49.3839 30.0299C48.6359 30.7018 47.382 31.1003 46.0006 31.1003ZM47.8139 26.2679C46.5157 26.2679 45.8328 26.6419 45.665 27.4467C45.6039 27.7433 45.6416 27.9767 45.7769 28.1431C45.9681 28.3752 46.3583 28.4939 46.9385 28.4939C48.2626 28.4939 49.0353 28.0051 49.2369 27.0404L49.3943 26.2847C49.3956 26.2782 49.3969 26.2731 49.3969 26.2692C49.393 26.2692 49.3891 26.2692 49.3839 26.2692H47.8139V26.2679ZM57.0426 30.9855C55.8329 30.9855 55.0187 30.7095 54.553 30.1434C54.0691 29.554 53.9651 28.6357 54.2356 27.3371L56.4469 16.7102C56.6719 15.632 57.4836 14.9343 58.5164 14.9343C58.9924 14.9343 59.3918 15.1007 59.6402 15.4038C59.9121 15.7352 59.9953 16.2008 59.8808 16.7515L57.7268 27.1036C57.6605 27.4196 57.6735 27.6388 57.7658 27.7755C57.84 27.8852 57.97 27.9535 58.1743 27.9922C58.6217 28.0722 58.9417 28.2488 59.1225 28.5158C59.2968 28.7712 59.3423 29.1052 59.2578 29.5101C59.0653 30.4361 58.2887 30.9881 57.1805 30.9881H57.0426V30.9855ZM30.5296 30.8488C30.0561 30.8488 29.6854 30.7031 29.4591 30.4271C29.2263 30.1447 29.1573 29.741 29.2562 29.2612L31.8824 16.6418C32.0814 15.6888 32.8215 15.0723 33.7711 15.0723H38.6449C40.4126 15.0723 41.6679 15.5095 42.3755 16.371C42.9777 17.1035 43.1533 18.103 42.8958 19.3398C42.5042 21.2202 41.383 22.181 40.4582 22.6633C41.3882 23.1534 42.1166 24.4121 41.7381 26.2331C41.4207 27.7575 40.6793 28.9285 39.532 29.7139C38.4342 30.4671 36.9904 30.8488 35.2422 30.8488H30.5296ZM33.1532 27.92H35.717C37.0294 27.92 37.9256 27.2313 38.1754 26.0306C38.2859 25.4967 38.2118 25.0531 37.9581 24.7448C37.6811 24.4069 37.1855 24.229 36.5273 24.229H33.9636C33.9245 24.229 33.9063 24.2367 33.8959 24.2857L33.1428 27.9045C33.1415 27.911 33.1402 27.9161 33.1402 27.92C33.1441 27.92 33.148 27.92 33.1532 27.92ZM34.5021 21.4394H36.8811C38.1494 21.4394 39.0091 20.801 39.242 19.688C39.3486 19.1773 39.2836 18.7737 39.0495 18.4899C38.7867 18.1701 38.2989 18.0012 37.6395 18.0012H35.2604C35.2188 18.0012 35.2032 18.0102 35.1928 18.0579L34.4917 21.4239C34.4904 21.4304 34.4891 21.4355 34.4891 21.4394C34.493 21.4394 34.4969 21.4394 34.5021 21.4394Z" fill="#4247D2"/>
<path d="M111.928 31.1003C109.82 31.1003 108.561 30.4284 107.999 30.0273C107.496 29.6688 107.318 29.229 107.44 28.6422C107.596 27.8904 108.362 27.2791 109.147 27.2791C109.461 27.2791 109.733 27.3693 110.087 27.5924C110.692 27.9806 111.465 28.3778 112.614 28.3778C113.678 28.3778 114.334 28.04 114.462 27.4287C114.501 27.2391 114.486 27.1101 114.413 27.0108C114.27 26.8161 113.862 26.6884 113.13 26.611L111.933 26.473C110.646 26.3234 109.742 25.9043 109.248 25.2246C108.825 24.6443 108.708 23.8821 108.9 22.9612C109.368 20.7082 111.462 19.3076 114.363 19.3076C115.639 19.3076 116.809 19.572 117.656 20.0543C118.277 20.4116 118.511 20.8462 118.39 21.4227C118.228 22.1991 117.542 22.7626 116.757 22.7626C116.496 22.7626 116.24 22.6827 115.843 22.4763C115.235 22.1655 114.523 22.0069 113.727 22.0069C113.122 22.0069 112.373 22.1436 112.236 22.7962C112.197 22.9806 112.213 23.1057 112.283 23.2024C112.421 23.3907 112.81 23.5145 113.504 23.5906L114.701 23.7286C116.052 23.8846 116.986 24.3064 117.477 24.9796C117.888 25.5432 117.998 26.2963 117.807 27.2159C117.31 29.6121 115.057 31.1003 111.928 31.1003ZM99.7813 31.1003C98.2361 31.1003 97.1512 30.7328 96.5555 30.0093C96.0664 29.4147 95.926 28.601 96.1367 27.5899C96.6271 25.2336 98.5678 23.9362 101.6 23.9362H103.609C103.651 23.9362 103.667 23.9272 103.677 23.8795L103.7 23.7647C103.788 23.3443 103.729 23.0051 103.526 22.7588C103.243 22.4131 102.681 22.2377 101.856 22.2377C101.154 22.2377 100.429 22.4067 100.022 22.5524C99.741 22.6388 99.4497 22.7188 99.1921 22.7188C98.785 22.7188 98.4611 22.586 98.2556 22.3358C98.0449 22.0804 97.9798 21.727 98.0657 21.3143C98.1879 20.7288 98.6094 20.2362 99.222 19.9602C99.8828 19.6636 101.042 19.3102 102.816 19.3102C104.528 19.3102 105.749 19.7409 106.448 20.5908C107.092 21.375 107.27 22.4879 106.976 23.8988L106.346 26.9218C106.24 27.4364 106.236 27.6698 106.331 27.9187L106.526 28.4217C106.653 28.7312 106.683 29.0756 106.612 29.4173C106.428 30.2969 105.538 30.9868 104.585 30.9868C103.978 30.9868 103.535 30.7534 103.306 30.3136L103.163 30.0299C102.417 30.7018 101.163 31.1003 99.7813 31.1003ZM101.596 26.268C100.298 26.268 99.6148 26.642 99.4471 27.4467C99.3859 27.7433 99.4236 27.9768 99.5589 28.1431C99.7501 28.3753 100.14 28.4939 100.72 28.4939C102.045 28.4939 102.817 28.0051 103.019 27.0405L103.176 26.2847C103.178 26.2783 103.179 26.2731 103.179 26.2692C103.175 26.2692 103.171 26.2692 103.166 26.2692H101.596V26.268ZM89.2245 31.1003C86.3538 31.1003 84.6069 29.7101 84.3064 27.1862C84.1959 26.1416 84.2453 25.3433 84.7461 22.9393C85.2456 20.538 85.5278 19.7409 86.0715 18.6989C87.4113 16.1969 89.7188 14.8196 92.5713 14.8196C94.7982 14.8196 96.4632 15.7701 97.0264 17.3602C97.163 17.7329 97.1942 18.0708 97.1213 18.4216C96.9327 19.3295 96.0885 20.0144 95.1585 20.0144C94.5107 20.0144 94.075 19.7293 93.7472 19.0884C93.318 18.2836 92.8484 17.9986 91.9522 17.9986C90.8036 17.9986 89.9217 18.5583 89.3286 19.6623C89.0255 20.2336 88.8369 20.8217 88.3882 22.9793C87.9394 25.1356 87.8822 25.7211 87.9485 26.2912C88.0786 27.3706 88.7172 27.9187 89.8463 27.9187C90.7438 27.9187 91.3643 27.6169 92.1356 26.8057C92.7222 26.1738 93.2477 25.9043 93.8929 25.9043C94.3508 25.9043 94.7397 26.0706 94.9881 26.3737C95.2353 26.6742 95.3198 27.0882 95.2262 27.5383C95.1533 27.8865 94.9855 28.2192 94.6968 28.5881C93.4819 30.1602 91.4371 31.1003 89.2245 31.1003ZM126.623 30.9856C126.147 30.9856 125.748 30.8192 125.5 30.5161C125.228 30.1847 125.145 29.7191 125.259 29.1684L126.307 24.1297C126.443 23.4784 126.374 22.9625 126.107 22.6388C125.887 22.3719 125.54 22.2365 125.072 22.2365C124.023 22.2365 123.275 22.9419 123.02 24.171L121.972 29.2097C121.751 30.2711 120.92 30.9856 119.903 30.9856C119.413 30.9856 119.023 30.8256 118.773 30.5213C118.503 30.1924 118.422 29.7255 118.538 29.1684L121.13 16.7089C121.355 15.6308 122.167 14.9331 123.2 14.9331C123.676 14.9331 124.075 15.0994 124.324 15.4025C124.596 15.734 124.679 16.1995 124.564 16.7502L123.815 20.3484C124.365 19.897 125.362 19.3076 126.817 19.3076C127.931 19.3076 128.806 19.6584 129.351 20.3213C129.973 21.0783 130.152 22.1952 129.87 23.5519L128.693 29.2084C128.472 30.2724 127.641 30.9856 126.623 30.9856Z" fill="#03DBD0"/>
<path d="M27.6303 13.6273L28.4272 7.71631L17.5392 6.27322L16.7422 12.1842L27.6303 13.6273Z" fill="#00BAAC"/>
<path d="M24.1306 4.76418L20.5134 0L11.7377 6.54999L15.3549 11.3142L24.1306 4.76418Z" fill="#05CCBD"/>
<path d="M12.3956 1.63464L6.4856 2.74146L8.52437 13.4432L14.4343 12.3364L12.3956 1.63464Z" fill="#03DBD0"/>
<path d="M25.1186 17.4957L5.36297 7.97794C5.21078 7.90443 5.02608 7.96762 4.95324 8.11852C4.43554 9.17475 4.58253 10.2155 5.32395 11.0422L0.0793586 25.3833C-0.152173 26.0178 0.136591 26.7233 0.74794 27.0186L12.8878 32.8672C13.5004 33.1626 14.2379 32.9511 14.5982 32.3784L22.7318 19.4224C23.8387 19.4818 24.7453 18.9543 25.2604 17.9032C25.3346 17.751 25.2708 17.5692 25.1186 17.4957Z" fill="#4247D2"/>
<path d="M18.2169 18.6409C17.8514 18.4642 17.4078 18.619 17.2283 18.9866C16.1383 21.2112 13.4458 22.1514 11.2267 21.0823C9.00766 20.0131 8.08934 17.3332 9.17936 15.1098C9.35886 14.7423 9.20797 14.3025 8.84247 14.1258C8.47696 13.9491 8.0334 14.1039 7.8539 14.4714C6.40488 17.4286 7.62627 20.992 10.5764 22.4132C13.5264 23.8344 17.1061 22.5847 18.5551 19.6275C18.7333 19.26 18.5824 18.8176 18.2169 18.6409Z" fill="white"/>
</g>
<defs>
<clipPath id="clip0_383409:914">
<rect width="130" height="33" fill="white"/>
</clipPath>
</defs>
</svg>
