<svg width="104" height="139" viewBox="0 0 104 139" fill="none" xmlns="http://www.w3.org/2000/svg">
<g clip-path="url(#clip0_383926_2138)">
<path d="M97.1719 41.9507H6.44922V97.535H97.1719V41.9507Z" fill="#D9DAF6"/>
<path d="M104 36.1523H0V41.9192H104V36.1523Z" fill="#4247D2"/>
<path d="M104 97.5664H0V103.333H104V97.5664Z" fill="#4247D2"/>
<path d="M22.8735 92.7239L17.6035 87.4742L40.9331 64.2501L51.7406 75.0159L77.5085 49.3628L82.7785 54.6125L51.7406 85.5153L40.9331 74.7338L22.8735 92.7239Z" fill="#05DAD3"/>
<path d="M82.1808 71.4118L78.4682 71.2707L79.1289 52.9986L60.7861 53.6567L60.6445 49.9428L82.9988 49.1436L82.1808 71.4118Z" fill="#05DAD3"/>
<path d="M51.9144 0C46.1567 0 41.4688 4.65423 41.4688 10.4054C41.4688 16.1566 46.141 20.8108 51.9144 20.8108C57.6878 20.8108 62.36 16.1566 62.36 10.4054C62.36 4.65423 57.672 0 51.9144 0ZM51.9144 13.5239C50.1839 13.5239 48.7681 12.1135 48.7681 10.4054C48.7681 8.69729 50.1839 7.27125 51.9144 7.27125C53.6448 7.27125 55.0449 8.66595 55.0449 10.3897C55.0449 12.1135 53.6291 13.5239 51.9144 13.5239Z" fill="#4247D2"/>
<path d="M53.0617 102.456H50.5762V118.205H53.0617V102.456Z" fill="#4247D2"/>
<path d="M53.2512 20.6543H50.7656V36.4034H53.2512V20.6543Z" fill="#4247D2"/>
<path d="M51.803 118.205C46.0454 118.205 41.3574 122.859 41.3574 128.61C41.3574 134.346 46.0296 139.016 51.803 139.016C57.5764 139.016 62.2487 134.362 62.2487 128.61C62.2487 122.859 57.5764 118.205 51.803 118.205ZM51.803 131.729C50.0726 131.729 48.6725 130.334 48.6725 128.61C48.6725 126.887 50.0726 125.492 51.803 125.492C53.5335 125.492 54.9336 126.887 54.9336 128.61C54.9493 130.319 53.5335 131.729 51.803 131.729Z" fill="#4247D2"/>
</g>
<defs>
<clipPath id="clip0_383926_2138">
<rect width="104" height="139" fill="white"/>
</clipPath>
</defs>
</svg>
