<svg width="103" height="120" viewBox="0 0 103 120" fill="none" xmlns="https://www.w3.org/2000/svg">
<path d="M70.2722 120H9.29111C4.16221 120 0 115.822 0 110.664V15.5414C0 10.3836 4.16221 6.20557 9.29111 6.20557H70.2722C75.4053 6.20557 79.5633 10.3878 79.5633 15.5414V110.664C79.5633 115.822 75.4053 120 70.2722 120Z" fill="#D9DAF6"/>
<path d="M14.1321 15.1341C12.9671 15.1341 12.0215 14.184 12.0215 13.0133V2.12082C12.0215 0.950125 12.9671 0 14.1321 0C15.2972 0 16.2428 0.950125 16.2428 2.12082V13.0133C16.2428 14.184 15.2972 15.1341 14.1321 15.1341Z" fill="#4247D2"/>
<path d="M65.8196 15.1341C64.6546 15.1341 63.709 14.184 63.709 13.0133V2.12082C63.709 0.950125 64.6546 0 65.8196 0C66.9847 0 67.9303 0.950125 67.9303 2.12082V13.0133C67.9303 14.184 66.9847 15.1341 65.8196 15.1341Z" fill="#4247D2"/>
<path d="M63.8849 33.6318H16.0659C14.7826 33.6318 13.7441 32.5883 13.7441 31.2989V25.0722C13.7441 23.7827 14.7826 22.7393 16.0659 22.7393H63.8807C65.1639 22.7393 66.2024 23.7827 66.2024 25.0722V31.2989C66.2066 32.5883 65.1682 33.6318 63.8849 33.6318Z" fill="#4247D2" stroke="#D9DAF6" stroke-miterlimit="10"/>
<path d="M21.9541 93.9224H13.4355V101.702H21.9541V93.9224Z" fill="#B3B5ED"/>
<path d="M21.9541 79.4414H13.4355V87.2206H21.9541V79.4414Z" fill="#B3B5ED"/>
<path d="M21.9541 62.9033H13.4355V70.6825H21.9541V62.9033Z" fill="#B3B5ED"/>
<path d="M21.9541 46.0132H13.4355V53.7923H21.9541V46.0132Z" fill="#B3B5ED"/>
<path d="M64.2697 50.7552H25.3618C24.8975 50.7552 24.5176 50.3735 24.5176 49.9069C24.5176 49.4403 24.8975 49.0586 25.3618 49.0586H64.2739C64.7382 49.0586 65.1182 49.4403 65.1182 49.9069C65.1182 50.3735 64.7382 50.7552 64.2697 50.7552Z" fill="#B3B5ED"/>
<path d="M64.2697 67.6415H25.3618C24.8975 67.6415 24.5176 67.2597 24.5176 66.7931C24.5176 66.3266 24.8975 65.9448 25.3618 65.9448H64.2739C64.7382 65.9448 65.1182 66.3266 65.1182 66.7931C65.1182 67.2597 64.7382 67.6415 64.2697 67.6415Z" fill="#B3B5ED"/>
<path d="M64.2697 84.1796H25.3618C24.8975 84.1796 24.5176 83.7978 24.5176 83.3312C24.5176 82.8647 24.8975 82.4829 25.3618 82.4829H64.2739C64.7382 82.4829 65.1182 82.8647 65.1182 83.3312C65.1182 83.7978 64.7382 84.1796 64.2697 84.1796Z" fill="#B3B5ED"/>
<path d="M64.2697 98.6605H25.3618C24.8975 98.6605 24.5176 98.2788 24.5176 97.8122C24.5176 97.3456 24.8975 96.9639 25.3618 96.9639H64.2739C64.7382 96.9639 65.1182 97.3456 65.1182 97.8122C65.1182 98.2788 64.7382 98.6605 64.2697 98.6605Z" fill="#B3B5ED"/>
<path d="M102.278 78.0374L94.5063 64.5151L86.7348 50.9928C84.6875 47.4256 79.5628 47.4256 77.5155 50.9928L69.744 64.5151L61.9726 78.0374C59.9253 81.6047 62.4834 86.0626 66.5823 86.0626H82.1209H97.6596C101.763 86.0626 104.325 81.6047 102.278 78.0374ZM83.3704 77.2952C83.3704 78.1732 82.6613 78.8815 81.7917 78.8815H81.665C80.7912 78.8815 80.0863 78.1689 80.0863 77.2952V77.1679C80.0863 76.2899 80.7954 75.5815 81.665 75.5815H81.7917C82.6655 75.5815 83.3704 76.2941 83.3704 77.1679V77.2952ZM83.5013 65.69L82.7415 73.5964C82.695 74.0758 82.294 74.4405 81.817 74.4405H81.6439C81.1669 74.4405 80.7659 74.0758 80.7195 73.5964L79.947 65.69V62.8778C79.947 62.1992 80.4957 61.6478 81.1711 61.6478H82.2771C82.9525 61.6478 83.5013 62.1992 83.5013 62.8778V65.69Z" fill="#05DAD3"/>
</svg>
