<svg width="100" height="101" viewBox="0 0 100 101" fill="none" xmlns="https://www.w3.org/2000/svg">
<g clip-path="url(#clip0_383926_2108)">
<path d="M50.0007 100.833C77.6153 100.833 100.001 78.261 100.001 50.4167C100.001 22.5723 77.6153 0 50.0007 0C22.3861 0 0 22.5723 0 50.4167C0 78.261 22.3861 100.833 50.0007 100.833Z" fill="#4247D2"/>
<path d="M50.0005 95.7912C74.8535 95.7912 95.0009 75.4763 95.0009 50.4166C95.0009 25.3569 74.8535 5.04199 50.0005 5.04199C25.1474 5.04199 5 25.3569 5 50.4166C5 75.4763 25.1474 95.7912 50.0005 95.7912Z" fill="#B3B5ED"/>
<path d="M20.5493 53.4833H15.0887C13.4202 53.4833 12.0547 52.103 12.0547 50.4166C12.0547 48.7301 13.4202 47.3499 15.0887 47.3499H20.5493C22.2178 47.3499 23.5833 48.7301 23.5833 50.4166C23.5833 52.103 22.2178 53.4833 20.5493 53.4833Z" fill="white"/>
<path d="M84.9908 53.4833H79.5301C77.8616 53.4833 76.4961 52.103 76.4961 50.4166C76.4961 48.7301 77.8616 47.3499 79.5301 47.3499H84.9908C86.6593 47.3499 88.0247 48.7301 88.0247 50.4166C88.0247 52.103 86.6606 53.4833 84.9908 53.4833Z" fill="white"/>
<path d="M53.1656 14.9964V20.5159C53.1656 22.2024 51.8001 23.5826 50.1317 23.5826C48.4632 23.5826 47.0977 22.2024 47.0977 20.5159V14.9964C47.0977 13.3099 48.4632 11.9297 50.1317 11.9297C51.8001 11.9297 53.1656 13.3099 53.1656 14.9964Z" fill="white"/>
<path d="M53.1656 80.1329V85.6524C53.1656 87.3389 51.8001 88.7191 50.1317 88.7191C48.4632 88.7191 47.0977 87.3389 47.0977 85.6524V80.1329C47.0977 78.4464 48.4632 77.0662 50.1317 77.0662C51.8001 77.0662 53.1656 78.4464 53.1656 80.1329Z" fill="white"/>
<path d="M25.236 28.3252C26.9197 28.3252 28.2846 26.9456 28.2846 25.2438C28.2846 23.5419 26.9197 22.1624 25.236 22.1624C23.5524 22.1624 22.1875 23.5419 22.1875 25.2438C22.1875 26.9456 23.5524 28.3252 25.236 28.3252Z" fill="white"/>
<path d="M74.9333 28.3252C76.617 28.3252 77.9818 26.9456 77.9818 25.2438C77.9818 23.5419 76.617 22.1624 74.9333 22.1624C73.2496 22.1624 71.8848 23.5419 71.8848 25.2438C71.8848 26.9456 73.2496 28.3252 74.9333 28.3252Z" fill="white"/>
<path d="M74.9333 78.5574C76.617 78.5574 77.9818 77.1778 77.9818 75.476C77.9818 73.7741 76.617 72.3945 74.9333 72.3945C73.2496 72.3945 71.8848 73.7741 71.8848 75.476C71.8848 77.1778 73.2496 78.5574 74.9333 78.5574Z" fill="white"/>
<path d="M25.236 78.5574C26.9197 78.5574 28.2846 77.1778 28.2846 75.476C28.2846 73.7741 26.9197 72.3945 25.236 72.3945C23.5524 72.3945 22.1875 73.7741 22.1875 75.476C22.1875 77.1778 23.5524 78.5574 25.236 78.5574Z" fill="white"/>
<path d="M47.0268 50.9986L46.9355 31.8628C46.9355 31.8628 48.301 28.7346 50.9407 29.8393C53.5804 30.9426 52.9427 32.1396 52.9427 32.1396L53.034 48.9764L69.5086 65.8131C69.5086 65.8131 71.6931 67.9289 69.8724 70.137C68.0518 72.3451 65.5947 70.4125 65.5947 70.4125L47.0268 50.9986Z" fill="#05DAD3"/>
</g>
<defs>
<clipPath id="clip0_383926_2108">
<rect width="100" height="100.833" fill="white"/>
</clipPath>
</defs>
</svg>
