<svg width="128" height="110" viewBox="0 0 128 110" fill="none" xmlns="http://www.w3.org/2000/svg">
<path d="M30.2846 76.1167H11.3135V107.976H30.2846V76.1167Z" fill="#E7E7E7"/>
<path d="M58.9458 65.4316H39.9746V107.98H58.9458V65.4316Z" fill="#E7E7E7"/>
<path d="M87.6117 68.3657H68.6406V107.98H87.6117V68.3657Z" fill="#E7E7E7"/>
<path d="M116.273 48.2432H97.3018V107.976H116.273V48.2432Z" fill="#E7E7E7"/>
<path d="M127.101 110H0.899318C0.404693 110 0 109.283 0 108.391C0 107.505 0.404693 106.783 0.899318 106.783H127.101C127.595 106.783 128 107.5 128 108.391C128 109.283 127.6 110 127.101 110Z" fill="#C4C4C4"/>
<path d="M107.612 18.9434V23.4953C108.188 23.3856 108.656 23.1159 109.015 22.6818C109.375 22.2476 109.555 21.7403 109.555 21.1599C109.555 20.6389 109.402 20.191 109.101 19.8117C108.799 19.4324 108.305 19.1444 107.612 18.9434Z" fill="#C4C4C4"/>
<path d="M104.869 11.8644C104.599 12.2391 104.469 12.6504 104.469 13.1029C104.469 13.5142 104.59 13.8981 104.837 14.2546C105.08 14.6065 105.454 14.8944 105.953 15.1138V11.0737C105.494 11.2291 105.134 11.4942 104.869 11.8644Z" fill="#C4C4C4"/>
<path d="M106.753 0C97.0721 0 89.2256 7.97499 89.2256 17.8146C89.2256 27.6542 97.0721 35.6292 106.753 35.6292C116.434 35.6292 124.281 27.6542 124.281 17.8146C124.281 7.97499 116.434 0 106.753 0ZM111.11 24.2997C110.274 25.264 109.105 25.8582 107.612 26.073V28.2575H105.948V26.1324C104.622 25.9678 103.547 25.4651 102.72 24.6242C101.892 23.7833 101.366 22.595 101.133 21.064L104.132 20.735C104.253 21.3565 104.483 21.8958 104.82 22.3482C105.157 22.8007 105.53 23.1252 105.944 23.3308V18.4407C104.442 18.0066 103.34 17.3439 102.643 16.4618C101.942 15.5798 101.591 14.5058 101.591 13.2444C101.591 11.9693 101.987 10.8953 102.778 10.027C103.57 9.15867 104.626 8.66052 105.944 8.52798V7.37172H107.608V8.52798C108.826 8.67423 109.793 9.09926 110.512 9.79393C111.232 10.4886 111.691 11.4209 111.893 12.5909L108.988 12.9748C108.813 12.0562 108.354 11.4346 107.608 11.1056V15.6712C109.447 16.1785 110.697 16.832 111.362 17.6364C112.028 18.4407 112.361 19.4736 112.361 20.735C112.37 22.1472 111.951 23.3354 111.11 24.2997Z" fill="#C4C4C4"/>
<path d="M21.4175 67.031C20.9319 67.031 20.4552 66.8025 20.145 66.3775C19.6324 65.6645 19.7852 64.6637 20.4867 64.1427L48.8287 43.0741L75.6015 54.2345L95.7777 38.0468C96.4612 37.4984 97.4504 37.6172 97.99 38.3119C98.5296 39.0066 98.4127 40.012 97.7292 40.5605L76.1096 57.9089L49.2649 46.7165L22.3483 66.7202C22.065 66.9305 21.7413 67.031 21.4175 67.031Z" fill="#C4C4C4"/>
</svg>
