<svg width="148" height="127" viewBox="0 0 148 127" fill="none" xmlns="http://www.w3.org/2000/svg">
<path d="M35.0174 87.8799H13.082V124.662H35.0174V87.8799Z" fill="#B3B5ED"/>
<path d="M68.1561 75.5435H46.2207V124.668H68.1561V75.5435Z" fill="#B3B5ED"/>
<path d="M101.301 78.9312H79.3652V124.668H101.301V78.9312Z" fill="#B3B5ED"/>
<path d="M134.441 55.6987H112.506V124.663H134.441V55.6987Z" fill="#B3B5ED"/>
<path d="M146.96 127H1.03984C0.467927 127 0 126.171 0 125.142C0 124.119 0.467927 123.285 1.03984 123.285H146.96C147.532 123.285 148 124.114 148 125.142C148 126.171 147.537 127 146.96 127Z" fill="#4247D2"/>
<path d="M124.428 21.8711V27.1265C125.093 26.9998 125.634 26.6885 126.05 26.1873C126.466 25.686 126.674 25.1003 126.674 24.4302C126.674 23.8287 126.497 23.3116 126.149 22.8736C125.8 22.4357 125.228 22.1033 124.428 21.8711Z" fill="#05DAD3"/>
<path d="M121.256 13.698C120.944 14.1307 120.793 14.6055 120.793 15.1279C120.793 15.6028 120.933 16.046 121.219 16.4576C121.5 16.8639 121.932 17.1963 122.509 17.4496V12.7852C121.978 12.9646 121.562 13.2706 121.256 13.698Z" fill="#05DAD3"/>
<path d="M123.434 0C112.241 0 103.168 9.20749 103.168 20.5678C103.168 31.9281 112.241 41.1356 123.434 41.1356C134.628 41.1356 143.701 31.9281 143.701 20.5678C143.701 9.20749 134.628 0 123.434 0ZM128.472 28.0551C127.505 29.1685 126.154 29.8544 124.427 30.1024V32.6246H122.504V30.171C120.97 29.9811 119.727 29.4006 118.771 28.4298C117.814 27.4589 117.206 26.087 116.935 24.3194L120.403 23.9395C120.544 24.6571 120.809 25.2797 121.199 25.8021C121.589 26.3244 122.02 26.6991 122.499 26.9365V21.2907C120.762 20.7894 119.488 20.0243 118.682 19.0059C117.871 17.9876 117.466 16.7476 117.466 15.2913C117.466 13.8191 117.923 12.5792 118.838 11.5766C119.753 10.5741 120.975 9.99896 122.499 9.84594V8.51099H124.422V9.84594C125.831 10.0148 126.949 10.5055 127.781 11.3075C128.613 12.1096 129.143 13.186 129.377 14.5367L126.018 14.98C125.816 13.9194 125.285 13.2018 124.422 12.8219V18.0931C126.549 18.6788 127.994 19.4333 128.764 20.362C129.533 21.2907 129.918 22.4832 129.918 23.9395C129.928 25.5699 129.445 26.9418 128.472 28.0551Z" fill="#05DAD3"/>
<path d="M24.7633 77.3903C24.2018 77.3903 23.6507 77.1265 23.292 76.6358C22.6993 75.8126 22.876 74.6571 23.6871 74.0556L56.4576 49.7309L87.4135 62.6161L110.742 43.9268C111.533 43.2936 112.676 43.4308 113.3 44.2328C113.924 45.0348 113.789 46.1957 112.999 46.8288L88.001 66.8584L56.9619 53.9363L25.8396 77.0315C25.512 77.2742 25.1377 77.3903 24.7633 77.3903Z" fill="#4247D2"/>
</svg>
