<svg width="227" height="210" viewBox="0 0 227 210" fill="none" xmlns="http://www.w3.org/2000/svg">
<path d="M141.683 150.064H100.743C96.559 150.064 93.1689 146.681 93.1689 142.505V138.721C93.1689 134.545 96.559 131.161 100.743 131.161H141.683C145.868 131.161 149.258 134.545 149.258 138.721V142.505C149.258 146.681 145.868 150.064 141.683 150.064Z" fill="#B3B5ED"/>
<path d="M0.819981 120.774L14.1678 134.096C15.2611 135.187 17.0387 135.187 18.132 134.096L85.8541 66.5062C86.9002 65.4621 88.5992 65.4621 89.6453 66.5062L130.766 107.547C131.812 108.591 133.503 108.591 134.55 107.547L214.731 27.5382C215.431 26.8395 216.555 26.8395 217.256 27.5382L220.347 30.6233C221.471 31.7459 223.391 30.953 223.391 29.3673V1.78198C223.391 0.800712 222.588 0 221.605 0H194.689C193.101 0 192.306 1.91543 193.431 3.03799L197.057 6.6569C197.757 7.35556 197.757 8.47812 197.057 9.17678L135.281 70.8316C134.235 71.8757 132.544 71.8757 131.498 70.8316L91.187 30.5997C89.9914 29.4065 88.0486 29.4065 86.8609 30.6076L0.819981 116.825C-0.273327 117.917 -0.273327 119.683 0.819981 120.774Z" fill="#4247D2"/>
<path d="M37.0798 136.743C16.8576 136.743 0.46582 153.102 0.46582 173.285C0.46582 193.468 16.8576 209.827 37.0798 209.827C57.3021 209.827 73.6938 193.468 73.6938 173.285C73.6938 153.102 57.3021 136.743 37.0798 136.743ZM48.2567 187.172C46.6364 188.962 44.261 190.178 41.1227 190.814V195.336C40.7845 195.407 40.2575 195.501 39.5417 195.619C38.826 195.736 38.0866 195.791 37.3315 195.791C35.8607 195.791 34.7123 195.54 33.8785 195.03C33.0527 194.52 32.6358 193.436 32.6358 191.78V191.215C31.2751 191.065 30.0402 190.822 28.9311 190.485C27.8142 190.147 26.8546 189.715 26.0445 189.189C25.2343 188.663 24.5972 188.043 24.1489 187.329C23.7006 186.614 23.4725 185.806 23.4725 184.903C23.4725 183.812 23.795 182.878 24.4321 182.108C25.077 181.339 25.7692 180.743 26.5243 180.327C27.5783 181.159 28.8761 181.873 30.402 182.47C31.9279 183.074 33.5954 183.372 35.4123 183.372C37.2607 183.372 38.5585 183.09 39.3136 182.525C40.0687 181.959 40.4463 181.3 40.4463 180.546C40.4463 179.793 40.1474 179.22 39.5417 178.819C38.9361 178.427 38.0866 178.034 36.9933 177.657L34.6179 176.865C32.9583 176.299 31.4481 175.726 30.0874 175.145C28.7266 174.565 27.5625 173.858 26.5793 173.026C25.5962 172.202 24.8332 171.213 24.2905 170.059C23.7399 168.912 23.4646 167.507 23.4646 165.851C23.4646 163.292 24.259 161.133 25.84 159.382C27.421 157.632 29.6862 156.439 32.6279 155.795V151.218C32.9661 151.14 33.4931 151.046 34.2089 150.936C34.9247 150.826 35.6562 150.763 36.4112 150.763C37.8821 150.763 39.0305 151.014 39.8642 151.524C40.698 152.035 41.107 153.118 41.107 154.774V155.504C43.443 155.811 45.3229 156.407 46.7387 157.31C48.1545 158.213 48.8624 159.453 48.8624 161.039C48.8624 162.02 48.6343 162.86 48.1859 163.551C47.7297 164.249 47.187 164.838 46.542 165.333C45.7162 164.807 44.5993 164.344 43.2071 163.951C41.8149 163.559 40.2811 163.355 38.6215 163.355C36.9225 163.355 35.6798 163.59 34.8853 164.061C34.0909 164.532 33.6976 165.129 33.6976 165.843C33.6976 166.408 33.9415 166.871 34.4291 167.225C34.9168 167.578 35.6562 167.915 36.6393 168.214L39.6361 169.171C43.1835 170.302 45.9049 171.738 47.8163 173.489C49.7197 175.24 50.6714 177.618 50.6714 180.633C50.6872 183.215 49.877 185.39 48.2567 187.172Z" fill="#B3B5ED"/>
<path d="M141.683 170.043H100.743C96.559 170.043 93.1689 166.659 93.1689 162.483V158.699C93.1689 154.523 96.559 151.14 100.743 151.14H141.683C145.868 151.14 149.258 154.523 149.258 158.699V162.483C149.258 166.659 145.868 170.043 141.683 170.043Z" fill="#B3B5ED"/>
<path d="M141.683 190.021H100.743C96.559 190.021 93.1689 186.638 93.1689 182.462V178.678C93.1689 174.502 96.559 171.118 100.743 171.118H141.683C145.868 171.118 149.258 174.502 149.258 178.678V182.462C149.258 186.638 145.868 190.021 141.683 190.021Z" fill="#B3B5ED"/>
<path d="M141.683 210H100.743C96.559 210 93.1689 206.616 93.1689 202.44V198.656C93.1689 194.48 96.559 191.097 100.743 191.097H141.683C145.868 191.097 149.258 194.48 149.258 198.656V202.44C149.258 206.616 145.868 210 141.683 210Z" fill="#B3B5ED"/>
<path opacity="0.27" d="M93.0827 140.613C93.0827 140.613 92.7209 149.97 100.476 149.97C108.232 149.97 142.95 149.97 142.95 149.97C142.95 149.97 149.353 148.534 149.172 142.049L93.0827 140.613Z" fill="#5A5B77"/>
<path opacity="0.27" d="M93.2009 160.537C93.2009 160.537 92.8391 169.894 100.594 169.894C108.35 169.894 143.068 169.894 143.068 169.894C143.068 169.894 149.471 168.457 149.29 161.973L93.2009 160.537Z" fill="#5A5B77"/>
<path opacity="0.27" d="M93.2009 180.452C93.2009 180.452 92.8391 189.809 100.594 189.809C108.35 189.809 143.068 189.809 143.068 189.809C143.068 189.809 149.471 188.373 149.29 181.889L93.2009 180.452Z" fill="#5A5B77"/>
<path opacity="0.27" d="M93.3181 200.611C93.3181 200.611 92.9562 209.969 100.712 209.969C108.467 209.969 143.185 209.969 143.185 209.969C143.185 209.969 149.588 208.532 149.407 202.048L93.3181 200.611Z" fill="#5A5B77"/>
<path d="M217.673 150.064H176.733C172.548 150.064 169.158 146.681 169.158 142.505V138.721C169.158 134.545 172.548 131.161 176.733 131.161H217.673C221.857 131.161 225.247 134.545 225.247 138.721V142.505C225.247 146.681 221.857 150.064 217.673 150.064Z" fill="#B3B5ED"/>
<path d="M217.673 170.043H176.733C172.548 170.043 169.158 166.659 169.158 162.483V158.699C169.158 154.523 172.548 151.14 176.733 151.14H217.673C221.857 151.14 225.247 154.523 225.247 158.699V162.483C225.247 166.659 221.857 170.043 217.673 170.043Z" fill="#B3B5ED"/>
<path d="M217.673 190.021H176.733C172.548 190.021 169.158 186.638 169.158 182.462V178.678C169.158 174.502 172.548 171.118 176.733 171.118H217.673C221.857 171.118 225.247 174.502 225.247 178.678V182.462C225.247 186.638 221.857 190.021 217.673 190.021Z" fill="#B3B5ED"/>
<path d="M217.673 210H176.733C172.548 210 169.158 206.616 169.158 202.44V198.656C169.158 194.48 172.548 191.097 176.733 191.097H217.673C221.857 191.097 225.247 194.48 225.247 198.656V202.44C225.247 206.616 221.857 210 217.673 210Z" fill="#B3B5ED"/>
<path opacity="0.27" d="M169.071 140.613C169.071 140.613 168.709 149.97 176.465 149.97C184.22 149.97 218.938 149.97 218.938 149.97C218.938 149.97 225.341 148.534 225.16 142.049L169.071 140.613Z" fill="#5A5B77"/>
<path opacity="0.27" d="M169.189 160.537C169.189 160.537 168.827 169.894 176.583 169.894C184.338 169.894 219.057 169.894 219.057 169.894C219.057 169.894 225.459 168.457 225.278 161.973L169.189 160.537Z" fill="#5A5B77"/>
<path d="M218.396 110.461H177.456C173.272 110.461 169.882 107.077 169.882 102.901V99.1173C169.882 94.941 173.272 91.5576 177.456 91.5576H218.396C222.581 91.5576 225.971 94.941 225.971 99.1173V102.901C225.971 107.077 222.581 110.461 218.396 110.461Z" fill="#B3B5ED"/>
<path d="M218.396 130.439H177.456C173.272 130.439 169.882 127.056 169.882 122.88V119.096C169.882 114.92 173.272 111.536 177.456 111.536H218.396C222.581 111.536 225.971 114.92 225.971 119.096V122.88C225.971 127.056 222.581 130.439 218.396 130.439Z" fill="#B3B5ED"/>
<path opacity="0.27" d="M169.795 101.009C169.795 101.009 169.433 110.366 177.188 110.366C184.944 110.366 219.662 110.366 219.662 110.366C219.662 110.366 226.065 108.93 225.884 102.445L169.795 101.009Z" fill="#5A5B77"/>
<path opacity="0.27" d="M169.913 120.933C169.913 120.933 169.551 130.29 177.306 130.29C185.062 130.29 219.78 130.29 219.78 130.29C219.78 130.29 226.183 128.853 226.002 122.369L169.913 120.933Z" fill="#5A5B77"/>
<path opacity="0.27" d="M169.189 180.452C169.189 180.452 168.827 189.809 176.583 189.809C184.338 189.809 219.057 189.809 219.057 189.809C219.057 189.809 225.459 188.373 225.278 181.889L169.189 180.452Z" fill="#5A5B77"/>
<path opacity="0.27" d="M169.307 200.611C169.307 200.611 168.946 209.969 176.701 209.969C184.456 209.969 219.175 209.969 219.175 209.969C219.175 209.969 225.577 208.532 225.396 202.048L169.307 200.611Z" fill="#5A5B77"/>
</svg>
