<svg width="104" height="127" viewBox="0 0 104 127" fill="none" xmlns="https://www.w3.org/2000/svg">
<path d="M80.2519 127H6.27266C2.8075 127 0 124.204 0 120.752V22.2044C0 18.753 2.8075 15.9565 6.27266 15.9565H63.6473L76.3332 27.6979L86.5245 37.0901V120.757C86.5291 124.204 83.717 127 80.2519 127Z" fill="#05DAD3"/>
<path d="M89.6132 119.957H15.634C12.1688 119.957 9.36133 117.16 9.36133 113.709V15.1566C9.36133 11.7051 12.1688 8.90869 15.634 8.90869H73.0086L85.6945 20.65L95.8859 30.0422V113.709C95.8859 117.156 93.0784 119.957 89.6132 119.957Z" fill="#8E91E4"/>
<path d="M97.722 111.048H23.7473C20.2821 111.048 17.4746 108.252 17.4746 104.8V6.2479C17.4701 2.79642 20.2821 0 23.7473 0H81.1219L93.8078 11.7414L103.999 21.1335V104.8C103.999 108.252 101.192 111.048 97.722 111.048Z" fill="#D9DAF6"/>
<path d="M104.001 21.1335L90.0406 20.9664C85.0968 20.9077 81.1191 16.896 81.1191 11.9718V0L104.001 21.1335Z" fill="#4247D2"/>
<path d="M87.7082 42.3756H34.4564C33.7035 42.3756 33.0957 41.7703 33.0957 41.0203C33.0957 40.2704 33.7035 39.665 34.4564 39.665H87.7036C88.4565 39.665 89.0643 40.2704 89.0643 41.0203C89.0643 41.7703 88.4565 42.3756 87.7082 42.3756Z" fill="#4247D2"/>
<path d="M87.7082 70.692H34.4564C33.7035 70.692 33.0957 70.0867 33.0957 69.3367C33.0957 68.5868 33.7035 67.9814 34.4564 67.9814H87.7036C88.4565 67.9814 89.0643 68.5868 89.0643 69.3367C89.0643 70.0867 88.4565 70.692 87.7082 70.692Z" fill="#4247D2"/>
<path d="M87.7082 56.6017H34.4564C33.7035 56.6017 33.0957 55.9963 33.0957 55.2464C33.0957 54.4965 33.7035 53.8911 34.4564 53.8911H87.7036C88.4565 53.8911 89.0643 54.4965 89.0643 55.2464C89.0643 55.9963 88.4565 56.6017 87.7082 56.6017Z" fill="#4247D2"/>
</svg>
